<?xml version="1.0" encoding="UTF-8" standalone="no"?>
<svg
   xmlns:dc="http://purl.org/dc/elements/1.1/"
   xmlns:cc="http://creativecommons.org/ns#"
   xmlns:rdf="http://www.w3.org/1999/02/22-rdf-syntax-ns#"
   xmlns:svg="http://www.w3.org/2000/svg"
   xmlns="http://www.w3.org/2000/svg"
   version="1.1"
   id="svg9775"
   viewBox="0 0 228.192 163.497"
   height="163.49699"
   width="228.192">
  <defs
     id="defs9777" />
  <metadata
     id="metadata9780">
    <rdf:RDF>
      <cc:Work
         rdf:about="">
        <dc:format>image/svg+xml</dc:format>
        <dc:type
           rdf:resource="http://purl.org/dc/dcmitype/StillImage" />
        <dc:title></dc:title>
      </cc:Work>
    </rdf:RDF>
  </metadata>
  <g
     transform="translate(0,-888.86516)"
     id="layer1">
    <g
       id="g9696"
       transform="matrix(1.25,0,0,-1.25,-227.16605,1306.631)">
      <path
         id="path114"
         style="fill:#e0dfe6;fill-opacity:1;fill-rule:nonzero;stroke:none"
         d="m 219.354,247.602 c -3.483,1.906 -7.039,1.06 -10.757,2.067 -3.762,1.018 -6.966,3.257 -10.093,5.495 -1.846,1.321 -10.761,9.38 -12.91,5.473 -3.362,-6.11 5.977,-15.055 10.253,-18.173 6.252,-4.559 18.07,-9.397 24.589,-3.254 2.461,2.319 1.882,6.772 -1.082,8.392" />
      <path
         id="path116"
         style="fill:#e0dfe6;fill-opacity:1;fill-rule:nonzero;stroke:none"
         d="m 248.472,295.698 c -3.41,4.738 -7.639,7.553 -13.554,7.467 -1.497,-0.023 -2.027,-1.721 -1.149,-2.775 2.951,-3.543 5.306,-8.365 6.903,-12.646 1.821,-4.88 1.913,-9.814 7.165,-12.019 1.927,-0.809 4.071,0.578 5.118,2.082 3.415,4.912 -1.443,13.666 -4.483,17.891" />
      <path
         id="path118"
         style="fill:#e0dfe6;fill-opacity:1;fill-rule:nonzero;stroke:none"
         d="m 232.38,289.154 c -1.558,2.761 -4.523,4.147 -7.615,4.139 -0.962,-0.002 -1.486,-1.476 -0.521,-1.922 2.967,-1.369 2.572,-4.921 1.32,-7.39 -1.298,-2.554 -2.762,-4.679 -1.747,-7.657 1.827,-5.354 10.178,-3.177 8.558,2.359 -0.299,1.024 1.006,3.363 1.115,4.61 0.173,1.967 -0.129,4.121 -1.11,5.861" />
      <path
         id="path120"
         style="fill:#e0dfe6;fill-opacity:1;fill-rule:nonzero;stroke:none"
         d="m 217.367,259.781 c -5.307,0.845 -13.725,-0.702 -16.701,-5.781 -0.789,-1.346 -0.078,-3.243 1.475,-3.626 2.184,-0.539 4.427,-0.193 6.653,-0.292 2.428,-0.109 4.725,-0.699 7.136,-0.921 6.004,-0.552 7.467,9.66 1.437,10.62" />
      <path
         id="path122"
         style="fill:#e0dfe6;fill-opacity:1;fill-rule:nonzero;stroke:none"
         d="m 219.865,288.407 c -1.845,-1.765 -2.572,-4.143 -4.55,-5.853 -1.664,-1.437 -3.872,-2.214 -5.387,-3.799 -0.824,-0.863 -0.87,-2.279 0,-3.138 2.664,-2.634 7.294,-1.92 10.402,-0.504 3.881,1.768 7.67,5.385 7.909,9.824 0.238,4.398 -5.446,6.27 -8.374,3.47" />
      <path
         id="path124"
         style="fill:#e0dfe6;fill-opacity:1;fill-rule:nonzero;stroke:none"
         d="m 246.817,235.087 c -1.483,-0.628 -2.117,-1.795 -3.295,-2.763 -1.247,-1.024 -2.882,-1.606 -4.411,-2.049 -2.368,-0.684 -5.86,-0.64 -7.629,-2.615 -0.029,-0.032 -0.058,-0.066 -0.086,-0.098 -0.6,-0.669 -0.693,-1.507 -0.298,-2.301 1.842,-3.697 9.265,-3.5 12.593,-2.843 4.34,0.854 9.697,4.025 9.615,8.945 -0.06,3.571 -3.551,4.971 -6.489,3.724" />
      <path
         id="path126"
         style="fill:#e0dfe6;fill-opacity:1;fill-rule:nonzero;stroke:none"
         d="m 332.512,261.329 c -3.448,-1.259 -8.323,-0.921 -11.957,-1.318 -2.078,-0.227 -4.145,-0.397 -6.159,-0.801 -0.023,0.115 -0.045,0.23 -0.065,0.345 3.329,0.254 6.655,0.41 9.985,0.904 2.81,0.417 6.576,0.427 9.447,1.666 -0.34,-0.34 -0.75,-0.613 -1.251,-0.796 z m 31.512,33.813 c -0.992,3.846 -6.088,4.16 -8.104,1.059 -0.387,-0.595 -0.635,-1.156 -0.893,-1.846 -0.022,-0.058 -0.306,-0.838 -0.286,-0.819 -0.2,-0.482 -0.409,-0.958 -0.582,-1.451 -0.008,-0.023 -0.025,-0.069 -0.047,-0.123 -0.983,1.498 -2.941,2.428 -4.719,1.278 -3.203,-2.07 -6.027,-4.812 -8.744,-7.473 -0.621,-0.607 -1.274,-1.235 -1.917,-1.889 -0.823,0.445 -1.789,0.55 -2.652,0.308 -1.098,0.513 -2.592,0.425 -3.364,-0.54 -1.798,-2.248 -1.946,-3.547 -1.912,-6.468 0.029,-2.497 1.042,-7.264 -0.891,-9.145 -1.526,-1.485 -6.868,-1.872 -8.946,-2.386 -2.547,-0.631 -5.062,-1.433 -7.606,-2.091 -1.611,5.42 -4.479,10.173 -10.588,11.408 -1.335,0.27 -2.304,-1.258 -1.338,-2.298 0.32,-0.345 0.609,-0.724 0.881,-1.118 -3.079,-0.168 -6.329,-1.117 -9.1,-1.583 -5.585,-0.942 -11.222,-2.404 -16.857,-2.927 -1.43,-0.133 -2.088,-1.42 -1.928,-2.512 -1.651,-0.093 -3.302,-0.182 -4.952,-0.281 -11.233,-0.67 -22.243,-2.079 -33.402,-3.283 -1.953,-0.21 -2.058,-3.121 0,-3.125 20.908,-0.038 41.883,-0.965 62.812,-1.371 -0.493,-4.948 0.203,-10.431 0.167,-14.868 -0.053,-6.441 -0.102,-12.881 -0.116,-19.323 -11.112,-1.529 -22.252,-2.649 -33.419,-3.748 -5.799,-0.571 -11.612,-0.925 -17.414,-1.44 -5.296,-0.471 -11.398,-0.285 -16.187,-2.786 -0.52,-0.272 -0.727,-0.866 -0.645,-1.411 -2.886,-0.337 -5.737,-0.869 -8.522,-1.723 -2.087,-0.641 -1.815,-3.239 0,-3.978 10.772,-4.388 23.474,-3.667 34.943,-3.76 12.122,-0.098 24.263,0.319 36.348,1.28 8.504,0.677 19.204,-0.223 19.821,10.718 0.259,4.59 0.373,9.201 0.428,13.817 0.526,0.413 0.978,0.989 1.279,1.746 1.792,4.493 1.058,9.755 0.666,14.478 -0.222,2.673 -0.507,5.343 -0.876,8.001 3.536,-0.671 7.357,-0.556 10.764,-0.364 4.109,0.233 9.877,0.137 13.362,2.704 3.57,2.632 3.2,7.168 3.027,11.116 -0.151,3.446 0.037,7.81 -0.812,11.549 1.008,0.829 1.98,1.703 2.957,2.493 2.656,2.148 5.528,4.01 8.2,6.128 0.176,-0.677 0.517,-1.331 1.026,-1.934 1.179,-1.398 3.145,-1.528 4.8,-1.139 1.672,0.395 2.795,1.551 3.69,2.945 1.53,2.38 2.37,5.379 1.648,8.175" />
      <path
         id="path128"
         style="fill:#e0dfe6;fill-opacity:1;fill-rule:nonzero;stroke:none"
         d="m 303.567,305.662 c -0.642,7.989 -1.753,15.52 -0.763,23.542 0.713,5.778 -8.855,6.977 -10.129,1.37 -1.325,-5.838 -0.943,-11.72 -0.299,-17.623 0.298,-2.732 0.653,-5.458 0.858,-8.2 0.047,-0.627 0.406,-2.068 0.372,-3.067 -0.42,0.391 -2.301,-0.211 -2.874,-0.311 -6.108,-1.071 -12.25,-2.051 -18.403,-2.824 -5.217,-0.657 -10.94,-0.561 -16.013,-1.791 -2.386,-0.579 -3.015,-3.646 -1.405,-5.324 4.654,-4.851 13.324,-3.126 19.309,-2.565 7.431,0.695 15.519,1.136 22.721,3.169 6.603,1.864 7.101,7.722 6.626,13.624" />
      <path
         id="path130"
         style="fill:#e0dfe6;fill-opacity:1;fill-rule:nonzero;stroke:none"
         d="m 252.187,305.836 c -2.902,0.561 -5.28,-0.111 -7.493,-2.101 -1.575,-1.417 -3.358,-3.617 -3.099,-5.864 0.139,-1.211 0.967,-2.432 2.356,-2.357 1.681,0.091 3.266,1.104 4.544,1.692 1.049,0.483 1.633,0.621 2.663,1.155 0.97,0.503 1.695,1.253 2.476,1.99 1.707,1.611 0.982,5.015 -1.447,5.485" />
      <path
         id="path132"
         style="fill:#e0dfe6;fill-opacity:1;fill-rule:nonzero;stroke:none"
         d="m 312.145,291.552 c -0.651,1.242 -1.828,1.926 -3.117,2.341 -0.248,0.08 -0.5,0.153 -0.75,0.233 -0.069,0.021 -0.411,0.15 -0.589,0.209 -0.127,0.066 -0.266,0.138 -0.305,0.161 -0.183,0.108 -0.799,0.669 -0.244,0.125 -0.442,0.432 -0.941,0.801 -1.388,1.227 -1.061,1.009 -2.705,1.264 -3.987,0.514 -1.354,-0.792 -1.738,-2.254 -1.512,-3.715 0.696,-4.492 7.26,-9.645 11.291,-5.754 1.269,1.226 1.387,3.158 0.601,4.659" />
      <path
         id="path508"
         style="fill:#525d7d;fill-opacity:1;fill-rule:nonzero;stroke:none"
         d="m 216.042,293.066 c -0.042,0 -0.084,0 -0.126,-10e-4 -1.998,-0.036 -3.915,-0.909 -5.398,-2.458 -1.661,-1.736 -2.578,-4.092 -2.516,-6.462 0.135,-5.14 4.812,-7.909 8.137,-7.931 2.019,0.004 4.215,0.955 5.815,2.589 1.69,1.727 2.583,4 2.516,6.399 -0.06,2.135 -0.842,3.867 -2.46,5.453 -1.031,1.011 -2.432,1.746 -4.163,2.184 -0.598,0.151 -1.205,0.227 -1.805,0.227 z m 0.139,-19.852 c -0.02,0 -0.041,0 -0.062,0 -5.232,0.035 -10.947,4.404 -11.116,10.853 -0.083,3.164 1.137,6.304 3.348,8.614 2.039,2.131 4.707,3.333 7.511,3.384 0.912,0.014 1.824,-0.092 2.722,-0.318 2.251,-0.569 4.11,-1.563 5.526,-2.949 2.178,-2.134 3.277,-4.591 3.359,-7.512 0.09,-3.221 -1.108,-6.268 -3.371,-8.581 -2.174,-2.221 -5.056,-3.491 -7.917,-3.491" />
      <path
         id="path510"
         style="fill:#525d7d;fill-opacity:1;fill-rule:nonzero;stroke:none"
         d="m 202.031,253.647 0.01,0 -0.01,0 z m 1.592,-3.05 c -3.669,0 -4.73,1.031 -4.73,4.595 0,0.417 0.013,0.846 0.026,1.262 0.011,0.362 0.021,0.715 0.021,1.039 0,8.226 6.144,17.524 15.289,18.255 0.823,0.058 1.549,-0.551 1.615,-1.376 0.066,-0.825 -0.55,-1.549 -1.376,-1.614 -7.382,-0.59 -12.528,-8.519 -12.528,-15.265 0,-0.353 -0.011,-0.735 -0.023,-1.13 -0.012,-0.387 -0.024,-0.784 -0.024,-1.171 0,-0.967 0.067,-1.341 0.113,-1.483 0.172,-0.056 0.599,-0.112 1.617,-0.112 1.427,0 2.884,0.292 4.427,0.602 1.919,0.384 3.934,0.789 5.98,0.624 0.826,-0.062 1.444,-0.784 1.381,-1.61 -0.064,-0.826 -0.787,-1.465 -1.611,-1.38 -1.672,0.126 -3.354,-0.213 -5.16,-0.576 -1.619,-0.325 -3.293,-0.66 -5.017,-0.66" />
      <path
         id="path512"
         style="fill:#525d7d;fill-opacity:1;fill-rule:nonzero;stroke:none"
         d="m 215.262,239.714 c -15.225,0 -28.884,10.278 -32.47,25.329 -2.432,10.201 -0.644,20.376 5.036,28.65 5.672,8.265 14.836,13.8 25.142,15.188 15.735,2.116 31.24,-8.107 35.295,-23.278 l 0.136,-0.53 c 0.664,-2.663 1.027,-5.361 1.11,-8.248 0.024,-0.828 -0.628,-1.519 -1.456,-1.542 -0.811,-0.056 -1.519,0.628 -1.543,1.456 -0.076,2.668 -0.41,5.157 -1.022,7.609 l -0.124,0.48 c -3.673,13.741 -17.725,22.995 -31.995,21.08 -9.468,-1.275 -17.877,-6.346 -23.07,-13.912 -5.193,-7.567 -6.823,-16.892 -4.591,-26.258 3.676,-15.426 19.008,-25.331 34.906,-22.559 0.817,0.145 1.594,-0.402 1.736,-1.219 0.143,-0.816 -0.403,-1.593 -1.219,-1.736 -1.97,-0.343 -3.934,-0.51 -5.871,-0.51" />
      <path
         id="path514"
         style="fill:#525d7d;fill-opacity:1;fill-rule:nonzero;stroke:none"
         d="m 293.749,276.613 c -13.656,0 -27.551,-0.577 -40.989,-1.136 -6.123,-0.254 -12.454,-0.517 -18.686,-0.722 -6.092,-0.202 -12.394,-4.024 -12.394,-10.074 0.108,-9.824 0.546,-19.664 0.968,-29.18 0.321,-7.212 0.652,-14.654 0.839,-22.047 29.885,1.627 50.509,1.551 67.135,1.492 6.208,-0.022 12.104,-0.044 17.707,0.029 -0.72,15.805 -1.858,33.068 -3.474,52.708 -0.389,4.729 -4.247,8.897 -8.255,8.921 -0.951,0.006 -1.901,0.009 -2.851,0.009 z m -71.724,-66.242 c -0.377,0 -0.74,0.141 -1.018,0.398 -0.299,0.277 -0.472,0.661 -0.482,1.068 -0.178,7.869 -0.531,15.831 -0.874,23.531 -0.423,9.54 -0.862,19.406 -0.97,29.181 l -0.001,0.132 c 0,7.868 7.777,12.825 15.295,13.072 6.219,0.205 12.544,0.467 18.66,0.721 14.409,0.599 29.316,1.216 43.983,1.13 6.144,-0.037 10.765,-6.066 11.227,-11.675 1.672,-20.32 2.833,-38.103 3.551,-54.365 0.018,-0.405 -0.129,-0.8 -0.407,-1.095 -0.278,-0.294 -0.662,-0.464 -1.068,-0.471 -6.091,-0.1 -12.512,-0.076 -19.31,-0.052 -16.875,0.062 -37.871,0.138 -68.503,-1.573 -0.027,-10e-4 -0.055,-0.002 -0.083,-0.002" />
      <path
         id="path516"
         style="fill:#525d7d;fill-opacity:1;fill-rule:nonzero;stroke:none"
         d="m 220.154,260.817 c -0.799,0 -1.464,0.631 -1.497,1.438 -0.035,0.828 0.608,1.526 1.436,1.561 l 85.487,3.549 c 0.813,0.041 1.526,-0.608 1.56,-1.437 0.035,-0.828 -0.608,-1.526 -1.436,-1.561 l -85.487,-3.549 c -0.021,-10e-4 -0.042,-10e-4 -0.063,-10e-4" />
      <path
         id="path518"
         style="fill:#525d7d;fill-opacity:1;fill-rule:nonzero;stroke:none"
         d="m 232.182,269.385 0.293,-1.471 c 0.469,0.093 0.851,0.57 0.851,1.062 0,0.074 -0.008,0.145 -0.025,0.212 -0.128,0.512 -0.652,0.649 -0.941,0.649 -0.182,0 -0.363,-0.043 -0.523,-0.124 -0.044,-0.035 -0.289,-0.318 -0.289,-0.718 0,-0.609 0.548,-1.066 0.917,-1.077 l -0.283,1.467 z m 0.178,-2.548 c -1.028,0 -1.769,0.817 -1.97,1.625 -0.042,0.169 -0.064,0.342 -0.064,0.514 0,0.938 0.628,1.694 1.563,1.879 0.228,0.045 0.401,0.063 0.573,0.063 1.434,0 2.086,-0.997 2.086,-1.923 0,-0.585 -0.235,-1.401 -1.36,-1.961 -0.253,-0.129 -0.535,-0.197 -0.828,-0.197" />
      <path
         id="path520"
         style="fill:#525d7d;fill-opacity:1;fill-rule:nonzero;stroke:none"
         d="m 241.755,269.049 c -0.009,-0.017 -0.019,-0.033 -0.029,-0.047 0.01,0.015 0.02,0.031 0.029,0.047 z m -0.349,-0.301 -0.001,0 0.001,0 z m -1.266,1.257 c -0.016,-0.068 -0.025,-0.136 -0.025,-0.205 0,-0.074 0.009,-0.146 0.028,-0.219 0.113,-0.453 0.505,-0.804 0.937,-0.858 0.373,0.085 0.639,0.325 0.776,0.535 0.051,0.141 0.079,0.295 0.079,0.45 0,0.362 -0.235,1.04 -0.801,1.04 -0.014,0 -0.209,-0.579 -0.209,-0.579 l -0.173,0.513 c -0.018,-0.005 -0.036,-0.012 -0.053,-0.019 -0.262,-0.106 -0.467,-0.34 -0.547,-0.611 l 0.325,-0.219 -0.337,0.172 z m 0.994,-2.257 c -1.062,0 -2.199,0.787 -2.199,1.96 0,0.298 0.079,0.589 0.229,0.85 0.459,1.024 1.292,1.134 1.633,1.134 0.02,0 0.041,0 0.062,-0.001 1.023,0.15 1.958,-0.436 2.194,-1.382 0.041,-0.166 0.062,-0.337 0.062,-0.509 0,-0.851 -0.508,-1.605 -1.295,-1.92 -0.215,-0.087 -0.448,-0.132 -0.686,-0.132" />
      <path
         id="path522"
         style="fill:#525d7d;fill-opacity:1;fill-rule:nonzero;stroke:none"
         d="m 248.744,270.645 c -0.009,-0.006 -0.017,-0.011 -0.026,-0.016 0.009,0.005 0.017,0.01 0.026,0.016 z m 0.548,0.192 c -0.443,-0.214 -0.754,-0.67 -0.761,-1.062 0,-0.592 0.521,-1.035 0.897,-1.101 0.547,0.059 1.055,0.615 1.055,1.179 0,0.513 -0.522,1.064 -1.191,0.984 z m 0.132,-2.993 c -1.07,0 -1.941,0.901 -1.941,2.009 0,1.052 0.778,1.816 1.849,1.816 l 0.074,0 c 2.066,0 2.125,-1.699 2.125,-1.892 0,-1.098 -0.684,-1.673 -1.424,-1.794 -0.213,-0.092 -0.445,-0.139 -0.683,-0.139" />
      <path
         id="path524"
         style="fill:#525d7d;fill-opacity:1;fill-rule:nonzero;stroke:none"
         d="m 232.103,225.803 c 2.297,-0.047 5.07,-0.027 7.725,0.003 1.54,0.016 3.079,0.033 4.619,0.033 1.161,0 1.757,-0.008 2.332,-0.015 0.528,-0.007 1.037,-0.013 1.964,-0.013 l 1.061,0.004 c -0.613,8.108 -0.993,16.191 -1.344,24.417 -2.262,-0.056 -4.537,-0.152 -6.749,-0.246 -3.173,-0.134 -6.443,-0.271 -9.702,-0.297 0.078,-3.292 0.09,-6.439 0.09,-8.903 0,-1.625 -0.006,-3.249 -0.012,-4.874 -0.005,-1.622 -0.011,-3.243 -0.011,-4.865 0,-1.748 0.007,-3.496 0.027,-5.244 z m 3.138,-3.029 c -1.728,0 -3.254,0.022 -4.665,0.066 -0.801,0.024 -1.441,0.674 -1.454,1.475 -0.035,2.244 -0.046,4.488 -0.046,6.732 0,1.625 0.006,3.251 0.011,4.876 0.006,1.621 0.012,3.242 0.012,4.863 0,2.825 -0.015,6.555 -0.13,10.355 -0.012,0.407 0.142,0.801 0.426,1.093 0.285,0.291 0.719,0.441 1.082,0.452 l 0.509,-0.001 c 3.532,0 7.124,0.152 10.598,0.298 2.709,0.114 5.51,0.233 8.286,0.28 0.813,-0.017 1.489,-0.623 1.524,-1.436 0.392,-9.251 0.804,-18.308 1.525,-27.387 0.033,-0.416 -0.108,-0.827 -0.391,-1.135 -0.282,-0.306 -0.68,-0.482 -1.098,-0.484 l -2.687,-0.01 c -0.944,0 -1.464,0.007 -2.001,0.013 -0.566,0.008 -1.153,0.015 -2.295,0.015 -1.529,0 -3.058,-0.016 -4.588,-0.033 -1.539,-0.015 -3.079,-0.032 -4.618,-0.032" />
      <path
         id="path526"
         style="fill:#525d7d;fill-opacity:1;fill-rule:nonzero;stroke:none"
         d="m 265.921,249.613 c -0.802,0 -1.466,0.634 -1.498,1.441 -0.032,0.829 0.613,1.526 1.44,1.558 2.304,0.09 4.614,0.217 6.925,0.344 4.254,0.233 8.652,0.475 12.993,0.475 2.22,0 4.252,-0.061 6.211,-0.188 0.826,-0.054 1.453,-0.768 1.4,-1.594 -0.054,-0.827 -0.758,-1.451 -1.595,-1.4 -1.893,0.123 -3.861,0.182 -6.016,0.182 -4.258,0 -8.615,-0.239 -12.828,-0.47 -2.328,-0.129 -4.653,-0.256 -6.973,-0.347 -0.019,-0.001 -0.04,-0.001 -0.059,-0.001" />
      <path
         id="path528"
         style="fill:#525d7d;fill-opacity:1;fill-rule:nonzero;stroke:none"
         d="m 267.153,241.654 c -0.762,0 -1.414,0.578 -1.49,1.354 -0.081,0.824 0.521,1.558 1.345,1.639 3.558,0.35 8.318,0.433 12.922,0.513 4.659,0.081 9.939,0.174 11.108,0.599 0.775,0.282 1.639,-0.119 1.922,-0.898 0.283,-0.779 -0.119,-1.64 -0.898,-1.923 -1.56,-0.566 -5.607,-0.665 -12.08,-0.777 -4.332,-0.076 -9.243,-0.161 -12.68,-0.5 -0.049,-0.005 -0.099,-0.007 -0.149,-0.007" />
      <path
         id="path530"
         style="fill:#525d7d;fill-opacity:1;fill-rule:nonzero;stroke:none"
         d="m 273.35,234.216 c -1.955,0 -3.914,0.014 -5.879,0.041 -0.828,0.011 -1.491,0.691 -1.48,1.52 0.012,0.821 0.681,1.48 1.5,1.48 1.972,-0.027 3.917,-0.041 5.859,-0.041 6.614,0 12.774,0.159 18.833,0.487 0.834,0.035 1.534,-0.59 1.579,-1.417 0.045,-0.827 -0.59,-1.534 -1.417,-1.579 -6.113,-0.33 -12.327,-0.491 -18.995,-0.491" />
      <path
         id="path532"
         style="fill:#525d7d;fill-opacity:1;fill-rule:nonzero;stroke:none"
         d="m 268.386,226.746 c -0.754,0 -1.404,0.567 -1.488,1.335 -0.092,0.823 0.501,1.564 1.325,1.656 0.911,0.101 3.593,0.256 4.703,0.256 0.949,0 1.888,-0.048 2.796,-0.094 0.914,-0.046 1.778,-0.09 2.658,-0.09 1.231,0 3.055,0.105 5.166,0.226 2.699,0.154 5.757,0.33 8.426,0.33 0.828,0 1.5,-0.672 1.5,-1.5 0,-0.828 -0.672,-1.5 -1.5,-1.5 -2.583,0 -5.596,-0.173 -8.254,-0.325 -2.158,-0.124 -4.021,-0.231 -5.338,-0.231 -0.956,0 -1.898,0.048 -2.81,0.094 -0.91,0.046 -1.771,0.09 -2.644,0.09 -0.984,0 -3.558,-0.148 -4.372,-0.238 -0.056,-0.006 -0.113,-0.009 -0.168,-0.009" />
      <path
         id="path534"
         style="fill:#525d7d;fill-opacity:1;fill-rule:nonzero;stroke:none"
         d="m 253.342,296.519 c 9.163,-0.038 18.405,-0.155 27.359,-0.269 6.262,-0.08 12.524,-0.159 18.799,-0.214 l -0.055,2.92 c -0.192,10.18 -0.392,20.693 -0.459,31.03 -5.019,0.259 -10.276,0.385 -16.021,0.385 -9.418,0 -18.806,-0.338 -29.132,-0.759 -0.055,-4.992 -0.144,-10.055 -0.231,-14.965 -0.105,-5.953 -0.214,-12.094 -0.26,-18.128 z m 47.687,-3.496 c -6.808,0.055 -13.587,0.141 -20.366,0.227 -9.437,0.12 -19.196,0.244 -28.836,0.275 -0.398,0.001 -0.78,0.161 -1.06,0.444 -0.281,0.284 -0.437,0.667 -0.435,1.065 0.038,6.532 0.156,13.209 0.271,19.666 0.094,5.373 0.193,10.928 0.244,16.367 0.008,0.799 0.64,1.451 1.439,1.485 10.925,0.448 20.774,0.819 30.679,0.819 6.341,0 12.098,-0.152 17.599,-0.466 0.791,-0.046 1.41,-0.698 1.414,-1.49 0.057,-10.77 0.265,-21.767 0.466,-32.403 l 0.084,-4.46 c 0.008,-0.406 -0.148,-0.796 -0.433,-1.083 -0.281,-0.286 -0.666,-0.446 -1.066,-0.446" />
      <path
         id="path536"
         style="fill:#525d7d;fill-opacity:1;fill-rule:nonzero;stroke:none"
         d="m 252.233,320.845 c -0.817,0 -1.486,0.657 -1.5,1.476 -0.013,0.829 0.648,1.511 1.477,1.524 8.119,0.13 16.981,0.191 27.89,0.191 6.289,0 12.577,-0.02 18.855,-0.038 l 1.605,-0.005 c 0.829,-0.003 1.498,-0.676 1.496,-1.505 -0.003,-0.826 -0.674,-1.495 -1.5,-1.495 -0.005,0 -1.61,0.005 -1.61,0.005 -6.275,0.018 -12.561,0.038 -18.846,0.038 -10.892,0 -19.739,-0.061 -27.867,-0.191" />
      <path
         id="path538"
         style="fill:#525d7d;fill-opacity:1;fill-rule:nonzero;stroke:none"
         d="m 266.167,310.42 c -0.806,0 -1.472,0.638 -1.498,1.45 -0.028,0.828 0.621,1.521 1.449,1.549 l 18.123,0.603 c 0.829,0.039 1.521,-0.62 1.549,-1.449 0.027,-0.828 -0.621,-1.521 -1.45,-1.549 l -18.123,-0.603 c -0.017,-10e-4 -0.033,-10e-4 -0.05,-10e-4" />
      <path
         id="path540"
         style="fill:#525d7d;fill-opacity:1;fill-rule:nonzero;stroke:none"
         d="m 274.122,304.026 c -2.882,0 -5.78,0.051 -8.612,0.152 -0.818,0.03 -1.461,0.708 -1.446,1.526 0.014,0.818 0.682,1.474 1.5,1.474 l 0.201,0 c 0.067,0 0.133,-0.005 0.198,-0.013 5.489,-0.188 11.183,-0.183 16.663,0.012 0.855,0.042 1.523,-0.619 1.552,-1.446 0.03,-0.828 -0.617,-1.523 -1.445,-1.553 -2.833,-0.101 -5.73,-0.152 -8.611,-0.152" />
      <path
         id="path542"
         style="fill:#525d7d;fill-opacity:1;fill-rule:nonzero;stroke:none"
         d="m 306.948,258.856 c -0.798,0 -1.462,0.629 -1.497,1.435 -0.036,0.827 0.605,1.527 1.432,1.564 9.856,0.433 18.707,0.585 27.607,0.464 -0.137,4.38 -0.4,8.828 -0.656,13.145 -0.176,2.977 -0.358,6.043 -0.498,9.08 -2.902,0.011 -5.803,0.003 -8.705,-0.006 -1.906,-0.007 -3.813,-0.013 -5.719,-0.013 -5.307,0 -11.493,0.045 -17.701,0.361 0.041,-2.497 0.06,-4.988 0.078,-7.476 0.005,-0.828 -0.661,-1.505 -1.49,-1.511 -0.834,0 -1.505,0.664 -1.51,1.489 -0.022,3.012 -0.045,6.027 -0.108,9.052 -0.009,0.419 0.158,0.821 0.459,1.112 0.302,0.291 0.712,0.446 1.129,0.417 6.666,-0.391 13.418,-0.444 19.143,-0.444 1.903,0 3.806,0.006 5.71,0.012 3.386,0.012 6.774,0.02 10.16,-10e-4 0.8,-0.005 1.455,-0.638 1.489,-1.438 0.144,-3.474 0.355,-7.024 0.558,-10.458 0.287,-4.855 0.585,-9.877 0.704,-14.809 0.01,-0.408 -0.148,-0.804 -0.436,-1.094 -0.287,-0.289 -0.681,-0.441 -1.09,-0.442 -9.368,0.168 -18.619,0.019 -28.992,-0.438 -0.022,-0.001 -0.045,-0.001 -0.067,-0.001" />
      <path
         id="path544"
         style="fill:#525d7d;fill-opacity:1;fill-rule:nonzero;stroke:none"
         d="m 335.086,278.287 c -0.04,0.001 -5.756,0.154 -5.756,0.154 -7.412,0.203 -15.077,0.414 -22.606,0.414 -2.447,0 -4.713,-0.021 -6.928,-0.065 -0.845,0 -1.513,0.652 -1.529,1.471 -0.017,0.828 0.641,1.512 1.469,1.529 2.235,0.044 4.521,0.065 6.988,0.065 7.57,0 15.256,-0.211 22.688,-0.415 l 5.711,-0.154 c 0.828,-0.021 1.483,-0.709 1.461,-1.537 -0.021,-0.816 -0.688,-1.462 -1.498,-1.462" />
      <path
         id="path546"
         style="fill:#525d7d;fill-opacity:1;fill-rule:nonzero;stroke:none"
         d="m 310.839,268.394 c -0.77,0 -1.424,0.589 -1.492,1.37 -0.073,0.826 0.538,1.553 1.364,1.624 2.38,0.207 4.768,0.207 7.077,0.207 2.245,0 4.566,0 6.817,0.197 0.832,0.069 1.552,-0.539 1.624,-1.364 0.072,-0.826 -0.539,-1.553 -1.364,-1.625 -2.381,-0.208 -4.768,-0.208 -7.077,-0.208 -2.245,0 -4.566,0 -6.817,-0.195 -0.044,-0.004 -0.088,-0.006 -0.132,-0.006" />
      <path
         id="path548"
         style="fill:#525d7d;fill-opacity:1;fill-rule:nonzero;stroke:none"
         d="m 240.704,296.587 c -0.413,0 -0.825,0.17 -1.121,0.504 -0.551,0.619 -0.495,1.566 0.124,2.117 3.167,2.815 6.665,5.717 11.341,9.407 0.65,0.512 1.593,0.402 2.107,-0.248 0.514,-0.65 0.402,-1.594 -0.248,-2.107 -4.629,-3.653 -8.085,-6.519 -11.207,-9.294 -0.285,-0.254 -0.641,-0.379 -0.996,-0.379" />
      <path
         id="path550"
         style="fill:#525d7d;fill-opacity:1;fill-rule:nonzero;stroke:none"
         d="m 313.749,284.545 c -0.422,0 -0.841,0.176 -1.138,0.522 l -12.841,14.944 c -0.54,0.627 -0.469,1.575 0.16,2.115 0.628,0.539 1.575,0.468 2.115,-0.16 l 12.841,-14.944 c 0.54,-0.628 0.469,-1.575 -0.16,-2.115 -0.283,-0.243 -0.631,-0.362 -0.977,-0.362" />
      <path
         id="path552"
         style="fill:#525d7d;fill-opacity:1;fill-rule:nonzero;stroke:none"
         d="m 335.026,279.308 c -0.283,0 -0.57,0.08 -0.824,0.247 -0.692,0.456 -0.883,1.387 -0.427,2.079 3.232,4.905 6.39,6.964 10.046,9.349 1.693,1.105 3.443,2.246 5.4,3.795 0.65,0.516 1.594,0.404 2.108,-0.245 0.514,-0.649 0.404,-1.593 -0.245,-2.106 -2.066,-1.635 -3.956,-2.869 -5.623,-3.957 -3.516,-2.292 -6.292,-4.103 -9.181,-8.487 -0.288,-0.437 -0.766,-0.675 -1.254,-0.675" />
      <path
         id="path554"
         style="fill:#525d7d;fill-opacity:1;fill-rule:nonzero;stroke:none"
         d="m 349.917,297.637 c 1.215,-1.278 2.346,-2.621 3.451,-3.933 0.27,-0.32 0.54,-0.641 0.81,-0.959 0.317,0.556 0.634,1.113 0.95,1.669 0.985,1.735 1.992,3.509 3.02,5.276 -2.731,-0.65 -5.506,-1.323 -8.231,-2.053 z m 4.513,-8.976 c -0.427,0 -0.836,0.182 -1.122,0.504 -0.759,0.854 -1.497,1.73 -2.235,2.606 -1.669,1.983 -3.245,3.855 -5.07,5.506 -0.404,0.365 -0.579,0.921 -0.455,1.452 0.123,0.531 0.524,0.952 1.048,1.103 4.134,1.182 8.412,2.197 12.549,3.179 l 1.741,0.413 c 0.589,0.139 1.201,-0.086 1.558,-0.574 0.357,-0.487 0.386,-1.141 0.075,-1.659 -1.639,-2.724 -3.237,-5.538 -4.783,-8.259 -0.666,-1.172 -1.333,-2.346 -2.005,-3.518 -0.241,-0.418 -0.667,-0.695 -1.148,-0.745 -0.051,-0.005 -0.102,-0.008 -0.153,-0.008" />
    </g>
  </g>
</svg>
