<?xml version="1.0" encoding="UTF-8" standalone="no"?>
<svg
   xmlns:dc="http://purl.org/dc/elements/1.1/"
   xmlns:cc="http://creativecommons.org/ns#"
   xmlns:rdf="http://www.w3.org/1999/02/22-rdf-syntax-ns#"
   xmlns:svg="http://www.w3.org/2000/svg"
   xmlns="http://www.w3.org/2000/svg"
   version="1.1"
   id="svg5929"
   viewBox="0 0 185.77001 163.303"
   height="163.30299"
   width="185.77">
  <defs
     id="defs5931" />
  <metadata
     id="metadata5934">
    <rdf:RDF>
      <cc:Work
         rdf:about="">
        <dc:format>image/svg+xml</dc:format>
        <dc:type
           rdf:resource="http://purl.org/dc/dcmitype/StillImage" />
        <dc:title></dc:title>
      </cc:Work>
    </rdf:RDF>
  </metadata>
  <g
     transform="translate(0,-889.05916)"
     id="layer1">
    <g
       id="g5882"
       transform="matrix(1.25,0,0,-1.25,-494.94169,1525.021)">
      <path
         id="path112"
         style="fill:#e0dfe6;fill-opacity:1;fill-rule:nonzero;stroke:none"
         d="m 469.257,408.712 c -12.689,4.616 -20.626,17.027 -21.411,30.236 -0.41,6.91 1.013,14.252 3.916,20.55 1.663,3.609 3.916,6.493 6.484,9.122 2.77,-1.238 6.75,0.446 6.476,3.951 -0.048,0.615 -0.091,1.231 -0.138,1.847 0.26,0.224 0.519,0.449 0.781,0.675 0.795,0.689 -0.027,1.937 -0.961,1.741 -0.308,4.15 -0.604,8.301 -0.929,12.45 -0.347,4.431 -0.177,9.837 -3.216,13.343 -0.718,0.828 -1.852,0.407 -2.405,-0.31 -3.271,-4.238 -2.304,-11.747 -2.424,-16.806 -0.091,-3.79 -1.407,-9.781 0.136,-13.777 -3.172,-2.866 -5.856,-6.429 -8.105,-9.722 -0.131,-0.191 -0.247,-0.389 -0.375,-0.582 -0.645,0.868 -1.609,1.47 -2.777,1.416 -6.635,-0.308 -13.444,-1.971 -20.06,-2.834 -6.47,-0.844 -12.622,-1.818 -18.801,-3.998 -1.933,-0.682 -1.791,-3.927 0.513,-3.79 0.1,0.006 0.201,0.008 0.302,0.014 -0.793,-0.147 -1.488,-0.887 -1.591,-1.777 -0.609,-5.221 10.525,-4.906 13.591,-5.277 6.925,-0.838 14.939,-1.988 22.107,-1.087 -0.334,-2.208 -0.496,-4.452 -0.472,-6.715 0.176,-16.667 11.649,-31.437 27.062,-37.002 5.242,-1.893 7.487,6.444 2.297,8.332 z m -52.932,43.797 c -0.537,-0.023 -8.439,-0.95 -8.599,-0.782 -0.388,0.406 -0.834,0.545 -1.265,0.521 6.102,0.346 12.227,0.437 18.338,0.666 -2.825,-0.135 -5.649,-0.278 -8.474,-0.405 z m 20.389,1.171 c 2.369,0.298 4.702,0.752 6.911,1.451 -0.246,-0.552 -0.493,-1.106 -0.717,-1.667 -2.044,0.24 -4.114,0.275 -6.194,0.216" />
      <path
         id="path114"
         style="fill:#e0dfe6;fill-opacity:1;fill-rule:nonzero;stroke:none"
         d="m 486.364,430.808 c -1.566,3.143 -4.347,3.833 -6.825,6.126 -2.919,2.7 -2.628,6.87 -3.164,10.736 -1.1,7.928 -1.363,16.77 -4.087,24.324 -0.574,1.591 -3.399,2.063 -3.722,0 -1.57,-10.015 0.211,-21.178 0.807,-31.266 0.212,-3.585 0.608,-6.973 3.495,-9.436 2.841,-2.424 7.518,-4.669 11.243,-4.41 2.035,0.141 3.168,2.091 2.253,3.926" />
      <path
         id="path116"
         style="fill:#e0dfe6;fill-opacity:1;fill-rule:nonzero;stroke:none"
         d="m 523.001,459.151 c -0.54,0.542 -1.72,0.361 -1.855,-0.489 -0.035,-0.223 -0.045,-0.444 -0.072,-0.666 -0.276,0.593 -0.575,1.172 -0.891,1.739 -0.782,2.419 -1.902,4.62 -3.534,6.3 -0.706,0.727 -1.63,0.926 -2.484,0.753 -0.993,0.754 -2.067,1.427 -3.226,2.005 -1.319,0.655 -3.249,-0.79 -2.224,-2.224 1.176,-1.644 2.264,-3.333 3.244,-5.062 0.615,-4.665 2.8,-9.21 3.123,-13.975 0.407,-5.99 -0.513,-11.93 -3.214,-17.323 -2.821,-5.631 -7.598,-9.69 -12.667,-13.253 -5.044,-3.546 -10.49,-7.661 -16.685,-8.759 -1.523,-0.269 -1.533,-1.907 -0.707,-2.818 -2.914,-0.097 -5.798,-0.312 -8.373,-1.538 -0.922,-0.439 -1.357,-1.967 -0.734,-2.801 3.857,-5.161 11.791,-5.286 17.67,-4.688 4.001,0.408 9.694,1.274 13.499,3.832 9.602,4.345 17.003,15.127 20.66,24.671 3.614,9.43 6.412,26.313 -1.53,34.296" />
      <path
         id="path118"
         style="fill:#e0dfe6;fill-opacity:1;fill-rule:nonzero;stroke:none"
         d="m 541.936,450.898 c -0.305,1.261 -2.464,1.031 -2.317,-0.314 1.377,-12.643 -3.818,-27.859 -11.352,-37.844 -3.387,-4.488 -7.687,-8.57 -12.378,-11.663 -2.51,-1.654 -5.164,-3.127 -7.903,-4.366 -2.74,-1.24 -5.55,-1.604 -7.469,-4.063 -1.983,-2.542 -1.421,-6.064 1.886,-7.143 5.774,-1.883 14.038,3.601 18.61,6.806 5.88,4.12 10.917,9.109 14.919,15.081 4.245,6.336 6.95,13.546 8.156,21.065 1.31,8.168 -0.267,14.641 -2.152,22.441" />
      <path
         id="path120"
         style="fill:#e0dfe6;fill-opacity:1;fill-rule:nonzero;stroke:none"
         d="m 470.737,392.993 c -3.457,0.546 -6.934,0.187 -10.391,0.799 -3.557,0.63 -7.02,1.91 -10.21,3.589 -7.168,3.771 -10.654,9.431 -15.359,15.647 -0.651,0.861 -2.208,0.933 -2.498,-0.327 -1.909,-8.281 5.926,-16.827 11.975,-21.378 6.774,-5.094 17.975,-9.537 26.483,-6.933 3.861,1.181 4.614,7.874 0,8.603" />
      <path
         id="path122"
         style="fill:#e0dfe6;fill-opacity:1;fill-rule:nonzero;stroke:none"
         d="m 478.97,497.146 c 0.037,0.116 0.108,0.289 0.243,0.435 1.591,1.73 3.423,3.462 3.371,6.011 -0.019,0.925 -0.516,2.104 -1.432,2.496 -3.984,1.709 -7.828,-1.15 -9.541,-4.749 -1.882,-3.952 -0.198,-8.184 3.01,-10.829 1.615,-1.331 4.383,-1.036 4.935,1.303 0.325,1.377 0.265,2.573 -0.132,3.93 -0.119,0.405 -0.401,0.947 -0.454,1.403" />
      <path
         id="path124"
         style="fill:#525d7d;fill-opacity:1;fill-rule:nonzero;stroke:none"
         d="m 399.177,450.939 c -0.802,0 -1.466,0.634 -1.498,1.44 -0.282,7.088 -0.456,14.285 -0.623,21.245 -0.246,10.209 -0.5,20.765 -1.1,31.142 -0.024,0.403 0.116,0.799 0.387,1.097 0.272,0.298 0.653,0.475 1.056,0.489 l 58.06,2.093 c 0.413,0.008 0.808,-0.14 1.101,-0.426 0.294,-0.287 0.457,-0.681 0.453,-1.091 -0.111,-9.19 -0.178,-18.423 -0.246,-27.655 -0.034,-4.664 -0.068,-9.329 -0.108,-13.988 -0.007,-0.824 -0.678,-1.487 -1.5,-1.487 -0.841,0.007 -1.507,0.684 -1.5,1.513 0.04,4.658 0.074,9.321 0.108,13.984 0.064,8.71 0.127,17.42 0.227,26.095 l -54.957,-1.981 c 0.542,-9.931 0.784,-19.979 1.018,-29.713 0.156,-6.463 0.317,-13.131 0.564,-19.717 l 48.485,1.347 c 0.833,0.017 1.518,-0.63 1.541,-1.458 0.024,-0.828 -0.629,-1.518 -1.457,-1.541 0,0 -49.968,-1.388 -50.011,-1.388" />
      <path
         id="path126"
         style="fill:#525d7d;fill-opacity:1;fill-rule:nonzero;stroke:none"
         d="m 406.432,465.952 c -0.12,0 -0.243,0.015 -0.365,0.046 -0.804,0.201 -1.292,1.015 -1.091,1.819 0.029,0.117 0.072,0.382 0.141,0.765 2.196,12.428 5.614,19.825 10.16,21.988 0.446,0.212 0.969,0.191 1.398,-0.057 0.427,-0.249 0.705,-0.692 0.743,-1.184 0.525,-6.942 0.614,-10.67 0.679,-13.392 0.067,-2.788 0.111,-4.63 0.576,-8.019 0.113,-0.821 -0.461,-1.578 -1.282,-1.69 -0.815,-0.115 -1.577,0.461 -1.69,1.282 -0.488,3.557 -0.533,5.465 -0.603,8.355 -0.055,2.302 -0.128,5.331 -0.473,10.46 -2.036,-2.263 -4.611,-7.265 -6.554,-18.264 -0.088,-0.498 -0.15,-0.834 -0.185,-0.973 -0.17,-0.681 -0.782,-1.136 -1.454,-1.136" />
      <path
         id="path128"
         style="fill:#525d7d;fill-opacity:1;fill-rule:nonzero;stroke:none"
         d="m 408.902,473.756 c -0.652,0 -1.253,0.429 -1.441,1.088 -0.228,0.797 0.233,1.627 1.03,1.854 l 0.438,0.127 c 1.342,0.389 2.865,0.83 4.451,0.83 0.532,0 1.05,-0.049 1.541,-0.148 0.812,-0.163 1.338,-0.953 1.175,-1.766 -0.162,-0.812 -0.96,-1.337 -1.765,-1.175 -1.337,0.268 -3.007,-0.17 -4.567,-0.622 l -0.449,-0.13 c -0.138,-0.039 -0.276,-0.058 -0.413,-0.058" />
      <path
         id="path130"
         style="fill:#525d7d;fill-opacity:1;fill-rule:nonzero;stroke:none"
         d="m 425.897,465.563 c -0.816,0 -1.485,0.655 -1.499,1.475 -0.132,7.767 -0.391,12.99 -0.561,16.446 -0.273,5.512 -0.338,6.822 0.652,7.85 0.743,0.773 1.694,0.762 2.606,0.752 l 0.391,-0.003 c 5.623,0 8.618,-5.536 8.618,-9.532 0,-3.602 -3.29,-7.706 -8.796,-8.342 -0.027,-0.003 -0.054,-0.005 -0.081,-0.007 0.066,-2.095 0.126,-4.456 0.171,-7.114 0.014,-0.828 -0.646,-1.511 -1.501,-1.525 z m 0.799,23.525 c -0.092,-0.833 0.008,-2.834 0.137,-5.455 0.084,-1.691 0.188,-3.802 0.289,-6.424 3.7,0.493 5.982,3.135 5.982,5.342 0,2.278 -1.648,6.532 -5.618,6.532 l -0.424,0.003 c -0.117,10e-4 -0.249,0.006 -0.366,0.002" />
      <path
         id="path132"
         style="fill:#525d7d;fill-opacity:1;fill-rule:nonzero;stroke:none"
         d="m 443.8,467.534 c -0.768,0 -1.423,0.588 -1.492,1.369 -0.207,2.355 -0.299,4.856 -0.299,8.111 0,1.471 0.019,2.943 0.037,4.416 0.018,1.458 0.037,2.916 0.037,4.372 0,2.136 -0.04,3.884 -0.125,5.503 -0.043,0.827 0.592,1.533 1.419,1.577 0.851,0.048 1.533,-0.592 1.577,-1.42 0.088,-1.672 0.129,-3.471 0.129,-5.66 0,-1.468 -0.019,-2.939 -0.037,-4.41 -0.018,-1.46 -0.037,-2.919 -0.037,-4.378 0,-3.164 0.089,-5.584 0.287,-7.849 0.073,-0.825 -0.537,-1.553 -1.363,-1.625 -0.044,-0.004 -0.088,-0.006 -0.133,-0.006" />
      <path
         id="path134"
         style="fill:#525d7d;fill-opacity:1;fill-rule:nonzero;stroke:none"
         d="m 482.838,402.45 c -24.2,0 -37.258,19.873 -37.258,38.571 0,15.566 8.729,30.014 21.722,35.952 0.467,0.215 1.015,0.174 1.446,-0.109 0.431,-0.283 0.686,-0.766 0.677,-1.282 -0.056,-3.156 -0.084,-6.529 -0.084,-10.311 0,-4.076 0.031,-8.152 0.062,-12.228 0.03,-4.084 0.061,-8.168 0.061,-12.251 0,-1.942 -0.006,-3.883 -0.024,-5.824 4.987,-2.638 9.642,-5.714 13.651,-8.493 3.502,3.117 8.457,6.186 14.762,9.139 -1.754,22.261 -1.764,26.009 -1.788,34.879 -0.005,1.881 -0.011,3.992 -0.034,6.564 -0.004,0.474 0.216,0.922 0.594,1.209 0.378,0.286 0.872,0.377 1.324,0.245 16.382,-4.758 26.161,-17.16 26.161,-33.175 0,-11.633 -4.478,-22.522 -12.61,-30.66 -7.764,-7.771 -18.211,-12.226 -28.662,-12.226 z m -16.45,70.698 c -10.741,-6.01 -17.808,-18.602 -17.808,-32.127 0,-13.753 9.3,-35.571 34.258,-35.571 20.746,0 38.272,18.265 38.272,39.886 0,19.341 -14.165,26.945 -22.064,29.678 0.011,-1.681 0.016,-3.156 0.019,-4.513 0.024,-8.925 0.034,-12.619 1.86,-35.691 0.05,-0.628 -0.298,-1.221 -0.871,-1.483 -7.029,-3.211 -12.34,-6.526 -15.788,-9.852 -0.515,-0.496 -1.313,-0.561 -1.899,-0.15 -4.358,3.043 -9.563,6.541 -15.122,9.405 -0.505,0.259 -0.82,0.782 -0.814,1.349 0.024,2.237 0.033,4.476 0.033,6.713 0,4.076 -0.03,8.152 -0.061,12.228 -0.03,4.084 -0.062,8.168 -0.062,12.251 0,2.826 0.016,5.425 0.047,7.877" />
      <path
         id="path136"
         style="fill:#525d7d;fill-opacity:1;fill-rule:nonzero;stroke:none"
         d="m 470.759,378.127 c -0.756,0 -1.408,0.571 -1.489,1.341 -0.147,1.386 -0.265,2.344 -0.359,3.105 -0.259,2.096 -0.346,2.802 -0.346,6.729 0,2.918 0.045,5.88 0.089,8.745 0.041,2.665 0.082,5.326 0.088,7.978 0.002,0.827 0.673,1.496 1.5,1.496 0.832,-0.002 1.502,-0.675 1.5,-1.503 -0.006,-2.665 -0.047,-5.339 -0.088,-8.017 -0.044,-2.853 -0.089,-5.804 -0.089,-8.699 0,-3.743 0.069,-4.298 0.323,-6.362 0.095,-0.774 0.215,-1.747 0.365,-3.154 0.088,-0.824 -0.509,-1.563 -1.333,-1.651 -0.054,-0.006 -0.108,-0.008 -0.161,-0.008" />
      <path
         id="path138"
         style="fill:#525d7d;fill-opacity:1;fill-rule:nonzero;stroke:none"
         d="m 499.153,378.577 c -0.773,0 -1.429,0.593 -1.493,1.377 -0.503,6.165 -0.533,6.534 -0.533,12.928 l 0,1.828 c 0,4.304 -0.013,8.509 -0.171,12.63 -0.031,0.828 0.614,1.524 1.441,1.556 0.821,0.008 1.524,-0.614 1.557,-1.442 0.159,-4.174 0.173,-8.41 0.173,-12.744 l 0,-1.828 c 0,-6.272 0.019,-6.512 0.523,-12.684 0.068,-0.825 -0.548,-1.549 -1.373,-1.617 -0.042,-0.003 -0.083,-0.004 -0.124,-0.004" />
      <path
         id="path140"
         style="fill:#525d7d;fill-opacity:1;fill-rule:nonzero;stroke:none"
         d="m 466.499,389.579 c -0.022,0 -0.043,0 -0.065,10e-4 -1.105,0.046 -2.58,0.31 -4.264,0.761 -0.8,0.215 -1.275,1.038 -1.061,1.838 0.215,0.8 1.043,1.275 1.838,1.06 1.454,-0.39 2.737,-0.625 3.614,-0.662 0.827,-0.035 1.47,-0.734 1.436,-1.562 -0.034,-0.806 -0.699,-1.436 -1.498,-1.436 z m -12.352,3.92 c -0.22,0 -0.444,0.049 -0.655,0.152 -1.229,0.598 -2.449,1.248 -3.63,1.932 -0.717,0.416 -0.961,1.334 -0.546,2.05 0.416,0.717 1.337,0.961 2.05,0.546 1.119,-0.649 2.275,-1.264 3.438,-1.831 0.746,-0.362 1.055,-1.26 0.693,-2.005 -0.26,-0.533 -0.794,-0.844 -1.35,-0.844 z m -10.91,7.031 c -0.34,0 -0.682,0.115 -0.963,0.35 -1.061,0.891 -2.088,1.826 -3.05,2.781 -0.586,0.584 -0.59,1.534 -0.006,2.121 0.582,0.588 1.533,0.592 2.121,0.007 0.902,-0.895 1.865,-1.773 2.863,-2.609 0.635,-0.532 0.718,-1.478 0.186,-2.113 -0.297,-0.354 -0.722,-0.537 -1.151,-0.537 z m -8.638,9.651 c -0.49,0 -0.97,0.24 -1.258,0.682 -0.754,1.159 -1.455,2.367 -2.082,3.59 -0.379,0.737 -0.088,1.641 0.65,2.019 0.735,0.38 1.641,0.087 2.02,-0.65 0.58,-1.131 1.228,-2.249 1.926,-3.323 0.452,-0.694 0.256,-1.624 -0.438,-2.076 -0.253,-0.163 -0.537,-0.242 -0.818,-0.242 z m -5.133,11.862 c -0.676,0 -1.291,0.46 -1.457,1.146 -0.324,1.329 -0.584,2.698 -0.774,4.07 -0.114,0.82 0.458,1.578 1.279,1.692 0.817,0.118 1.579,-0.459 1.692,-1.279 0.176,-1.273 0.419,-2.542 0.717,-3.774 0.197,-0.804 -0.297,-1.616 -1.102,-1.812 -0.119,-0.029 -0.238,-0.043 -0.355,-0.043 z m -1.067,12.894 c -0.025,0 -0.052,10e-4 -0.078,0.002 -0.827,0.042 -1.464,0.748 -1.421,1.575 0.068,1.315 0.182,2.686 0.338,4.076 0.092,0.823 0.822,1.418 1.658,1.323 0.824,-0.092 1.415,-0.834 1.322,-1.658 -0.149,-1.33 -0.257,-2.641 -0.322,-3.895 -0.041,-0.801 -0.704,-1.423 -1.497,-1.423 z m 1.815,12.859 c -0.105,0 -0.211,0.011 -0.319,0.034 -0.809,0.175 -1.324,0.974 -1.148,1.784 0.285,1.319 0.594,2.634 0.92,3.941 0.2,0.803 1.01,1.292 1.818,1.092 0.804,-0.201 1.293,-1.015 1.092,-1.819 -0.318,-1.276 -0.619,-2.56 -0.898,-3.849 -0.152,-0.703 -0.774,-1.183 -1.465,-1.183" />
      <path
         id="path142"
         style="fill:#525d7d;fill-opacity:1;fill-rule:nonzero;stroke:none"
         d="m 474.824,487.43 c -0.43,0 -0.856,0.183 -1.153,0.539 -2.441,2.929 -4.965,5.957 -7.042,9.433 -0.395,0.659 -0.227,1.51 0.388,1.97 1.583,1.185 2.997,2.53 4.494,3.955 1.909,1.816 3.882,3.693 6.232,5.203 0.696,0.449 1.626,0.247 2.073,-0.45 0.448,-0.697 0.246,-1.625 -0.45,-2.073 -2.111,-1.357 -3.896,-3.055 -5.787,-4.854 -1.174,-1.117 -2.38,-2.265 -3.68,-3.332 1.824,-2.83 3.981,-5.418 6.076,-7.931 0.53,-0.636 0.445,-1.582 -0.192,-2.113 -0.28,-0.233 -0.62,-0.347 -0.959,-0.347" />
      <path
         id="path144"
         style="fill:#525d7d;fill-opacity:1;fill-rule:nonzero;stroke:none"
         d="m 482.15,444.6 c -0.828,0 -1.5,0.672 -1.5,1.5 0,4.79 0.13,9.649 0.255,14.348 0.126,4.707 0.256,9.575 0.256,14.382 l 10e-4,1.643 c 0.006,7.367 0.009,12.69 -1.116,16.004 -0.858,2.525 -2.382,4.206 -7.037,4.206 -1.107,0 -2.315,-0.103 -3.694,-0.315 -0.815,-0.129 -1.584,0.435 -1.71,1.254 -0.126,0.819 0.436,1.585 1.255,1.711 1.531,0.236 2.888,0.35 4.149,0.35 5.365,0 8.412,-1.925 9.877,-6.241 1.287,-3.785 1.282,-9.316 1.276,-16.972 l -10e-4,-1.64 c 0,-4.847 -0.131,-9.735 -0.257,-14.462 -0.125,-4.679 -0.254,-9.518 -0.254,-14.268 0,-0.828 -0.672,-1.5 -1.5,-1.5" />
      <path
         id="path146"
         style="fill:#525d7d;fill-opacity:1;fill-rule:nonzero;stroke:none"
         d="m 498.833,392.665 c -0.761,0 -1.413,0.578 -1.49,1.351 -0.084,0.825 0.518,1.559 1.342,1.642 1.283,0.128 2.572,0.313 3.829,0.551 0.807,0.154 1.598,-0.382 1.752,-1.196 0.155,-0.815 -0.382,-1.599 -1.195,-1.752 -1.344,-0.254 -2.719,-0.452 -4.087,-0.588 -0.051,-0.005 -0.102,-0.008 -0.151,-0.008 z m 12.583,3.086 c -0.595,0 -1.157,0.355 -1.393,0.94 -0.309,0.768 0.063,1.642 0.831,1.952 1.192,0.48 2.374,1.019 3.516,1.602 0.74,0.376 1.641,0.085 2.018,-0.653 0.377,-0.738 0.084,-1.641 -0.653,-2.018 -1.221,-0.624 -2.485,-1.201 -3.76,-1.714 -0.183,-0.074 -0.373,-0.109 -0.559,-0.109 z m 11.173,6.545 c -0.438,0 -0.873,0.191 -1.168,0.559 -0.52,0.645 -0.418,1.59 0.227,2.109 0.994,0.801 1.967,1.661 2.891,2.556 0.593,0.578 1.543,0.564 2.121,-0.032 0.576,-0.595 0.561,-1.544 -0.033,-2.121 -0.989,-0.96 -2.032,-1.881 -3.098,-2.74 -0.276,-0.223 -0.609,-0.331 -0.94,-0.331 z m 8.765,9.527 c -0.291,0 -0.584,0.084 -0.843,0.26 -0.684,0.466 -0.862,1.399 -0.396,2.084 0.715,1.051 1.398,2.158 2.033,3.289 0.406,0.724 1.322,0.98 2.042,0.576 0.723,-0.406 0.981,-1.32 0.575,-2.043 -0.676,-1.207 -1.406,-2.387 -2.17,-3.509 -0.29,-0.427 -0.761,-0.657 -1.241,-0.657 z m 5.746,11.609 c -0.161,0 -0.324,0.027 -0.485,0.082 -0.783,0.267 -1.202,1.12 -0.935,1.904 0.411,1.201 0.788,2.453 1.12,3.722 0.209,0.802 1.033,1.281 1.83,1.071 0.802,-0.21 1.282,-1.029 1.072,-1.831 -0.351,-1.339 -0.748,-2.662 -1.182,-3.932 -0.214,-0.623 -0.796,-1.016 -1.42,-1.016 z m 2.757,12.67 c -0.053,0 -0.108,0.003 -0.163,0.009 -0.824,0.089 -1.419,0.829 -1.33,1.653 0.139,1.279 0.242,2.591 0.307,3.897 0.041,0.826 0.719,1.478 1.572,1.423 0.827,-0.041 1.465,-0.745 1.424,-1.572 -0.068,-1.364 -0.176,-2.734 -0.321,-4.072 -0.083,-0.768 -0.733,-1.338 -1.489,-1.338 z m 0.142,12.966 c -0.761,0 -1.413,0.577 -1.49,1.35 -0.129,1.287 -0.312,2.577 -0.541,3.835 -0.149,0.815 0.391,1.597 1.205,1.745 0.809,0.148 1.597,-0.39 1.746,-1.206 0.244,-1.337 0.437,-2.708 0.574,-4.074 0.083,-0.824 -0.519,-1.559 -1.343,-1.643 -0.051,-0.004 -0.102,-0.007 -0.151,-0.007 z m -2.995,12.595 c -0.601,0 -1.168,0.364 -1.399,0.957 -0.466,1.2 -0.988,2.392 -1.551,3.544 -0.366,0.743 -0.058,1.642 0.686,2.007 0.747,0.363 1.644,0.056 2.007,-0.688 0.601,-1.227 1.158,-2.498 1.655,-3.777 0.3,-0.772 -0.083,-1.641 -0.856,-1.941 -0.178,-0.069 -0.362,-0.102 -0.542,-0.102 z m -6.286,11.33 c -0.457,0 -0.911,0.209 -1.205,0.605 -0.761,1.026 -1.581,2.044 -2.434,3.027 -0.544,0.625 -0.478,1.572 0.147,2.116 0.626,0.545 1.574,0.477 2.117,-0.148 0.904,-1.041 1.772,-2.12 2.578,-3.206 0.495,-0.666 0.356,-1.605 -0.309,-2.099 -0.269,-0.199 -0.583,-0.295 -0.894,-0.295 z m -8.942,9.402 c -0.339,0 -0.679,0.114 -0.959,0.348 -0.991,0.825 -2.027,1.631 -3.08,2.395 -0.671,0.485 -0.821,1.423 -0.335,2.094 0.487,0.672 1.425,0.82 2.095,0.334 1.108,-0.802 2.198,-1.65 3.24,-2.519 0.637,-0.53 0.723,-1.476 0.192,-2.113 -0.297,-0.355 -0.723,-0.539 -1.153,-0.539 z m -10.834,7.164 c -0.228,0 -0.461,0.053 -0.679,0.163 -1.215,0.618 -2.401,1.158 -3.522,1.605 -0.77,0.306 -1.145,1.179 -0.838,1.948 0.308,0.771 1.18,1.143 1.949,0.839 1.205,-0.481 2.474,-1.059 3.771,-1.717 0.738,-0.376 1.033,-1.279 0.657,-2.017 -0.265,-0.521 -0.791,-0.821 -1.338,-0.821" />
    </g>
  </g>
</svg>
