<?xml version="1.0" encoding="UTF-8" standalone="no"?>
<svg
   xmlns:dc="http://purl.org/dc/elements/1.1/"
   xmlns:cc="http://creativecommons.org/ns#"
   xmlns:rdf="http://www.w3.org/1999/02/22-rdf-syntax-ns#"
   xmlns:svg="http://www.w3.org/2000/svg"
   xmlns="http://www.w3.org/2000/svg"
   version="1.1"
   id="svg7807"
   viewBox="0 0 168.491 166.97501"
   height="166.97501"
   width="168.491">
  <defs
     id="defs7809" />
  <metadata
     id="metadata7812">
    <rdf:RDF>
      <cc:Work
         rdf:about="">
        <dc:format>image/svg+xml</dc:format>
        <dc:type
           rdf:resource="http://purl.org/dc/dcmitype/StillImage" />
        <dc:title></dc:title>
      </cc:Work>
    </rdf:RDF>
  </metadata>
  <g
     transform="translate(0,-885.38716)"
     id="layer1">
    <g
       id="g7750"
       transform="matrix(1.25,0,0,-1.25,-271.36625,1521.1174)">
      <path
         id="path534"
         style="fill:#e0dfe6;fill-opacity:1;fill-rule:nonzero;stroke:none"
         d="m 325.251,473.729 c -0.578,0.297 -1.202,0.351 -1.784,0.232 0.833,3.938 0.107,8.85 -0.931,11.859 -1.537,4.455 -4.596,8.594 -9.507,9.201 -0.849,0.106 -1.359,-0.465 -1.543,-1.156 -2.902,3.349 -7.984,8.168 -11.705,4.617 -0.567,-0.541 -0.575,-1.559 0,-2.099 2.507,-2.355 4.297,-6.197 5.96,-9.183 2.105,-3.782 3.614,-7.879 2.731,-12.257 -0.945,-4.687 3.987,-7.337 7.276,-6.224 1.438,-1.141 3.554,-0.812 5.027,0.334 0.344,0.268 0.641,0.584 0.92,0.921 0.883,-1.375 1.863,-2.899 2.795,-4.514 -2.805,3.179 -7.158,-0.766 -6.602,-4.154 0.547,-3.344 2.9,-8.493 -1.564,-9.683 -3.138,-0.836 -7.057,-0.098 -10.224,0.048 -9.618,0.444 -19.234,0.301 -28.833,-0.453 -9.421,-0.741 -18.835,-1.976 -28.132,-3.673 -8.178,-1.493 -17.443,-3.876 -20.903,5.864 -0.903,2.54 -4.209,3.095 -5.712,0.746 -2.57,-4.016 -1.263,-8.982 1.643,-12.473 1.275,-1.531 2.758,-2.734 4.384,-3.662 -0.435,-0.015 -0.875,-0.056 -1.328,-0.149 -0.771,-0.158 -1.565,-1.11 -1.468,-1.928 0.661,-5.544 7.087,-6.879 11.861,-6.991 5.406,-0.127 13.329,0.182 17.397,4.181 0.004,-0.731 0.096,-1.525 0.191,-2.478 0.268,-2.676 0.108,-5.708 -0.946,-8.222 -2.019,-4.816 -11.554,-5.125 -16.267,-6.276 -0.018,0.066 -0.028,0.136 -0.049,0.2 -1.022,3.146 -4.641,4.005 -7.078,1.869 -1.233,-1.081 -1.517,-2.521 -1.958,-3.998 -0.156,-0.519 -0.319,-0.77 -0.758,-1.232 -0.035,-0.032 -0.054,-0.052 -0.075,-0.073 -0.126,-0.077 -0.256,-0.148 -0.387,-0.214 0.085,0.075 -1.617,-0.658 -1.12,-0.452 0.57,0.238 -0.912,-0.478 -1.112,-0.672 -0.55,-0.533 -0.841,-1.178 -0.865,-1.946 -0.054,-1.805 1.507,-3.256 3.136,-3.721 1.825,-0.521 3.695,-0.142 5.367,0.671 2.275,1.106 4.469,4.152 4.975,7.019 5.785,-1.509 14.437,-1.572 19.436,1.997 5.061,3.615 6.684,10.372 6.274,16.367 1.97,-0.092 3.951,-0.049 5.839,-0.047 6.238,0.004 12.47,0.227 18.705,0.413 1.697,0.05 3.415,0.075 5.142,0.093 0.317,-2.889 0.571,-5.79 0.875,-8.67 0.389,-3.672 1.229,-7.835 0.397,-11.513 -1.832,-8.105 -12.81,-6.511 -18.342,-10.752 -0.717,-0.55 -0.854,-2 0.288,-2.199 4.484,-0.784 9.453,0.582 13.789,1.78 3.69,1.02 6.895,2.913 8.856,6.305 2.085,3.605 2.299,7.798 2.169,11.856 -0.142,4.417 -0.499,8.83 -0.715,13.245 5.359,0.037 10.756,0.129 16.029,0.617 1.478,-0.078 3.023,0.138 4.518,0.53 0.917,0.131 1.831,0.273 2.736,0.438 1.475,0.268 2.432,1.018 2.964,1.982 3.761,2.289 6.675,5.732 8.46,9.821 4.207,9.64 -0.797,23.019 -10.232,27.858 z m -69.102,-36.736 c -0.117,0.293 -0.266,0.573 -0.445,0.833 0.659,0.117 1.317,0.232 1.973,0.332 0.601,0.092 1.205,0.163 1.807,0.248 -1.171,-0.358 -2.294,-0.816 -3.335,-1.413" />
      <path
         id="path536"
         style="fill:#e0dfe6;fill-opacity:1;fill-rule:nonzero;stroke:none"
         d="m 274.005,481.67 c -4.982,3.197 -9.004,6.02 -15.238,4.852 -3.922,-0.735 -10.011,-3.456 -10.296,-7.972 -0.044,-0.702 0.663,-1.415 1.368,-1.367 3.298,0.225 5.616,2.975 9.174,2.806 4.018,-0.189 6.226,-3.671 8.908,-6.205 1.955,-1.849 5.156,-1.984 7.101,0 0.654,0.668 0.956,1.362 1.291,2.216 0.826,2.104 -0.572,4.557 -2.308,5.67" />
      <path
         id="path538"
         style="fill:#e0dfe6;fill-opacity:1;fill-rule:nonzero;stroke:none"
         d="m 271.616,406.781 c -1.916,1.121 -4.044,0.597 -5.673,-0.732 -2.038,-1.663 -2.905,-4.524 -4.459,-6.362 -0.086,-0.101 -0.16,-0.178 -0.225,-0.24 -0.215,-0.009 -0.358,-0.017 -0.446,-0.024 -1.228,0.166 -2.369,-0.219 -3.09,-1.301 -1.107,-1.661 -0.315,-3.699 0.977,-4.977 1.589,-1.572 4.045,-1.983 6.156,-1.367 1.882,0.55 3.526,1.852 4.82,3.298 1.67,1.865 3.44,3.968 4.091,6.419 0.532,2.006 -0.352,4.234 -2.151,5.286" />
      <path
         id="path540"
         style="fill:#e0dfe6;fill-opacity:1;fill-rule:nonzero;stroke:none"
         d="m 342.242,419.865 c -1.384,-3.336 -3.923,-3.2 -6.958,-2.515 -3.418,0.77 -6.152,0.815 -9.606,0.137 -1.571,-0.308 -1.574,-2.872 0,-3.179 1.585,-0.309 3.278,-0.541 4.809,-1.065 1.666,-0.57 2.493,-1.636 3.788,-2.579 1.982,-1.444 3.834,-2.426 6.366,-2.334 5.459,0.2 9.018,4.233 10.884,8.975 2.286,5.807 -6.953,8.174 -9.283,2.56" />
      <path
         id="path542"
         style="fill:#e0dfe6;fill-opacity:1;fill-rule:nonzero;stroke:none"
         d="m 292.603,388.607 c -1.312,4.204 -7.709,4.539 -8.865,0 -0.412,-1.617 -0.609,-3.005 -1.489,-4.457 -0.148,-0.244 -0.417,-0.566 -0.636,-0.859 -0.963,0.552 -2.147,0.497 -3.099,-0.378 -1.768,-1.628 -1.607,-4.456 0.024,-6.131 1.951,-2.004 4.744,-2.238 7.221,-1.082 4.362,2.038 8.36,8.047 6.844,12.907" />
      <path
         id="path544"
         style="fill:#e0dfe6;fill-opacity:1;fill-rule:nonzero;stroke:none"
         d="m 335.976,396.084 c -1.87,1.06 -3.089,1.248 -5.222,0.673 -1.657,-0.447 -4.135,-2.744 -5.673,-3.099 0.062,0.044 -0.03,0.138 -0.421,0.38 -0.589,0.365 -1.178,1.334 -1.846,1.782 -1.446,0.971 -3.149,1.306 -4.871,1.165 -1.8,-0.147 -3.414,-0.889 -4.924,-1.842 -1.672,-1.056 -1.996,-1.964 -4.048,-1.873 -2.069,0.091 -1.773,0.849 -3.141,1.926 -2.885,2.27 -5.506,0.643 -7.901,-1.507 -1.179,-1.058 -0.315,-3.537 1.381,-3.334 0.608,0.072 1.286,0.249 1.901,0.236 0.774,-0.015 1.164,0.014 1.348,0.045 -0.066,-0.088 -0.025,-0.294 0.567,-0.732 1.26,-0.933 1.965,-2.052 3.535,-2.619 4.668,-1.683 6.549,2.451 10.577,3.403 2.535,0.6 2.393,-0.974 4.066,-2.515 1.094,-1.008 2.482,-1.572 4.003,-1.43 1.591,0.148 2.706,1.078 4.039,1.847 2.177,1.255 4.608,1.46 6.63,2.907 1.562,1.117 1.862,3.532 0,4.587" />
      <path
         id="path546"
         style="fill:#525d7d;fill-opacity:1;fill-rule:nonzero;stroke:none"
         d="m 234.216,434.04 c -11.764,0 -17.123,8.72 -17.123,16.821 0,10.604 11.141,14.366 20.68,14.366 0.354,0 0.709,-0.025 1.066,-0.075 0.154,10.711 11.097,21.952 21.448,21.952 5.447,0 9.676,-1.314 12.849,-4.007 5.696,11.847 20.489,17.01 27.256,17.01 11.532,0 18.417,-8.927 18.417,-23.88 0,-1.906 -0.122,-3.844 -0.391,-5.686 7.419,-2.248 11.862,-10.816 11.862,-18.837 0,-9.851 -7.302,-14.846 -21.701,-14.846 -2.608,0 -5.251,0.123 -7.807,0.242 -2.549,0.119 -5.185,0.241 -7.779,0.241 -4.621,0 -7.589,-0.443 -10.732,-0.912 -3.783,-0.565 -8.07,-1.205 -15.927,-1.205 -1.53,0 -3.057,0.019 -4.585,0.039 -1.52,0.019 -3.042,0.039 -4.57,0.039 -1.821,0 -3.35,-0.028 -4.814,-0.086 -0.854,-0.004 -1.526,0.611 -1.559,1.439 -0.033,0.828 0.612,1.525 1.439,1.559 1.504,0.06 3.072,0.088 4.934,0.088 1.541,0 3.076,-0.02 4.609,-0.039 1.515,-0.02 3.029,-0.039 4.546,-0.039 7.634,0 11.624,0.596 15.484,1.172 3.256,0.486 6.331,0.945 11.175,0.945 2.664,0 5.336,-0.124 7.919,-0.244 2.521,-0.118 5.128,-0.239 7.667,-0.239 18.701,0 18.701,8.916 18.701,11.846 0,6.724 -3.536,13.903 -9.449,15.875 -1.119,-4.328 -3.279,-7.561 -6.877,-7.561 -1.763,0 -3.893,2.184 -3.893,4.895 0,3.705 3.01,6.193 7.491,6.193 0.308,0 0.613,-0.01 0.914,-0.03 0.23,1.655 0.343,3.421 0.343,5.151 0,6.278 -1.503,20.88 -15.417,20.88 -5.616,0 -20.879,-4.933 -25.324,-17.143 -0.182,-0.499 -0.614,-0.865 -1.136,-0.962 -0.524,-0.098 -1.057,0.09 -1.405,0.49 -2.739,3.147 -6.629,4.612 -12.24,4.612 -8.056,0 -18.449,-9.3 -18.449,-19.178 0,-0.541 0.021,-1.085 0.062,-1.629 0.037,-0.513 -0.191,-1.011 -0.606,-1.316 -0.415,-0.306 -0.957,-0.377 -1.436,-0.19 -0.751,0.293 -1.433,0.436 -2.085,0.436 -8.547,0 -17.68,-2.986 -17.68,-11.366 0,-9.495 7.321,-13.821 14.123,-13.821 1.395,0 2.815,0.179 4.221,0.529 0.801,0.203 1.618,-0.287 1.818,-1.092 0.202,-0.804 -0.287,-1.617 -1.091,-1.818 -1.643,-0.411 -3.308,-0.619 -4.948,-0.619 z m 80.336,34.066 c -0.75,0 -4.491,-0.154 -4.491,-3.193 0,-1.028 0.703,-1.748 0.986,-1.894 1.803,0.071 3.066,2.163 3.835,5.083 -0.109,0.003 -0.219,0.004 -0.33,0.004" />
      <path
         id="path548"
         style="fill:#525d7d;fill-opacity:1;fill-rule:nonzero;stroke:none"
         d="m 225.439,494.053 c -3.528,0 -5.107,3.405 -5.107,6.779 0,2.438 0.952,4.514 2.682,5.844 0.641,0.492 1.695,0.782 2.47,0.706 3.87,-0.387 6.181,-3.006 6.181,-5.315 0,-0.23 0.019,-0.461 0.036,-0.691 0.023,-0.305 0.044,-0.61 0.044,-0.916 0,-3.024 -2.697,-6.407 -6.306,-6.407 z m -0.606,10.237 c -1.306,-1.012 -1.501,-2.6 -1.501,-3.458 0,-0.154 0.023,-3.779 2.107,-3.779 1.832,0 3.306,1.864 3.306,3.407 0,0.231 -0.018,0.462 -0.035,0.692 -0.023,0.305 -0.045,0.61 -0.045,0.915 0,0.584 -1,2.082 -3.477,2.33 -0.07,-0.002 -0.275,-0.059 -0.355,-0.107" />
      <path
         id="path550"
         style="fill:#525d7d;fill-opacity:1;fill-rule:nonzero;stroke:none"
         d="m 244.905,495.364 c -0.828,0 -1.5,0.672 -1.5,1.5 0,1.919 -0.021,3.849 -0.042,5.779 l -0.001,0.136 c -0.228,-0.14 -0.454,-0.277 -0.679,-0.414 -1.412,-0.857 -2.745,-1.667 -3.987,-2.622 -0.656,-0.504 -1.599,-0.383 -2.104,0.275 -0.505,0.655 -0.382,1.598 0.274,2.103 1.373,1.056 2.841,1.947 4.26,2.809 0.955,0.579 1.942,1.179 2.862,1.808 0.458,0.313 1.051,0.348 1.541,0.091 0.491,-0.256 0.801,-0.763 0.806,-1.316 l 0.028,-2.837 c 0.021,-1.941 0.042,-3.882 0.042,-5.812 0,-0.828 -0.671,-1.5 -1.5,-1.5" />
      <path
         id="path552"
         style="fill:#525d7d;fill-opacity:1;fill-rule:nonzero;stroke:none"
         d="m 262.213,495.412 c -0.792,0 -1.454,0.62 -1.497,1.421 -0.121,2.296 -0.354,4.636 -0.604,6.935 -1.387,-0.897 -2.681,-1.803 -3.769,-2.891 -0.586,-0.586 -1.536,-0.586 -2.122,0 -0.585,0.586 -0.585,1.536 0,2.121 1.626,1.626 3.575,2.86 5.461,4.053 l 0.848,0.538 c 0.438,0.279 0.987,0.314 1.455,0.09 0.469,-0.224 0.788,-0.673 0.844,-1.188 l 0.08,-0.715 c 0.319,-2.872 0.648,-5.842 0.804,-8.785 0.043,-0.827 -0.592,-1.533 -1.419,-1.577 -0.027,-10e-4 -0.054,-0.002 -0.081,-0.002" />
      <path
         id="path554"
         style="fill:#525d7d;fill-opacity:1;fill-rule:nonzero;stroke:none"
         d="m 274.83,495.354 c -0.27,0 -0.449,0.022 -0.616,0.044 -0.101,0.015 -0.231,0.01 -0.368,0.002 -0.148,-0.008 -0.3,-0.016 -0.451,-0.016 -1.756,0 -4.353,1.911 -4.353,6.013 0,3.378 1.667,6.116 4.248,6.976 0.414,0.138 0.869,0.211 1.318,0.211 1.935,0 5.7,-2.142 5.7,-6.068 0,-2.828 -2.454,-7.162 -5.478,-7.162 z m -0.732,3.057 c 0.204,0 0.356,-0.018 0.518,-0.04 0.059,-0.007 0.12,-0.017 0.214,-0.017 0.758,0 2.478,2.419 2.478,4.162 0,2.256 -2.438,3.049 -2.715,3.068 -0.109,0 -0.248,-0.021 -0.355,-0.057 -1.621,-0.54 -2.196,-2.563 -2.196,-4.13 0,-2.081 1.035,-2.95 1.393,-3.015 0.054,0.002 0.149,0.009 0.241,0.013 0.145,0.009 0.287,0.016 0.422,0.016" />
      <path
         id="path556"
         style="fill:#525d7d;fill-opacity:1;fill-rule:nonzero;stroke:none"
         d="m 291.389,497.245 c -0.788,0 -1.449,0.615 -1.496,1.412 -0.057,0.972 -0.138,1.975 -0.222,2.991 -0.055,0.684 -0.112,1.379 -0.162,2.078 -1.225,-0.635 -2.657,-1.295 -4.182,-1.803 -0.784,-0.264 -1.635,0.162 -1.897,0.949 -0.262,0.785 0.163,1.635 0.949,1.897 1.747,0.583 3.515,1.422 5.734,2.722 0.455,0.266 1.017,0.274 1.48,0.021 0.462,-0.254 0.757,-0.732 0.777,-1.26 0.053,-1.434 0.174,-2.922 0.292,-4.361 0.084,-1.038 0.168,-2.064 0.226,-3.058 0.049,-0.827 -0.582,-1.536 -1.409,-1.585 -0.03,-0.002 -0.06,-0.003 -0.09,-0.003" />
      <path
         id="path558"
         style="fill:#525d7d;fill-opacity:1;fill-rule:nonzero;stroke:none"
         d="m 228.526,473.884 c -0.701,0 -1.326,0.493 -1.469,1.206 -0.448,2.239 -0.596,4.45 -0.639,6.561 -1.372,-0.735 -2.669,-1.434 -3.877,-2.27 -0.68,-0.47 -1.616,-0.302 -2.087,0.38 -0.471,0.681 -0.301,1.615 0.38,2.087 1.377,0.953 2.846,1.74 4.267,2.501 0.69,0.37 1.379,0.739 2.058,1.128 0.464,0.266 1.037,0.263 1.501,-0.007 0.464,-0.27 0.747,-0.768 0.744,-1.304 l -0.002,-0.735 c 0,-2.477 0.072,-5.131 0.596,-7.752 0.163,-0.813 -0.364,-1.603 -1.176,-1.766 -0.1,-0.02 -0.198,-0.029 -0.296,-0.029" />
      <path
         id="path560"
         style="fill:#525d7d;fill-opacity:1;fill-rule:nonzero;stroke:none"
         d="m 239.373,475.034 c -1.795,0 -3.796,2.314 -3.796,5.635 0,4.052 3.454,7.195 6.427,7.195 2.242,0 4.119,-1.791 5.019,-4.791 0.238,-0.793 -0.212,-1.63 -1.005,-1.868 -0.794,-0.239 -1.63,0.212 -1.868,1.006 -0.368,1.224 -1.15,2.653 -2.146,2.653 -1.349,0 -3.427,-1.801 -3.427,-4.195 0,-1.55 0.682,-2.446 0.977,-2.646 0.743,-0.089 1.319,-0.722 1.319,-1.489 0,-0.829 -0.671,-1.5 -1.5,-1.5" />
      <path
         id="path562"
         style="fill:#525d7d;fill-opacity:1;fill-rule:nonzero;stroke:none"
         d="m 225.693,409.277 c -2.993,0 -5.93,2.844 -5.93,5.741 0,4.175 3.073,7.294 5.821,7.294 0.436,0 0.87,-0.071 1.289,-0.211 0.121,-0.04 0.31,-0.064 0.509,-0.089 0.422,-0.053 0.947,-0.119 1.498,-0.395 1.763,-0.881 3.051,-4.368 3.051,-5.576 0,-3.667 -2.856,-6.764 -6.238,-6.764 z m -0.109,10.035 c -0.995,0 -2.821,-1.63 -2.821,-4.294 0,-1.031 1.419,-2.741 2.93,-2.741 1.853,0 3.238,1.987 3.238,3.764 -0.043,0.628 -0.946,2.577 -1.425,2.911 -0.06,0.028 -0.283,0.056 -0.497,0.084 -0.304,0.037 -0.682,0.085 -1.084,0.219 -0.115,0.038 -0.227,0.057 -0.341,0.057" />
      <path
         id="path564"
         style="fill:#525d7d;fill-opacity:1;fill-rule:nonzero;stroke:none"
         d="m 231.141,414.34 c -0.755,0 -1.404,0.567 -1.489,1.335 -0.092,0.823 0.502,1.564 1.325,1.656 3.728,0.414 7.057,0.48 9.995,0.537 9.221,0.179 12.137,0.571 12.137,7.596 0,1.538 -0.098,3.06 -0.203,4.672 -0.045,0.702 -0.09,1.408 -0.128,2.12 -0.044,0.828 0.592,1.533 1.419,1.577 0.83,0.045 1.533,-0.592 1.577,-1.419 0.037,-0.7 0.081,-1.395 0.126,-2.085 0.103,-1.588 0.209,-3.23 0.209,-4.865 0,-10.301 -6.654,-10.432 -15.079,-10.596 -2.873,-0.056 -6.13,-0.12 -9.722,-0.518 -0.056,-0.007 -0.112,-0.01 -0.167,-0.01" />
      <path
         id="path566"
         style="fill:#525d7d;fill-opacity:1;fill-rule:nonzero;stroke:none"
         d="m 261.552,396.466 c -3.029,0 -6.248,2.084 -6.248,5.944 0,3.925 2.91,7.441 6.488,7.838 0.287,0.032 0.578,0.061 0.868,0.061 3.004,0 6.497,-3.027 6.497,-6.928 0,-3.554 -3.696,-6.915 -7.605,-6.915 z m 1.108,10.843 c -0.179,0 -0.359,-0.023 -0.536,-0.043 -2.252,-0.25 -3.82,-2.76 -3.82,-4.856 0,-2.415 2.345,-2.944 3.248,-2.944 2.238,0 4.605,2.012 4.605,3.915 0,2.308 -2.269,3.928 -3.497,3.928" />
      <path
         id="path568"
         style="fill:#525d7d;fill-opacity:1;fill-rule:nonzero;stroke:none"
         d="m 281.618,378.938 c -3.452,0 -6.156,2.685 -6.156,6.113 0,4.503 3.274,6.932 6.353,6.932 1.014,0 1.98,-0.258 2.872,-0.767 0.784,-0.448 1.316,-0.842 1.885,-1.638 0.806,-1.128 1.147,-3.353 1.147,-4.048 0,-2.298 -1.79,-6.592 -6.101,-6.592 z m 0.197,10.045 c -1.666,0 -3.353,-1.351 -3.353,-3.932 0,-2.022 1.626,-3.113 3.156,-3.113 2.523,0 3.101,3.121 3.101,3.592 0,0.477 -0.33,1.942 -0.588,2.304 -0.245,0.343 -0.402,0.474 -0.932,0.777 -0.434,0.247 -0.899,0.372 -1.384,0.372" />
      <path
         id="path570"
         style="fill:#525d7d;fill-opacity:1;fill-rule:nonzero;stroke:none"
         d="m 275.859,401.815 c -1.159,0 -2.32,0.013 -3.478,0.026 -1.143,0.014 -2.284,0.027 -3.42,0.027 -0.829,0 -1.5,0.671 -1.5,1.5 0,0.828 0.671,1.5 1.5,1.5 1.148,0 2.3,-0.013 3.455,-0.027 1.146,-0.013 2.295,-0.026 3.443,-0.026 8.931,0 13.902,0.82 15.642,2.581 0.979,0.991 1.012,2.39 0.985,4.776 -0.004,0.336 -0.008,0.68 -0.008,1.03 0,2.791 -0.359,5.53 -0.739,8.429 -0.378,2.893 -0.77,5.885 -0.77,8.924 0,1.528 0.096,2.944 0.294,4.329 0.055,0.388 0.235,0.723 0.535,0.999 0.238,0.515 0.759,0.874 1.365,0.874 0.828,0 1.5,-0.672 1.5,-1.5 0,-0.371 -0.097,-0.859 -0.496,-1.295 -0.133,-1.087 -0.198,-2.207 -0.198,-3.407 0,-2.843 0.379,-5.736 0.745,-8.534 0.375,-2.868 0.764,-5.833 0.764,-8.819 0,-0.339 0.004,-0.671 0.008,-0.995 0.029,-2.566 0.057,-4.991 -1.851,-6.92 -2.438,-2.466 -7.589,-3.472 -17.776,-3.472" />
      <path
         id="path572"
         style="fill:#525d7d;fill-opacity:1;fill-rule:nonzero;stroke:none"
         d="m 280.226,390.394 c -0.819,0 -1.488,0.658 -1.5,1.479 -0.029,2.157 -0.041,4.311 -0.041,6.461 0,5.185 0.072,10.435 0.142,15.511 0.069,5.066 0.142,10.305 0.142,15.47 0,2.137 -0.012,4.276 -0.042,6.42 -0.011,0.828 0.652,1.509 1.48,1.52 0.84,0 1.509,-0.658 1.52,-1.479 0.03,-2.158 0.042,-4.311 0.042,-6.461 0,-5.185 -0.073,-10.435 -0.142,-15.511 -0.07,-5.066 -0.142,-10.305 -0.142,-15.47 0,-2.136 0.012,-4.276 0.041,-6.42 0.012,-0.828 -0.651,-1.509 -1.5,-1.52" />
      <path
         id="path574"
         style="fill:#525d7d;fill-opacity:1;fill-rule:nonzero;stroke:none"
         d="m 340.619,411.977 c -3.559,0 -6.455,3.192 -6.455,7.116 0,2.355 1.056,4.73 2.826,6.353 0.723,0.662 1.673,0.998 2.824,0.998 4.017,0 7.54,-3.242 7.54,-6.938 0,-4.503 -2.707,-7.529 -6.735,-7.529 z m -0.805,11.467 c -0.509,0 -0.698,-0.119 -0.796,-0.209 -1.161,-1.065 -1.854,-2.613 -1.854,-4.142 0,-2.542 1.793,-4.116 3.455,-4.116 3.465,0 3.735,3.466 3.735,4.529 0,1.821 -1.983,3.938 -4.54,3.938" />
      <path
         id="path576"
         style="fill:#525d7d;fill-opacity:1;fill-rule:nonzero;stroke:none"
         d="m 333.938,416.754 c -0.037,0 -0.075,0.002 -0.112,0.004 -1.188,0.088 -2.381,0.1 -3.288,0.1 -0.535,0 -1.07,-0.004 -1.606,-0.009 -0.542,-0.005 -1.085,-0.009 -1.626,-0.009 -12.474,0 -13.438,3.744 -13.438,9.035 0,1.356 0.071,2.727 0.139,4.052 0.068,1.292 0.136,2.628 0.136,3.915 0,1.246 -0.065,2.333 -0.2,3.321 -0.111,0.82 0.464,1.576 1.285,1.688 0.814,0.112 1.576,-0.463 1.688,-1.284 0.153,-1.123 0.227,-2.342 0.227,-3.725 0,-1.365 -0.071,-2.74 -0.139,-4.07 -0.067,-1.287 -0.136,-2.619 -0.136,-3.897 0,-3.892 0,-6.035 10.438,-6.035 0.533,0 1.067,0.004 1.601,0.008 0.544,0.006 1.087,0.01 1.631,0.01 0.958,0 2.223,-0.012 3.51,-0.108 0.826,-0.061 1.446,-0.78 1.385,-1.607 -0.059,-0.788 -0.717,-1.389 -1.495,-1.389" />
      <path
         id="path578"
         style="fill:#525d7d;fill-opacity:1;fill-rule:nonzero;stroke:none"
         d="m 336.173,389.327 c -0.279,0 -0.561,0.078 -0.813,0.241 -2.07,1.339 -3.384,3.263 -4.599,5.184 -1.31,-1.065 -2.672,-2.063 -4.002,-3.037 -0.854,-0.625 -1.707,-1.251 -2.546,-1.892 -0.611,-0.466 -1.475,-0.397 -2.002,0.161 -1.288,1.362 -2.377,2.905 -3.432,4.397 -0.186,0.264 -0.373,0.528 -0.561,0.792 -2.648,-1.677 -4.93,-3.175 -7.158,-4.889 -0.616,-0.475 -1.494,-0.4 -2.021,0.174 -1.457,1.591 -2.703,3.346 -3.908,5.042 -0.133,0.187 -0.265,0.374 -0.398,0.561 -2.501,-1.7 -4.945,-3.491 -7.283,-5.337 -0.65,-0.512 -1.595,-0.402 -2.107,0.248 -0.513,0.65 -0.402,1.594 0.248,2.107 2.774,2.19 5.695,4.305 8.681,6.285 0.667,0.443 1.566,0.283 2.039,-0.363 0.427,-0.582 0.846,-1.172 1.266,-1.764 0.889,-1.252 1.802,-2.537 2.784,-3.726 2.298,1.688 4.669,3.202 7.444,4.948 0.662,0.416 1.532,0.255 2,-0.37 0.485,-0.647 0.954,-1.312 1.424,-1.977 0.762,-1.078 1.494,-2.113 2.28,-3.064 0.49,0.364 0.984,0.726 1.477,1.088 1.737,1.271 3.532,2.587 5.132,3.999 0.328,0.29 0.763,0.424 1.2,0.36 0.434,-0.06 0.819,-0.307 1.055,-0.675 0.196,-0.306 0.39,-0.614 0.582,-0.922 1.195,-1.905 2.325,-3.705 4.035,-4.812 0.695,-0.45 0.894,-1.378 0.444,-2.074 -0.287,-0.443 -0.769,-0.685 -1.261,-0.685" />
    </g>
  </g>
</svg>
