<?xml version="1.0" encoding="UTF-8" standalone="no"?>
<svg
   xmlns:dc="http://purl.org/dc/elements/1.1/"
   xmlns:cc="http://creativecommons.org/ns#"
   xmlns:rdf="http://www.w3.org/1999/02/22-rdf-syntax-ns#"
   xmlns:svg="http://www.w3.org/2000/svg"
   xmlns="http://www.w3.org/2000/svg"
   version="1.1"
   id="svg9039"
   viewBox="0 0 162.75 173.12601"
   height="173.12601"
   width="162.75">
  <defs
     id="defs9041" />
  <metadata
     id="metadata9044">
    <rdf:RDF>
      <cc:Work
         rdf:about="">
        <dc:format>image/svg+xml</dc:format>
        <dc:type
           rdf:resource="http://purl.org/dc/dcmitype/StillImage" />
        <dc:title></dc:title>
      </cc:Work>
    </rdf:RDF>
  </metadata>
  <g
     transform="translate(0,-879.23616)"
     id="layer1">
    <g
       id="g9012"
       transform="matrix(1.25,0,0,-1.25,-767.92586,1063.318)">
      <path
         id="path232"
         style="fill:#e0dfe6;fill-opacity:1;fill-rule:nonzero;stroke:none"
         d="m 653.519,62.6609 c -0.886,3.502 -1.651,6.8192 -1.881,10.4481 -0.313,4.9621 1.581,11.4019 -0.649,15.9039 -0.351,0.7082 -1.306,0.8523 -1.947,0.5113 -5.262,-2.7972 -5.915,-12.023 -5.872,-17.323 0.045,-5.6071 0.25,-14.918 6.411,-17.0391 1.244,-0.4281 2.712,0.2879 3.359,1.3668 1.323,2.207 1.192,3.7063 0.579,6.132" />
      <path
         id="path234"
         style="fill:#e0dfe6;fill-opacity:1;fill-rule:nonzero;stroke:none"
         d="m 713.857,76.157 c -0.697,5.645 -2.148,12.7039 -6.846,16.3891 -1.011,0.7937 -2.741,0.6738 -3.08,-0.8141 -1.211,-5.3172 0.423,-11.0968 0.693,-16.484 0.154,-3.105 -0.605,-6.8621 -0.58,-10.3238 -0.623,-0.3113 -1.225,-0.7633 -1.784,-1.389 -0.119,-0.134 -0.24,-0.2622 -0.359,-0.3942 -0.427,5.3699 -0.943,10.7399 -1.255,16.1059 -0.484,8.359 -1.139,16.3351 -2.713,24.5501 -0.276,1.445 -2.554,1.391 -2.868,0 -1.854,-8.2099 -2.55,-16.124 -2.815,-24.5501 -0.259,-8.2528 -0.72,-16.6539 -0.363,-24.9168 -4.313,-2.7149 -9.17,-4.343 -15.017,-4.2039 -4.58,0.109 -8.931,1.366 -12.953,3.5418 -2.959,1.6 -6.044,4.814 -9.43,5.2332 -0.318,0.0398 -0.584,-0.202 -0.754,-0.4321 -3.169,-4.3031 1.906,-10.9882 5.086,-13.705 4.788,-4.0899 11.021,-6.3442 17.277,-6.7871 13.366,-0.943 29.149,6.1339 35.657,18.2332 0.53,0.9839 0.738,1.9968 0.705,2.9757 3.293,4.286 2.003,12.075 1.399,16.9711" />
      <path
         id="path236"
         style="fill:#e0dfe6;fill-opacity:1;fill-rule:nonzero;stroke:none"
         d="m 704.946,89.9852 c -0.779,6.6089 -1.463,13.2368 -2.355,19.8318 -0.766,5.677 -2.691,9.875 -6.579,14.079 -3.881,4.197 -7.261,8.744 -11.011,13.018 0.326,0.301 0.634,0.64 0.903,1.074 0.64,1.033 0.738,2.707 0,3.73 -2.404,3.327 -7.994,3.759 -11.392,1.421 -1.674,-1.152 -2.764,-3.018 -2.727,-5.081 0.039,-2.123 1.386,-4.332 3.542,-4.809 1.756,-0.39 3.26,0.441 3.993,1.991 0.004,-0.041 0.002,-0.082 0.007,-0.123 0.692,-5.113 3.38,-9.696 6.48,-13.748 3.784,-4.946 6.257,-8.551 7.025,-14.872 0.707,-5.823 1.349,-11.6548 2.023,-17.4829 0.562,-4.8571 0.257,-11.5082 4.405,-14.7981 1.178,-0.9347 3.227,-1.418 4.344,0 3.592,4.5559 1.979,10.368 1.342,15.7692" />
      <path
         id="path238"
         style="fill:#e0dfe6;fill-opacity:1;fill-rule:nonzero;stroke:none"
         d="m 657.464,22.6152 c -1.159,3.2918 -3.291,3.736 -6.034,5.3368 -2.776,1.621 -4.289,3.8171 -6.468,6.0449 -4.019,4.1101 -10.759,1.4101 -14.096,-2.3989 -0.781,-0.891 -0.385,-2.0019 0.642,-2.432 2.305,-0.9648 5.415,0.0332 7.357,-1.0461 1.454,-0.8097 3.114,-4.2019 4.403,-5.4207 3.339,-3.1582 7.813,-6.8281 12.428,-4.4293 1.414,0.736 2.308,2.8133 1.768,4.3453" />
      <path
         id="path240"
         style="fill:#e0dfe6;fill-opacity:1;fill-rule:nonzero;stroke:none"
         d="m 686.237,21.309 c -2.133,-0.7129 -4.233,-1.3809 -6.488,-1.5121 -2.201,-0.127 -4.398,0.089 -6.565,-0.4457 -3.668,-0.9063 -6.068,-3.359 -6.565,-7.066 -0.394,-2.93715 3.719,-4.07036 5.537,-2.29301 2.204,2.15391 4.854,1.10081 7.593,0.87071 3.068,-0.257 6.161,0.0551 9.084,1.0312 5.929,1.9829 3.387,11.4149 -2.596,9.4149" />
      <path
         id="path242"
         style="fill:#e0dfe6;fill-opacity:1;fill-rule:nonzero;stroke:none"
         d="m 726.182,36.191 c -0.245,1.6309 -2.101,2.6969 -3.602,2.743 -2.272,0.0691 -3.505,-1.2192 -5.208,-2.4699 -1.722,-1.2649 -3.594,-2.2782 -5.258,-3.6289 -3.334,-2.7102 -6.212,-7.4872 -3.708,-11.6711 1.279,-2.1379 4.566,-2.236 5.822,0 0.788,1.4031 1.3,2.7879 2.436,3.9711 1.114,1.1589 2.508,1.9109 3.862,2.7507 3.26,2.027 6.296,4.0621 5.656,8.3051" />
      <path
         id="path244"
         style="fill:#e0dfe6;fill-opacity:1;fill-rule:nonzero;stroke:none"
         d="m 729.756,71.3211 c -0.216,-4.6891 -0.61,-9.518 0.524,-14.107 0.37,-1.5032 2.288,-1.8961 3.349,-0.8852 4.084,3.8871 5.398,9.557 5.954,14.9922 0.634,6.2031 -9.533,6.3848 -9.827,0" />
      <path
         id="path246"
         style="fill:#e0dfe6;fill-opacity:1;fill-rule:nonzero;stroke:none"
         d="m 723.845,111.204 c -1.137,0.342 -2.217,-0.589 -2.251,-1.715 -0.1,-3.349 1.341,-6.636 1.9,-9.9179 0.619,-3.6391 0.568,-6.9199 3.268,-9.7539 1.2,-1.2602 3.618,-1.3641 4.801,0 5.321,6.1387 -0.322,19.1668 -7.718,21.3868" />
      <path
         id="path248"
         style="fill:#e0dfe6;fill-opacity:1;fill-rule:nonzero;stroke:none"
         d="m 640.468,33.7672 c -0.543,3.2867 -4.092,5.234 -6.455,7.2238 -2.331,1.9621 -4.778,3.7762 -7.31,5.4672 -1.267,0.8449 -2.908,-0.5512 -2.518,-1.9352 0.908,-3.2281 2.312,-6.2289 4.211,-8.9929 2.138,-3.109 4.274,-6.352 8.302,-6.711 2.771,-0.248 4.144,2.6829 3.77,4.9481" />
      <path
         id="path250"
         style="fill:#e0dfe6;fill-opacity:1;fill-rule:nonzero;stroke:none"
         d="m 668.295,19.1563 c -3.492,0.4027 -6.759,0.5597 -10.199,1.4179 -2.769,0.691 -5.481,1.7867 -8.219,0.5938 -0.678,-0.2961 -1.007,-1.1348 -1.041,-1.8149 -0.18,-3.6781 3.835,-6.3832 6.78,-7.7879 3.826,-1.82731 8.41,-3.20309 12.679,-2.69332 6.588,0.78515 6.624,9.51832 0,10.28442" />
      <path
         id="path252"
         style="fill:#e0dfe6;fill-opacity:1;fill-rule:nonzero;stroke:none"
         d="m 713.6,25.698 c -3.396,5.1 -9.135,-0.2718 -12.491,-2.3429 -4.101,-2.5289 -8.746,-3.2539 -11.489,-7.5059 -1.061,-1.6441 0.352,-3.6121 2.122,-3.6972 5.194,-0.25 9.928,-0.32 14.796,1.9152 3.912,1.7957 10.385,6.643 7.062,11.6308" />
      <path
         id="path254"
         style="fill:#e0dfe6;fill-opacity:1;fill-rule:nonzero;stroke:none"
         d="m 737.928,52.7609 c -0.549,5.07 -7.019,6.111 -8.861,1.1993 -0.786,-2.1 -0.942,-4.386 -1.687,-6.5223 -0.688,-1.9731 -1.814,-3.7887 -2.14,-5.8719 -0.202,-1.298 0.554,-2.893 2.12,-2.7828 5.895,0.4137 11.178,8.3387 10.568,13.9777" />
      <path
         id="path256"
         style="fill:#e0dfe6;fill-opacity:1;fill-rule:nonzero;stroke:none"
         d="m 629.361,68.1961 c -1.719,1.6699 -3.937,2.566 -6.161,3.368 -1.905,0.6871 -4.111,1.1507 -6.093,0.532 -1.321,-0.4121 -2.082,-1.9832 -1.315,-3.2289 0.938,-1.5223 2.345,-2.543 3.718,-3.6422 1.566,-1.2531 2.887,-2.7648 4.589,-3.848 4.174,-2.6551 8.784,3.3941 5.262,6.8191" />
      <path
         id="path258"
         style="fill:#e0dfe6;fill-opacity:1;fill-rule:nonzero;stroke:none"
         d="m 740.264,78.7551 c -2.241,-0.4211 -4.29,-2.341 -5.588,-4.1199 -1.333,-1.8293 -1.833,-4.3813 -0.993,-6.5422 0.573,-1.4758 1.958,-2.5239 3.619,-2.0551 2.074,0.5851 3.753,1.8684 4.925,3.6633 0.907,1.3879 1.986,3.2008 2.253,4.8386 0.433,2.6692 -1.49,4.7274 -4.216,4.2153" />
      <path
         id="path260"
         style="fill:#e0dfe6;fill-opacity:1;fill-rule:nonzero;stroke:none"
         d="m 725.874,50.0172 c -0.064,-0.0672 -0.127,-0.1313 -0.191,-0.1981 0.567,1.1778 1.094,2.3809 1.558,3.625 2.306,6.1911 1.8,11.5071 0.885,17.8801 -0.279,1.9469 -3.358,1.4227 -3.365,-0.4562 -0.041,-10.234 -7.301,-20.9231 -14.172,-27.9438 -4.53,-4.6312 -9.466,-9.1422 -14.944,-12.7531 -3.365,-0.9699 -6.907,-1.6723 -10.687,-2.0531 -15.335,-1.5489 -35.776,2.0742 -42.864,17.8902 -0.373,0.8316 -1.772,0.2398 -1.477,-0.623 2.827,-8.2954 7.003,-14.8571 14.593,-19.6461 8.582,-5.4141 18.843,-7.2922 28.86,-7.0172 18.833,0.5183 40.272,9.359 45.316,29.25 0.499,1.9683 -2.039,3.6261 -3.512,2.0453" />
      <path
         id="path262"
         style="fill:#e0dfe6;fill-opacity:1;fill-rule:nonzero;stroke:none"
         d="m 650.785,106.479 c -5.406,-1.94 -8.927,-8.5618 -11.125,-13.563 -2.543,-5.7828 -2.556,-10.6168 -1.714,-16.6879 0.117,-0.8441 1.344,-0.6883 1.558,0 1.535,4.9141 4.211,10.2399 6.76,14.6949 2.399,4.1911 6.498,7.3762 8.299,11.778 0.871,2.13 -1.715,4.518 -3.778,3.778" />
      <path
         id="path264"
         style="fill:#e0dfe6;fill-opacity:1;fill-rule:nonzero;stroke:none"
         d="m 716.366,95.7059 c -2.415,4.4861 -5.704,8.7781 -9.719,11.9461 -5.622,4.438 -13.689,-3.164 -8.056,-8.0571 3.399,-2.9519 6.774,-5.8429 9.768,-9.2277 2.579,-2.9172 4.705,-6.9402 8.311,-8.6871 1.061,-0.5121 2.109,-0.0641 2.518,1.025 1.609,4.2871 -0.806,9.2551 -2.822,13.0008" />
      <path
         id="path748"
         style="fill:#525d7d;fill-opacity:1;fill-rule:nonzero;stroke:none"
         d="m 678.382,36.6719 c -0.354,0 -0.709,0.0051 -1.063,0.0152 -22.41,0.643 -35.755,20.541 -35.267,38.6078 0.229,8.4582 3.278,16.5973 8.583,22.9211 0.532,0.6332 1.48,0.7172 2.114,0.1852 0.634,-0.5332 0.717,-1.4793 0.185,-2.1133 -4.873,-5.807 -7.673,-13.291 -7.884,-21.0738 -0.448,-16.627 11.794,-34.9391 32.355,-35.5289 3.306,-0.0903 6.6,0.2898 9.794,1.141 3.07,0.8179 6.037,2.0648 8.816,3.707 15.401,10.0559 20.913,30.8238 12.232,46.2598 -1.682,2.9402 -3.545,5.3582 -5.692,7.382 -0.603,0.568 -0.632,1.5172 -0.063,2.12 0.568,0.603 1.519,0.63 2.12,0.063 2.366,-2.2291 4.408,-4.8748 6.244,-8.0861 9.446,-16.7938 3.496,-39.3489 -13.258,-50.2867 -3.073,-1.8161 -6.292,-3.17 -9.627,-4.0571 -3.13,-0.834 -6.35,-1.2562 -9.589,-1.2562" />
      <path
         id="path750"
         style="fill:#525d7d;fill-opacity:1;fill-rule:nonzero;stroke:none"
         d="m 668.251,9.76797 c -0.079,0 -0.159,0.00625 -0.238,0.01914 -5.964,0.95309 -11.719,2.76599 -17.108,5.38709 -0.627,0.3039 -0.962,1.0028 -0.806,1.6817 0.569,2.4882 1.224,5.007 1.858,7.4421 0.162,0.6239 0.324,1.2469 0.485,1.87 -4.378,2.4961 -8.388,5.632 -11.944,9.3429 -2.65,-1.4359 -5.421,-2.9789 -8.254,-4.5929 -0.63,-0.3598 -1.423,-0.218 -1.889,0.3351 -4.02,4.7578 -7.375,10.0879 -9.969,15.841 -0.284,0.6278 -0.101,1.37 0.441,1.795 l 2.143,1.691 c 1.771,1.3988 3.593,2.839 5.437,4.239 -1.924,5.1348 -3.094,10.47 -3.486,15.8918 -2.699,0.3762 -5.803,0.7871 -9.251,1.2262 -0.735,0.0942 -1.292,0.7109 -1.31,1.4508 -0.027,1.1441 -0.026,2.298 0.005,3.4332 0.174,6.4488 1.284,12.832 3.302,18.9711 0.225,0.6859 0.912,1.1098 1.627,1.0168 3.163,-0.4289 6.429,-0.7281 9.615,-1.0078 1.908,4.6708 4.414,8.9938 7.467,12.8768 l -0.467,0.575 c -1.865,2.297 -3.793,4.672 -5.547,7.145 -0.403,0.57 -0.361,1.34 0.099,1.863 4.842,5.472 10.481,9.882 16.763,13.106 0.606,0.311 1.349,0.173 1.803,-0.335 1.916,-2.141 3.99,-4.282 6.322,-6.525 1.259,0.433 2.646,0.834 4.366,1.261 0.798,0.202 1.618,-0.288 1.818,-1.092 0.201,-0.804 -0.289,-1.618 -1.093,-1.818 -2.02,-0.504 -3.541,-0.961 -4.931,-1.481 -0.536,-0.202 -1.144,-0.078 -1.559,0.317 -2.345,2.228 -4.438,4.353 -6.372,6.468 -5.202,-2.816 -9.925,-6.509 -14.067,-11.001 1.51,-2.055 3.142,-4.065 4.727,-6.018 l 1.233,-1.521 c 0.447,-0.554 0.443,-1.347 -0.01,-1.896 -3.433,-4.16 -6.181,-8.8889 -8.17,-14.0561 -0.241,-0.625 -0.871,-1.0109 -1.531,-0.9551 l -0.203,0.0172 c -3.094,0.2711 -6.28,0.55 -9.416,0.9422 -1.689,-5.498 -2.623,-11.1883 -2.778,-16.934 -0.018,-0.6593 -0.025,-1.3254 -0.022,-1.9922 3.463,-0.4449 6.557,-0.8621 9.212,-1.2371 0.712,-0.1 1.252,-0.6918 1.288,-1.4097 0.296,-5.8973 1.564,-11.7 3.767,-17.2453 0.251,-0.6297 0.048,-1.3477 -0.495,-1.7547 -2.123,-1.5883 -4.237,-3.2582 -6.282,-4.875 l -1.22,-0.9621 c 2.227,-4.7129 4.994,-9.1172 8.242,-13.118 2.836,1.607 5.602,3.1359 8.237,4.5539 0.607,0.3242 1.354,0.198 1.816,-0.307 3.797,-4.1328 8.168,-7.5508 12.99,-10.1571 0.606,-0.3257 0.91,-1.023 0.74,-1.6898 -0.255,-1.0012 -0.515,-2.002 -0.776,-3.0031 -0.528,-2.0301 -1.071,-4.1168 -1.564,-6.1828 4.416,-2.036 9.08,-3.509 13.895,-4.3891 0.877,2.95 1.783,5.998 2.902,8.9148 0.248,0.6481 0.906,1.0411 1.593,0.9512 1.67,-0.2152 3.372,-0.3492 5.058,-0.3969 3.905,-0.1082 7.839,0.2207 11.67,0.9899 0.664,0.1308 1.332,-0.193 1.635,-0.7969 1.423,-2.8352 3.008,-5.5 4.765,-8.3711 4.513,1.2531 8.903,3.0168 13.077,5.2539 -0.815,3.1801 -1.638,6.4539 -2.2,9.736 -0.098,0.571 0.143,1.1472 0.617,1.48 4.136,2.9039 7.859,6.3961 11.065,10.3789 0.41,0.509 1.105,0.6903 1.71,0.459 1.825,-0.707 3.654,-1.3969 5.481,-2.0867 1.159,-0.4383 2.318,-0.8762 3.475,-1.3172 3.044,4.3602 5.561,9.0731 7.5,14.0379 -2.046,1.0883 -4.642,2.5141 -8.033,4.4121 -0.628,0.352 -0.919,1.1012 -0.69,1.784 1.875,5.6059 2.824,11.377 2.822,17.1559 0,0.714 0.503,1.33 1.203,1.4711 2.004,0.4039 4.038,0.7531 6.006,1.091 1.057,0.1812 2.113,0.3621 3.167,0.5519 -0.228,5.2801 -1.129,10.4461 -2.681,15.391 -3.339,-0.314 -6.737,-0.5718 -9.774,-0.8019 -0.646,-0.052 -1.259,0.3269 -1.504,0.932 -0.766,1.8942 -1.663,3.7582 -2.666,5.5399 -1.901,3.3271 -3.934,6.1791 -6.209,8.7101 -0.478,0.532 -0.514,1.326 -0.087,1.9 1.829,2.454 3.492,5.136 5.1,7.73 l 0.194,0.315 c -3.377,3.227 -7.168,5.935 -11.534,8.24 -1.388,-1.352 -2.822,-2.65 -4.217,-3.912 -1.13,-1.023 -2.256,-2.041 -3.35,-3.081 -0.436,-0.415 -1.077,-0.531 -1.628,-0.29 -0.503,0.216 -1.011,0.427 -1.528,0.632 -1.324,0.528 -2.685,0.884 -3.842,1.163 -0.805,0.194 -1.301,1.004 -1.107,1.81 0.194,0.805 1.005,1.298 1.81,1.106 1.26,-0.303 2.751,-0.694 4.251,-1.292 0.232,-0.092 0.464,-0.186 0.693,-0.281 0.885,0.825 1.785,1.64 2.689,2.457 1.63,1.476 3.316,3.001 4.886,4.578 0.458,0.461 1.161,0.573 1.739,0.281 5.437,-2.745 10.052,-6.056 14.109,-10.121 0.493,-0.494 0.58,-1.261 0.212,-1.853 l -0.827,-1.332 c -1.433,-2.312 -2.908,-4.692 -4.529,-6.961 2.097,-2.458 3.997,-5.19 5.786,-8.319 0.888,-1.5809 1.697,-3.2169 2.413,-4.8778 3.109,0.2359 6.53,0.5027 9.826,0.8297 0.706,0.066 1.347,-0.3527 1.569,-1.0149 2.008,-5.9671 3.101,-12.2539 3.248,-18.6851 0.017,-0.7348 -0.501,-1.3719 -1.221,-1.5078 -1.491,-0.2809 -2.986,-0.5379 -4.481,-0.7942 -1.554,-0.2668 -3.15,-0.5398 -4.729,-0.8418 -0.116,-5.2812 -0.982,-10.5461 -2.581,-15.6839 3.5,-1.9543 6.08,-3.359 8.061,-4.3922 0.669,-0.3489 0.975,-1.141 0.714,-1.8489 -2.222,-6.0339 -5.255,-11.7281 -9.016,-16.925 -0.398,-0.5511 -1.119,-0.7632 -1.753,-0.5199 -1.511,0.5809 -3.028,1.1528 -4.547,1.7278 -1.496,0.564 -2.994,1.13 -4.49,1.705 -3.013,-3.6039 -6.438,-6.809 -10.2,-9.5461 0.568,-3.064 1.34,-6.0668 2.152,-9.2289 l 0.122,-0.473 c 0.169,-0.6598 -0.126,-1.3508 -0.721,-1.6828 -4.883,-2.7301 -10.065,-4.834 -15.4,-6.2563 l -0.474,-0.1238 c -0.636,-0.1672 -1.304,0.107 -1.648,0.6668 -1.752,2.848 -3.451,5.6492 -4.959,8.5383 -3.696,-0.661 -7.473,-0.9453 -11.226,-0.834 -1.388,0.0387 -2.786,0.1328 -4.171,0.2797 -0.902,-2.4938 -1.677,-5.1 -2.429,-7.6309 l -0.372,-1.2519 c -0.192,-0.643 -0.783,-1.07113 -1.436,-1.07113" />
      <path
         id="path752"
         style="fill:#525d7d;fill-opacity:1;fill-rule:nonzero;stroke:none"
         d="m 650.971,50.498 c -0.856,0.0149 -1.515,0.6981 -1.501,1.527 l 1.134,62.974 c 0.007,0.354 0.139,0.695 0.373,0.962 3.964,4.517 7.905,9.253 11.716,13.832 4.691,5.636 9.543,11.465 14.509,16.975 0.296,0.328 0.722,0.523 1.162,0.495 0.441,-0.013 0.854,-0.221 1.129,-0.568 l 24.153,-30.539 c 0.188,-0.237 0.299,-0.524 0.319,-0.826 l 4.352,-62.2948 c 0.058,-0.8262 -0.565,-1.543 -1.392,-1.6012 -0.821,-0.0649 -1.543,0.5648 -1.6,1.3922 l -4.32,61.8318 -22.76,28.778 c -4.517,-5.075 -8.949,-10.399 -13.245,-15.562 -3.708,-4.455 -7.539,-9.057 -11.406,-13.479 L 652.47,51.9699 c -0.014,-0.8179 -0.683,-1.4719 -1.499,-1.4719" />
      <path
         id="path754"
         style="fill:#525d7d;fill-opacity:1;fill-rule:nonzero;stroke:none"
         d="m 678.409,131.838 c -3.437,0 -6.765,0.62 -9.893,1.844 -0.771,0.302 -1.152,1.172 -0.849,1.944 0.301,0.772 1.173,1.151 1.943,0.849 5.291,-2.07 11.404,-2.174 16.92,-0.289 0.78,0.268 1.636,-0.15 1.904,-0.935 0.268,-0.783 -0.151,-1.636 -0.935,-1.905 -2.932,-1.001 -5.991,-1.508 -9.09,-1.508" />
      <path
         id="path756"
         style="fill:#525d7d;fill-opacity:1;fill-rule:nonzero;stroke:none"
         d="m 661.332,106.191 c -0.309,0 -0.618,0.095 -0.881,0.286 l -0.345,0.249 c -3.017,2.189 -6.137,4.452 -9.006,7.028 -0.616,0.553 -0.668,1.502 -0.114,2.118 0.553,0.616 1.501,0.668 2.118,0.114 2.567,-2.304 5.397,-4.387 8.162,-6.394 1.236,1.027 2.482,2.048 3.728,3.07 1.324,1.085 2.649,2.171 3.96,3.265 0.544,0.453 1.329,0.464 1.886,0.028 1.115,-0.874 2.206,-1.779 3.298,-2.686 1.296,-1.074 2.626,-2.178 3.981,-3.21 l 6.384,5.628 c 0.555,0.491 1.387,0.502 1.955,0.027 l 0.683,-0.573 c 2.186,-1.833 4.266,-3.577 6.532,-5.065 0.359,0.351 0.715,0.703 1.072,1.055 2.017,1.991 4.103,4.05 6.361,5.825 0.65,0.512 1.596,0.399 2.106,-0.253 0.512,-0.651 0.399,-1.595 -0.252,-2.107 -2.125,-1.668 -4.15,-3.668 -6.108,-5.6 -0.643,-0.636 -1.288,-1.272 -1.937,-1.899 -0.492,-0.473 -1.24,-0.555 -1.821,-0.203 -2.733,1.66 -5.196,3.699 -7.573,5.692 l -6.329,-5.58 c -0.527,-0.467 -1.308,-0.502 -1.875,-0.09 -1.765,1.282 -3.457,2.686 -5.094,4.045 -0.761,0.63 -1.52,1.26 -2.288,1.88 -1.009,-0.835 -2.024,-1.667 -3.04,-2.499 -1.54,-1.263 -3.081,-2.525 -4.6,-3.8 -0.277,-0.233 -0.62,-0.351 -0.963,-0.351" />
      <path
         id="path758"
         style="fill:#525d7d;fill-opacity:1;fill-rule:nonzero;stroke:none"
         d="m 662.475,41.7813 c -0.801,0 -1.466,0.6328 -1.498,1.4398 -0.901,22.6 -2.024,42.9961 -2.036,43.1988 -0.002,2.9903 0.057,5.9352 0.113,8.7832 0.057,2.8461 0.115,5.7879 0.115,8.6899 0,1.324 -0.011,2.651 -0.041,3.981 -0.019,0.828 0.637,1.514 1.465,1.534 0.81,-0.006 1.515,-0.638 1.535,-1.466 0.03,-1.353 0.041,-2.702 0.041,-4.049 0,-2.932 -0.058,-5.8891 -0.116,-8.75 -0.055,-2.8328 -0.114,-5.7629 -0.114,-8.6399 0.009,-0.1211 1.134,-20.5383 2.036,-43.1621 0.033,-0.8281 -0.611,-1.5258 -1.439,-1.559 -0.021,-7e-4 -0.04,-7e-4 -0.061,-7e-4" />
      <path
         id="path760"
         style="fill:#525d7d;fill-opacity:1;fill-rule:nonzero;stroke:none"
         d="m 680.811,36.6992 c -0.808,0 -1.475,0.643 -1.498,1.4559 -0.331,11.264 -0.832,22.7199 -1.316,33.798 -0.515,11.7668 -1.047,23.9348 -1.376,35.9139 -0.024,0.828 0.63,1.518 1.458,1.54 0.851,0.001 1.517,-0.644 1.54,-1.458 0.329,-11.9529 0.861,-24.1092 1.375,-35.865 0.485,-11.0891 0.986,-22.5559 1.317,-33.841 0.025,-0.8282 -0.627,-1.5188 -1.5,-1.5438" />
      <path
         id="path762"
         style="fill:#525d7d;fill-opacity:1;fill-rule:nonzero;stroke:none"
         d="m 696.293,42.1121 c -0.778,0 -1.436,0.6008 -1.495,1.3891 -0.061,0.8359 -0.12,1.6769 -0.17,2.5218 -0.35,5.8032 -0.43,13.3391 -0.514,21.318 -0.143,13.4141 -0.303,28.618 -1.774,40.38 -0.102,0.823 0.481,1.573 1.302,1.675 0.823,0.098 1.572,-0.479 1.675,-1.302 1.492,-11.9331 1.653,-27.2268 1.797,-40.721 0.084,-7.941 0.163,-15.441 0.508,-21.1691 0.05,-0.8309 0.107,-1.6578 0.169,-2.4809 0.061,-0.8261 -0.559,-1.5449 -1.385,-1.607 -0.038,-0.0031 -0.075,-0.0039 -0.113,-0.0039" />
    </g>
  </g>
</svg>
