<?xml version="1.0" encoding="UTF-8" standalone="no"?>
<svg
   xmlns:dc="http://purl.org/dc/elements/1.1/"
   xmlns:cc="http://creativecommons.org/ns#"
   xmlns:rdf="http://www.w3.org/1999/02/22-rdf-syntax-ns#"
   xmlns:svg="http://www.w3.org/2000/svg"
   xmlns="http://www.w3.org/2000/svg"
   version="1.1"
   id="svg8505"
   viewBox="0 0 189.69701 145.013"
   height="145.013"
   width="189.69701">
  <defs
     id="defs8507" />
  <metadata
     id="metadata8510">
    <rdf:RDF>
      <cc:Work
         rdf:about="">
        <dc:format>image/svg+xml</dc:format>
        <dc:type
           rdf:resource="http://purl.org/dc/dcmitype/StillImage" />
        <dc:title></dc:title>
      </cc:Work>
    </rdf:RDF>
  </metadata>
  <g
     transform="translate(0,-907.34916)"
     id="layer1">
    <g
       id="g8426"
       transform="matrix(1.25,0,0,-1.25,-515.135,1306.5821)">
      <path
         id="path188"
         style="fill:#e0dfe6;fill-opacity:1;fill-rule:nonzero;stroke:none"
         d="m 488.598,256.986 c -10.51,-0.858 -21.025,-1.594 -31.549,-2.248 -8.965,-0.558 -19.045,-0.129 -27.953,-2.131 -0.259,0.232 -0.563,0.455 -0.942,0.677 -0.442,0.261 -1.008,0.26 -1.45,0 -1.695,-0.992 -1.97,-1.854 -2.574,-3.716 -0.554,-1.707 0.648,-3.798 2.387,-4.204 9.59,-2.241 20.754,-0.887 30.532,-0.456 10.526,0.463 21.048,1.174 31.549,2.031 6.4,0.524 6.456,10.575 0,10.047" />
      <path
         id="path190"
         style="fill:#e0dfe6;fill-opacity:1;fill-rule:nonzero;stroke:none"
         d="m 519.609,302.665 c -1.078,4.303 -2.962,14.087 -8.814,13.941 -0.908,-0.022 -1.393,-0.806 -1.251,-1.641 1.013,-5.967 1.045,-12.279 1.547,-18.317 0.514,-6.193 -0.459,-13.82 1.692,-19.65 1.599,-4.335 7.66,-4.655 9.146,0 2.359,7.395 -0.47,18.277 -2.32,25.667" />
      <path
         id="path192"
         style="fill:#e0dfe6;fill-opacity:1;fill-rule:nonzero;stroke:none"
         d="m 489.852,230.996 c 1.453,1.29 1.56,4.214 0,5.481 -4.241,3.446 -9.428,2.294 -14.652,2.259 -5.957,-0.041 -11.915,-0.02 -17.871,0.064 -5.623,0.08 -11.25,0.191 -16.874,0.195 -5.207,0.004 -11.466,0.568 -15.912,-2.594 -0.997,-0.71 -1.486,-2.278 -0.414,-3.215 3.722,-3.255 8.598,-3.521 13.35,-3.925 6.263,-0.531 12.573,-0.729 18.857,-0.816 2.459,-0.034 4.918,-0.053 7.377,-0.063 -0.89,-2.877 -0.821,-6.364 -0.62,-8.926 0.05,-0.633 0.182,-1.195 0.381,-1.702 -6.525,-0.704 -13.384,-1.347 -19.288,-3.901 -1.675,-0.724 -1.048,-3.26 0.484,-3.698 7.092,-2.027 15.272,-1.025 22.537,-0.584 5.516,0.334 13.769,-0.466 18.118,3.541 2.151,1.983 1.593,5.841 -0.932,7.231 -2.034,1.119 -2.901,0.539 -4.229,-0.136 -0.096,2.234 -0.768,4.581 -1.123,6.727 -0.072,0.436 -0.141,0.884 -0.212,1.333 3.993,-0.113 7.989,0.036 11.023,2.729" />
      <path
         id="path194"
         style="fill:#e0dfe6;fill-opacity:1;fill-rule:nonzero;stroke:none"
         d="m 540.8,226.061 c -0.416,9.085 -1.019,18.166 -1.534,27.246 -0.239,4.227 -0.478,8.454 -0.718,12.681 -0.182,3.213 0.309,7.526 -1.524,10.371 -2.19,3.398 -9.414,6.123 -11.922,1.638 -1.24,-2.217 -0.374,-5.297 1.607,-6.788 0.364,-0.274 0.741,-0.544 1.142,-0.771 0.007,-0.161 0.013,-0.338 0.013,-0.548 0.008,-2.589 0.3,-5.219 0.449,-7.803 0.505,-8.78 1.01,-17.558 1.516,-26.337 0.294,-5.12 0.782,-10.283 0.646,-15.415 -0.026,-0.951 -0.054,-1.906 -0.138,-2.854 -0.071,-0.801 -0.594,-1.977 -0.321,-2.076 -1.851,-0.739 -5.807,-0.651 -7.414,-0.86 -4.965,-0.645 -9.943,-1.257 -14.922,-1.774 -3.579,-0.371 -7.775,0.383 -11.145,-0.77 -0.999,-0.342 -1.731,-1.374 -1.397,-2.46 1.89,-6.136 10.778,-6.206 16.026,-6.159 4.134,0.036 8.282,0.336 12.388,0.802 3.73,0.423 8.194,0.424 11.693,1.838 7.205,2.914 5.839,13.832 5.555,20.039" />
      <path
         id="path196"
         style="fill:#e0dfe6;fill-opacity:1;fill-rule:nonzero;stroke:none"
         d="m 520.903,260.255 c -5.66,-0.309 -12.921,-0.198 -17.887,-3.242 -3.24,-1.985 -2.163,-7.938 2.059,-7.602 5.23,0.416 10.565,-0.228 15.828,0.023 6.94,0.33 6.962,11.201 0,10.821" />
      <path
         id="path198"
         style="fill:#e0dfe6;fill-opacity:1;fill-rule:nonzero;stroke:none"
         d="m 520.505,233.827 c -1.959,0.777 -4.08,-0.195 -5.954,-0.838 -1.553,-0.532 -3.434,-1.064 -4.312,-2.552 -0.355,-0.6 -0.365,-1.396 0,-1.995 1.068,-1.758 3.343,-2.128 5.239,-2.304 2.31,-0.214 4.962,-0.208 6.623,1.644 1.945,2.169 0.964,5.028 -1.596,6.045" />
      <path
         id="path200"
         style="fill:#e0dfe6;fill-opacity:1;fill-rule:nonzero;stroke:none"
         d="m 521.547,239.81 c -1.263,0.599 -2.235,0.443 -3.493,0.004 -0.827,-0.288 -1.104,-0.296 -2.008,-0.212 -0.992,0.093 -1.972,-0.782 -2.222,-1.692 -0.246,-0.895 0.136,-2.211 1.059,-2.603 2.494,-1.057 6.81,-1.706 7.804,1.702 0.285,0.975 -0.171,2.342 -1.14,2.801" />
      <path
         id="path202"
         style="fill:#e0dfe6;fill-opacity:1;fill-rule:nonzero;stroke:none"
         d="m 557.191,250.314 c -1.185,-0.817 -1.804,-1.63 -2.707,-2.693 -0.184,-0.215 -1.122,-0.983 -0.948,-0.89 -0.272,-0.144 -0.674,-0.195 -1.033,-0.179 -0.473,0.022 -0.675,0.026 -1.37,0.251 -1.878,0.607 -3.236,-0.983 -3.456,-2.633 -0.516,-3.871 3.827,-6.343 7.182,-6.315 4.54,0.039 8.746,4.214 9,8.633 0.186,3.229 -3.954,5.696 -6.668,3.826" />
      <path
         id="path204"
         style="fill:#e0dfe6;fill-opacity:1;fill-rule:nonzero;stroke:none"
         d="m 537.274,296.264 c 0.024,0.057 0.053,0.115 0.08,0.172 0.159,0.377 0.238,0.579 -0.08,-0.172" />
      <path
         id="path206"
         style="fill:#e0dfe6;fill-opacity:1;fill-rule:nonzero;stroke:none"
         d="m 547.417,300.863 c -0.453,2.557 -3.712,4.228 -6.091,3.458 -2.55,-0.825 -4.201,-3.417 -3.459,-6.091 0.009,-0.026 0.013,-0.054 0.021,-0.081 -0.001,-0.077 0.002,-0.153 -0.004,-0.23 -0.003,0.006 -0.016,-0.029 -0.052,-0.186 -0.044,-0.12 -0.076,-0.203 -0.098,-0.26 0.039,0.098 0.096,0.235 0.131,0.292 -0.01,-0.072 -0.019,-0.144 -0.029,-0.217 -0.106,-0.371 -0.311,-0.746 -0.482,-1.112 -0.168,-0.398 -0.424,-0.99 -0.396,-0.869 -0.419,-1.841 0.246,-3.39 1.751,-4.479 2.701,-1.954 6.07,0.598 7.575,2.765 1.454,2.093 1.562,4.582 1.133,7.01" />
      <path
         id="path208"
         style="fill:#e0dfe6;fill-opacity:1;fill-rule:nonzero;stroke:none"
         d="m 537.734,297.473 c -0.038,-0.096 -0.056,-0.146 0,0 l 0,0" />
      <path
         id="path210"
         style="fill:#e0dfe6;fill-opacity:1;fill-rule:nonzero;stroke:none"
         d="m 563.061,268.981 c -0.614,4.755 -1.358,9.446 -3.682,13.695 -0.715,1.308 -3.138,1.168 -3.398,-0.445 -0.759,-4.706 -0.36,-9.418 -0.389,-14.167 -0.029,-4.638 -1.017,-9.372 0.89,-13.675 1.059,-2.391 4.82,-2.116 5.963,0 2.336,4.326 1.226,9.863 0.616,14.592" />
      <path
         id="path212"
         style="fill:#e0dfe6;fill-opacity:1;fill-rule:nonzero;stroke:none"
         d="m 499.409,298.781 c -4.748,1.89 -11.458,0.329 -16.512,0.108 -5.884,-0.258 -11.77,-0.449 -17.658,-0.571 -5.561,-0.116 -11.122,-0.138 -16.684,-0.17 -5.707,-0.032 -11.867,0.488 -17.377,-1.193 -2.556,-0.78 -2.394,-4.186 0,-5.033 5.156,-1.823 10.989,-1.537 16.396,-1.608 6.213,-0.082 12.435,0.021 18.647,0.147 5.887,0.119 11.773,0.306 17.656,0.561 5.207,0.225 11.632,-0.525 16.278,2.047 2.567,1.421 1.597,4.779 -0.746,5.712" />
      <path
         id="path214"
         style="fill:#e0dfe6;fill-opacity:1;fill-rule:nonzero;stroke:none"
         d="m 447.977,277.742 c -2.894,2.325 -5.843,1.66 -9.29,1.155 -3.473,-0.508 -6.997,-0.902 -10.142,-2.552 -1.798,-0.944 -1.193,-3.509 0.533,-4.084 3.195,-1.066 6.666,-0.905 9.994,-0.854 3.191,0.049 6.604,-0.264 8.905,2.313 0.937,1.051 1.252,3.016 0,4.022" />
      <path
         id="path216"
         style="fill:#e0dfe6;fill-opacity:1;fill-rule:nonzero;stroke:none"
         d="m 489.499,279.205 c -4.469,2.15 -9.694,1.239 -14.556,1.08 -5.029,-0.164 -10.757,0.117 -15.494,-1.735 -2.13,-0.833 -2.137,-3.521 0,-4.355 4.734,-1.846 10.479,-1.562 15.494,-1.721 4.864,-0.154 10.089,-1.063 14.556,1.092 2.132,1.028 2.135,4.612 0,5.639" />
      <path
         id="path218"
         style="fill:#525d7d;fill-opacity:1;fill-rule:nonzero;stroke:none"
         d="m 420.11,235.305 c -3.83,0 -6.915,4.077 -6.915,7.452 l -0.951,66.362 c -0.092,0.42 -0.136,0.85 -0.136,1.306 0,4.99 3.129,8.104 8.167,8.128 10.917,0.049 22.045,0.232 32.807,0.409 12.663,0.208 25.757,0.424 38.627,0.424 4.372,0 8.646,-0.026 12.702,-0.077 4.288,-0.054 7.962,-4.002 8.022,-8.62 0.041,-3.183 0.055,-6.362 0.068,-9.54 0.034,-8.416 0.069,-17.119 0.665,-25.734 0.057,-0.826 -0.567,-1.543 -1.393,-1.6 -0.816,-0.067 -1.542,0.566 -1.6,1.393 -0.603,8.713 -0.638,17.465 -0.672,25.928 -0.013,3.169 -0.027,6.339 -0.068,9.514 -0.039,2.981 -2.403,5.625 -5.06,5.659 -4.043,0.051 -8.304,0.077 -12.664,0.077 -12.845,0 -25.927,-0.215 -38.579,-0.423 -10.769,-0.178 -21.906,-0.361 -32.841,-0.41 -3.438,-0.016 -5.181,-1.742 -5.181,-5.128 0,-0.275 0.028,-0.523 0.088,-0.759 0.028,-0.112 0.043,-0.228 0.045,-0.343 l 0.954,-66.545 c 0,-1.965 1.898,-4.473 3.915,-4.473 l 0.104,0.002 c 4.555,0.204 8.09,0.368 10.915,0.498 10.353,0.477 11.199,0.516 17.544,0.516 4.451,0 8.977,-0.078 13.355,-0.153 4.36,-0.075 8.868,-0.153 13.281,-0.153 3.86,0 7.276,0.059 10.443,0.181 0.839,0.031 1.524,-0.613 1.556,-1.441 0.031,-0.828 -0.613,-1.525 -1.441,-1.557 -3.206,-0.123 -6.659,-0.183 -10.558,-0.183 -4.439,0 -8.96,0.079 -13.332,0.154 -4.365,0.074 -8.88,0.152 -13.304,0.152 -6.276,0 -6.905,-0.029 -17.407,-0.512 -2.824,-0.131 -6.361,-0.295 -10.911,-0.498 -0.078,-0.004 -0.161,-0.006 -0.245,-0.006" />
      <path
         id="path220"
         style="fill:#525d7d;fill-opacity:1;fill-rule:nonzero;stroke:none"
         d="m 447.423,213.094 c -0.019,0 -0.037,0 -0.057,0.001 -0.828,0.031 -1.474,0.727 -1.443,1.555 0.055,1.44 0.115,2.876 0.174,4.309 0.191,4.563 0.387,9.281 0.387,13.904 0,1.725 -0.026,3.33 -0.08,4.906 -0.028,0.829 0.62,1.523 1.447,1.551 0.829,0.036 1.523,-0.62 1.551,-1.447 0.056,-1.612 0.082,-3.25 0.082,-5.01 0,-4.685 -0.198,-9.435 -0.389,-14.029 -0.059,-1.429 -0.12,-2.861 -0.174,-4.297 -0.03,-0.809 -0.695,-1.443 -1.498,-1.443" />
      <path
         id="path222"
         style="fill:#525d7d;fill-opacity:1;fill-rule:nonzero;stroke:none"
         d="m 470.407,213.571 c -0.798,0 -1.461,0.628 -1.497,1.433 -0.067,1.494 -0.101,3.03 -0.101,4.696 0,4.519 0.25,9.119 0.493,13.568 0.078,1.45 0.158,2.898 0.228,4.342 0.04,0.828 0.725,1.465 1.571,1.425 0.828,-0.04 1.465,-0.743 1.425,-1.571 -0.07,-1.45 -0.149,-2.903 -0.228,-4.359 -0.241,-4.409 -0.489,-8.967 -0.489,-13.405 0,-1.621 0.032,-3.112 0.097,-4.561 0.038,-0.828 -0.602,-1.529 -1.431,-1.566 -0.022,-0.001 -0.046,-0.002 -0.068,-0.002" />
      <path
         id="path224"
         style="fill:#525d7d;fill-opacity:1;fill-rule:nonzero;stroke:none"
         d="m 437.167,212.89 c -0.812,0 -1.479,0.648 -1.499,1.464 -0.02,0.828 0.634,1.516 1.464,1.536 4.625,0.113 9.252,0.188 13.881,0.263 9.066,0.148 18.441,0.3 27.643,0.748 0.859,0.035 1.531,-0.597 1.571,-1.424 0.04,-0.829 -0.597,-1.532 -1.425,-1.572 -9.252,-0.451 -18.651,-0.603 -27.741,-0.751 -4.62,-0.075 -9.239,-0.15 -13.894,-0.264" />
      <path
         id="path226"
         style="fill:#525d7d;fill-opacity:1;fill-rule:nonzero;stroke:none"
         d="m 496.874,207.781 c -2.695,0 -5.406,2.368 -6.304,5.509 -0.035,0.123 -0.055,0.251 -0.057,0.379 l -1.222,55.738 c -10e-4,0.066 0.002,0.133 0.009,0.199 0.425,3.828 3.33,6.875 6.611,6.938 9.437,0.176 20.593,0.369 31.773,0.447 0.058,0.002 0.142,0.015 0.232,0.025 0.246,0.029 0.516,0.057 0.755,0.057 2.09,0 6.266,-3.588 6.266,-8.299 l 0,-54.384 c 0,-0.161 -0.026,-0.321 -0.077,-0.474 -0.864,-2.593 -3.036,-5.412 -5.763,-5.475 -4.699,-0.108 -9.411,-0.195 -14.122,-0.281 -5.901,-0.108 -12.003,-0.221 -17.978,-0.377 -0.013,-10e-4 -0.111,-0.002 -0.123,-0.002 z m -3.367,6.161 c 0.559,-1.703 2.095,-3.161 3.367,-3.161 6.031,0.157 12.139,0.27 18.047,0.378 4.706,0.087 9.412,0.173 14.107,0.282 0.95,0.022 2.274,1.495 2.909,3.205 l 0,54.128 c 0,3.039 -2.584,5.061 -3.339,5.297 -0.108,-0.006 -0.224,-0.021 -0.331,-0.034 -0.215,-0.026 -0.413,-0.045 -0.559,-0.046 -11.168,-0.078 -22.312,-0.27 -31.74,-0.447 -1.752,-0.033 -3.384,-1.898 -3.675,-4.176 l 1.214,-55.426" />
      <path
         id="path228"
         style="fill:#525d7d;fill-opacity:1;fill-rule:nonzero;stroke:none"
         d="m 552.287,242.413 c -3.808,0 -6.653,3.493 -6.653,6.617 0,2.966 2.054,5.735 4.883,6.585 0.813,0.243 1.697,0.469 2.669,0.469 3.769,0 5.777,-3.872 5.777,-6.667 0,-1.87 -1.583,-7.004 -6.676,-7.004 z m -0.907,10.329 c -1.565,-0.471 -2.746,-2.066 -2.746,-3.712 0,-1.44 1.457,-3.617 3.653,-3.617 3.286,0 3.676,3.964 3.676,4.004 0,1.044 -0.827,3.667 -2.777,3.667 -0.472,0 -0.996,-0.099 -1.806,-0.342" />
      <path
         id="path230"
         style="fill:#525d7d;fill-opacity:1;fill-rule:nonzero;stroke:none"
         d="m 537.327,295.736 c -2.9,0 -6.132,2.792 -6.132,6.798 0,1.511 0.485,2.934 1.404,4.116 0.693,0.889 1.428,1.467 2.318,1.823 0.608,0.243 1.223,0.367 1.828,0.367 2.705,0 6.137,-3.334 6.137,-7.081 0,-3.321 -2.493,-6.023 -5.555,-6.023 z m -2.359,9.071 c -0.505,-0.65 -0.773,-1.436 -0.773,-2.273 0,-2.104 1.713,-3.798 3.132,-3.798 1.228,0 2.555,1.155 2.555,3.023 0,2.15 -2.131,4.081 -3.137,4.081 -0.221,0 -0.462,-0.052 -0.715,-0.153 -0.38,-0.152 -0.707,-0.423 -1.062,-0.88" />
      <path
         id="path232"
         style="fill:#525d7d;fill-opacity:1;fill-rule:nonzero;stroke:none"
         d="m 554.398,254.225 c -0.203,0 -0.41,0.041 -0.608,0.129 -0.757,0.337 -1.098,1.224 -0.762,1.981 1.278,2.876 2.055,13.421 2.055,17.291 0,17.788 -12.854,23.997 -13.855,24.431 -0.08,-0.005 -0.16,-0.012 -0.234,-0.019 -0.179,-0.015 -0.34,-0.025 -0.463,-0.025 -0.828,0 -1.5,0.671 -1.5,1.5 0,0.828 0.671,1.498 1.498,1.5 0.06,0.001 0.134,0.008 0.216,0.015 0.199,0.017 0.422,0.033 0.63,0.033 2.289,0 16.708,-8.254 16.708,-27.435 0,-2.708 -0.604,-14.664 -2.313,-18.51 -0.249,-0.559 -0.797,-0.891 -1.372,-0.891" />
      <path
         id="path234"
         style="fill:#525d7d;fill-opacity:1;fill-rule:nonzero;stroke:none"
         d="m 502.901,251.206 c -1.517,0 -2.927,0.025 -4.312,0.076 -0.805,0.03 -1.444,0.692 -1.444,1.499 l 0,12.953 c 0,0.711 0.5,1.325 1.196,1.469 7.267,1.504 14.723,1.55 21.934,1.595 1.467,0.009 2.931,0.017 4.39,0.039 0.857,-0.022 1.503,-0.645 1.521,-1.469 0.039,-1.9 0.112,-3.8 0.185,-5.7 0.104,-2.74 0.212,-5.574 0.217,-8.375 0.001,-0.4 -0.159,-0.784 -0.443,-1.066 -0.284,-0.283 -0.657,-0.445 -1.068,-0.437 l -0.404,0.001 c -3.627,0 -7.297,-0.148 -10.846,-0.292 -3.57,-0.144 -7.26,-0.293 -10.926,-0.293 z m -2.756,3.03 c 0.889,-0.02 1.801,-0.03 2.756,-0.03 3.606,0 7.266,0.147 10.805,0.291 3.223,0.13 6.547,0.264 9.87,0.29 -0.031,2.261 -0.118,4.545 -0.203,6.767 -0.055,1.421 -0.109,2.843 -0.15,4.265 -0.974,-0.01 -1.951,-0.015 -2.929,-0.021 -6.662,-0.042 -13.537,-0.084 -20.149,-1.299 l 0,-10.263" />
      <path
         id="path236"
         style="fill:#525d7d;fill-opacity:1;fill-rule:nonzero;stroke:none"
         d="m 528.052,217.225 c -4.081,0 -8.218,0.113 -12.219,0.221 -3.983,0.109 -8.1,0.22 -12.14,0.22 -4.23,0 -7.944,-0.124 -11.354,-0.381 -0.805,-0.066 -1.545,0.557 -1.608,1.384 -0.061,0.826 0.558,1.546 1.384,1.608 3.484,0.262 7.271,0.389 11.578,0.389 4.08,0 8.219,-0.112 12.221,-0.221 5.517,-0.15 11.218,-0.306 16.81,-0.164 0.828,0.02 1.517,-0.635 1.537,-1.463 0.021,-0.828 -0.634,-1.515 -1.463,-1.537 -1.582,-0.039 -3.164,-0.056 -4.746,-0.056" />
      <path
         id="path238"
         style="fill:#525d7d;fill-opacity:1;fill-rule:nonzero;stroke:none"
         d="m 521.953,241.94 -19.592,0 c -0.828,0 -1.5,0.672 -1.5,1.5 0,0.828 0.672,1.5 1.5,1.5 l 19.592,0 c 0.828,0 1.5,-0.672 1.5,-1.5 0,-0.828 -0.672,-1.5 -1.5,-1.5" />
      <path
         id="path240"
         style="fill:#525d7d;fill-opacity:1;fill-rule:nonzero;stroke:none"
         d="m 503.713,234.509 c -0.829,0 -1.5,0.671 -1.5,1.5 0,0.828 0.671,1.5 1.5,1.5 2.544,0 5.089,0.11 7.548,0.216 2.461,0.106 5.005,0.216 7.551,0.216 1.38,0 2.654,-0.031 3.895,-0.096 0.828,-0.044 1.463,-0.749 1.42,-1.577 -0.044,-0.827 -0.759,-1.442 -1.577,-1.42 -3.41,0.18 -7.431,0.041 -11.159,-0.121 -2.492,-0.107 -5.068,-0.218 -7.678,-0.218" />
      <path
         id="path242"
         style="fill:#525d7d;fill-opacity:1;fill-rule:nonzero;stroke:none"
         d="m 504.725,228.091 c -0.828,0 -1.5,0.672 -1.5,1.5 0,0.828 0.672,1.5 1.5,1.5 6.073,0 11.827,0.303 17.92,0.625 l 0.917,0.048 c 0.839,0.041 1.533,-0.592 1.577,-1.418 0.043,-0.828 -0.591,-1.533 -1.419,-1.578 l -0.916,-0.047 c -6.134,-0.325 -11.927,-0.63 -18.079,-0.63" />
      <path
         id="path244"
         style="fill:#525d7d;fill-opacity:1;fill-rule:nonzero;stroke:none"
         d="m 496.787,293.365 c -0.735,0 -1.376,0.54 -1.483,1.288 -0.381,2.659 -0.495,5.351 -0.529,7.769 -2.541,0.014 -5.082,0.037 -7.623,0.059 -4.389,0.038 -8.777,0.078 -13.165,0.078 -9.679,0 -17.028,-0.254 -24.136,-0.5 -6.284,-0.216 -12.219,-0.421 -19.126,-0.421 -0.617,0 -1.235,0.001 -1.853,0.005 l 0,-4.481 c 9.61,0.316 19.36,0.352 28.805,0.385 11.143,0.04 22.666,0.081 33.948,0.585 0.023,0.003 0.046,0.003 0.068,0.003 0.798,0 1.462,-0.628 1.497,-1.433 0.037,-0.828 -0.603,-1.529 -1.431,-1.566 -11.344,-0.508 -22.898,-0.549 -34.071,-0.589 -9.931,-0.036 -20.199,-0.072 -30.261,-0.437 -0.437,-0.015 -0.804,0.138 -1.096,0.419 -0.293,0.283 -0.459,0.673 -0.459,1.08 l 0,7.548 c 0,0.402 0.16,0.785 0.446,1.067 0.28,0.278 0.659,0.433 1.054,0.433 1.132,-0.014 2.244,-0.019 3.353,-0.019 6.855,0 12.765,0.203 19.023,0.419 7.132,0.247 14.509,0.502 24.239,0.502 4.397,0 8.794,-0.04 13.192,-0.078 3.03,-0.026 6.061,-0.053 9.091,-0.067 0.825,-0.004 1.491,-0.671 1.493,-1.495 0.009,-2.667 0.076,-5.804 0.511,-8.842 0.117,-0.82 -0.453,-1.579 -1.273,-1.697 -0.072,-0.01 -0.144,-0.015 -0.214,-0.015" />
      <path
         id="path246"
         style="fill:#525d7d;fill-opacity:1;fill-rule:nonzero;stroke:none"
         d="m 443.677,275.201 c -1.209,0.03 -2.379,0.071 -3.551,0.113 -2.091,0.075 -4.254,0.152 -6.367,0.152 -1.481,0 -2.812,-0.036 -4.067,-0.114 -0.423,-0.03 -0.837,0.128 -1.14,0.424 -0.303,0.296 -0.466,0.707 -0.451,1.13 l 0.049,1.21 c 0.056,1.368 0.114,2.783 0.114,4.152 0,0.431 -0.005,0.862 -0.018,1.291 -0.026,0.815 0.604,1.5 1.418,1.544 2.829,0.154 5.699,0.264 8.475,0.37 1.767,0.069 3.534,0.137 5.299,0.215 0.397,0.019 0.797,-0.127 1.093,-0.403 0.295,-0.275 0.466,-0.659 0.474,-1.062 0.018,-0.855 0.049,-1.709 0.08,-2.564 0.049,-1.354 0.098,-2.754 0.098,-4.145 0,-0.278 -0.002,-0.556 -0.006,-0.834 -0.006,-0.401 -0.172,-0.783 -0.461,-1.06 -0.279,-0.27 -0.652,-0.419 -1.039,-0.419 z m -9.918,3.265 c 2.166,0 4.356,-0.077 6.473,-0.154 0.65,-0.022 1.298,-0.046 1.947,-0.067 -0.013,1.103 -0.053,2.221 -0.092,3.308 -0.013,0.357 -0.026,0.715 -0.037,1.073 -1.266,-0.053 -2.531,-0.101 -3.795,-0.149 -2.293,-0.089 -4.652,-0.18 -6.991,-0.295 -0.001,-1.254 -0.048,-2.522 -0.099,-3.757 0.822,0.028 1.681,0.041 2.594,0.041" />
      <path
         id="path248"
         style="fill:#525d7d;fill-opacity:1;fill-rule:nonzero;stroke:none"
         d="m 455.379,276.503 c -0.772,0 -1.421,0.588 -1.493,1.361 -0.219,2.352 -0.331,4.727 -0.439,7.024 l -0.027,0.589 c -0.038,0.803 0.562,1.493 1.363,1.566 5.646,0.51 11.064,0.578 15.621,0.578 2.029,0 4.058,-0.017 6.085,-0.032 2.022,-0.017 4.043,-0.032 6.066,-0.032 4.452,0 9.743,0.065 15.237,0.553 0.818,0.068 1.553,-0.535 1.627,-1.361 0.073,-0.826 -0.537,-1.554 -1.362,-1.627 -5.643,-0.501 -11.249,-0.565 -15.502,-0.565 -2.031,0 -4.06,0.016 -6.089,0.032 -2.021,0.016 -4.041,0.032 -6.062,0.032 -4.1,0 -8.906,-0.056 -13.92,-0.446 0.073,-1.53 0.154,-3.087 0.271,-4.631 9.754,0.282 19.336,0.526 29.054,0.526 0.829,0 1.5,-0.672 1.5,-1.5 0,-0.828 -0.671,-1.5 -1.5,-1.5 -10.148,0 -20.164,-0.268 -30.43,-0.567" />
      <path
         id="path250"
         style="fill:#525d7d;fill-opacity:1;fill-rule:nonzero;stroke:none"
         d="m 430.085,257.143 c -0.4,0 -0.783,0.159 -1.064,0.442 -0.282,0.284 -0.439,0.668 -0.436,1.068 0.02,2.942 0.079,5.36 0.183,7.61 0.034,0.751 0.621,1.361 1.37,1.424 3.175,0.272 6.407,0.332 9.533,0.391 2.864,0.054 5.826,0.109 8.694,0.329 0.406,0.027 0.801,-0.102 1.103,-0.369 0.304,-0.266 0.487,-0.643 0.509,-1.046 0.071,-1.319 0.123,-2.616 0.175,-3.915 0.056,-1.39 0.111,-2.779 0.191,-4.193 0.023,-0.407 -0.121,-0.805 -0.397,-1.104 -0.277,-0.299 -0.664,-0.471 -1.071,-0.48 -6.53,-0.129 -12.89,-0.152 -18.79,-0.157 z m 1.625,7.655 c -0.054,-1.429 -0.09,-2.953 -0.111,-4.654 4.978,0.008 10.259,0.033 15.669,0.126 -0.042,0.901 -0.078,1.794 -0.113,2.688 -0.032,0.783 -0.064,1.566 -0.099,2.354 -2.454,-0.141 -4.926,-0.188 -7.329,-0.233 -2.639,-0.05 -5.357,-0.101 -8.017,-0.281" />
      <path
         id="path252"
         style="fill:#525d7d;fill-opacity:1;fill-rule:nonzero;stroke:none"
         d="m 462.559,259.463 c -0.78,0 -1.437,0.602 -1.495,1.39 -0.182,2.474 -0.289,4.381 -0.348,6.183 -0.013,0.406 0.139,0.8 0.422,1.092 0.283,0.292 0.671,0.457 1.078,0.457 l 11.966,0 c 0.801,0 1.46,-0.629 1.498,-1.429 0.064,-1.32 0.316,-2.673 0.56,-3.98 0.105,-0.569 0.211,-1.134 0.303,-1.699 0.069,-0.426 -0.049,-0.862 -0.325,-1.195 -0.275,-0.333 -0.68,-0.532 -1.112,-0.544 -1.671,-0.049 -3.324,-0.066 -4.972,-0.085 -2.453,-0.026 -4.988,-0.054 -7.493,-0.188 -0.027,-10e-4 -0.055,-0.002 -0.082,-0.002 z m 1.218,6.122 c 0.043,-0.939 0.102,-1.938 0.177,-3.057 2.075,0.081 4.139,0.104 6.147,0.125 1.056,0.012 2.113,0.024 3.177,0.043 -0.176,0.939 -0.353,1.899 -0.472,2.889 l -9.029,0" />
      <path
         id="path254"
         style="fill:#525d7d;fill-opacity:1;fill-rule:nonzero;stroke:none"
         d="m 431.086,247.682 c -0.784,0 -1.444,0.609 -1.495,1.403 -0.054,0.827 0.572,1.541 1.399,1.595 7.785,0.507 15.693,0.851 23.341,1.183 7.631,0.332 15.521,0.675 23.274,1.181 0.816,0.052 1.541,-0.574 1.595,-1.4 0.054,-0.827 -0.573,-1.541 -1.4,-1.594 -7.785,-0.508 -15.692,-0.852 -23.339,-1.184 -7.631,-0.332 -15.523,-0.675 -23.276,-1.18 -0.033,-0.002 -0.066,-0.004 -0.099,-0.004" />
    </g>
  </g>
</svg>
