<?xml version="1.0" encoding="UTF-8" standalone="no"?>
<svg
   xmlns:dc="http://purl.org/dc/elements/1.1/"
   xmlns:cc="http://creativecommons.org/ns#"
   xmlns:rdf="http://www.w3.org/1999/02/22-rdf-syntax-ns#"
   xmlns:svg="http://www.w3.org/2000/svg"
   xmlns="http://www.w3.org/2000/svg"
   version="1.1"
   id="svg7677"
   viewBox="0 0 166.37601 158.271"
   height="158.271"
   width="166.37601">
  <defs
     id="defs7679" />
  <metadata
     id="metadata7682">
    <rdf:RDF>
      <cc:Work
         rdf:about="">
        <dc:format>image/svg+xml</dc:format>
        <dc:type
           rdf:resource="http://purl.org/dc/dcmitype/StillImage" />
        <dc:title></dc:title>
      </cc:Work>
    </rdf:RDF>
  </metadata>
  <g
     transform="translate(0,-894.09116)"
     id="layer1">
    <g
       id="g7604"
       transform="matrix(1.25,0,0,-1.25,-762.54245,1310.8046)">
      <path
         id="path140"
         style="fill:#e0dfe6;fill-opacity:1;fill-rule:nonzero;stroke:none"
         d="m 677.601,270.179 c -0.216,0.165 -0.432,0.33 -0.646,0.495 -1.238,0.947 -3.586,0.555 -4.582,-0.591 -0.723,-0.832 -1.393,-2.703 -2.311,-3.12 -0.959,-0.436 -4.035,0.028 -4.97,0.061 -4.617,0.165 -9.238,0.226 -13.857,0.228 -8.05,0.003 -17.422,0.337 -24.846,-3.179 -1.845,-0.874 -1.044,-3.349 0.515,-3.941 9.426,-3.583 21.339,-2.056 31.261,-2.396 8.005,-0.274 18.387,-2.465 21.633,7.044 0.746,2.188 -0.563,4.149 -2.197,5.399" />
      <path
         id="path142"
         style="fill:#e0dfe6;fill-opacity:1;fill-rule:nonzero;stroke:none"
         d="m 739.163,230.447 c -0.283,1.42 -0.722,2.802 -1.302,4.085 -0.894,1.975 -2.008,3.85 -3.608,5.329 -2.003,1.853 -4.162,2.215 -6.487,3.445 -1.365,0.723 -3.08,-1.194 -1.742,-2.256 2.257,-1.793 3.583,-6.443 4.163,-9.154 0.526,-2.461 0.278,-4.666 0.003,-6.989 -0.13,-0.156 -0.261,-0.313 -0.39,-0.471 -2.262,-2.015 -4.696,-3.733 -7.999,-4.413 -5.288,-1.089 -9.778,1.122 -14.415,3.116 -1.207,0.998 -2.39,2.024 -3.577,3.028 -2.675,2.264 -4.985,4.467 -8.62,4.698 -0.568,0.036 -1.249,-0.459 -1.356,-1.032 -0.927,-4.978 2.754,-9.054 5.995,-12.429 4.124,-4.294 9.208,-8.787 15.139,-10.19 5.696,-1.348 11.504,0.372 16.143,3.775 4.314,3.164 9.791,8.754 10.78,14.166 0.398,2.174 -0.873,4.452 -2.727,5.292" />
      <path
         id="path144"
         style="fill:#e0dfe6;fill-opacity:1;fill-rule:nonzero;stroke:none"
         d="m 736.96,281.068 c -16.227,-0.167 -33.588,-9.103 -46.516,-18.409 -6.272,-4.516 -11.585,-9.901 -15.286,-16.734 -3.895,-7.192 -4.866,-13.876 -4.279,-21.875 0.062,-0.848 1.438,-1.18 1.596,-0.216 2.363,14.362 10.203,27.054 21.773,35.731 12.128,9.096 26.085,16.788 41.765,14.506 5.218,-0.76 6.032,7.05 0.947,6.997" />
      <path
         id="path146"
         style="fill:#e0dfe6;fill-opacity:1;fill-rule:nonzero;stroke:none"
         d="m 706.729,262.37 c -3.619,3.546 -10.15,-1.049 -13.172,-3.379 -3.04,-2.344 -7.298,-6.673 -6.337,-10.92 0.117,-0.519 0.649,-0.699 1.114,-0.633 2.275,0.326 4.034,1.948 5.904,3.164 2.194,1.425 4.471,2.749 6.921,3.677 3.008,1.14 9.651,4.092 5.57,8.091" />
      <path
         id="path148"
         style="fill:#e0dfe6;fill-opacity:1;fill-rule:nonzero;stroke:none"
         d="m 680.512,254.524 c -0.391,0.8 -1.022,1.247 -1.736,1.737 -1.306,0.894 -3.583,0.927 -4.886,0 -2.82,-2.011 -5.011,-4.576 -6.848,-7.515 -1.035,-1.657 -1.864,-3.434 -2.605,-5.238 -0.279,-0.682 -1.062,-4.148 -1.435,-4.438 -0.857,-0.666 -4.192,-0.737 -5.525,-0.933 -2.488,-0.363 -4.977,-0.707 -7.473,-1.021 -4.752,-0.599 -9.478,-1.472 -14.245,-1.903 -2.997,-0.272 -3.109,-4.703 0,-4.75 0.554,-0.009 1.107,-0.031 1.659,-0.046 -1.076,-0.867 -2.162,-1.513 -3.082,-1.391 -1.794,0.236 -3.805,3.431 -5.807,4.158 -5.643,2.049 -11.844,-1.981 -15.484,-6.038 -0.96,-1.069 -0.215,-2.442 1.082,-2.614 3.294,-0.436 5.596,1.815 8.699,2.018 3.805,0.249 4.79,-4.23 7.809,-5.831 2.568,-1.363 5.49,-1.271 8.139,-0.242 0.738,0.287 4.543,2.129 6.435,3.608 0.229,-0.217 0.469,-0.419 0.73,-0.601 1.207,-1.029 2.565,-1.812 4.062,-2.344 2.904,-1.03 6.04,-1.142 9.045,-0.499 4.627,0.993 14.875,5.634 12.556,11.937 -0.308,0.835 -0.683,1.466 -1.106,1.942 0.534,0.944 0.983,2 1.476,3.116 1.912,4.325 4.912,7.379 7.783,11.023 1.443,1.83 1.799,3.737 0.757,5.865" />
      <path
         id="path150"
         style="fill:#e0dfe6;fill-opacity:1;fill-rule:nonzero;stroke:none"
         d="m 741.058,301.076 c -0.04,5.428 0.48,11.259 -1.069,16.53 -2.306,7.847 -9.757,14.413 -18.248,12.46 -1.732,-0.398 -1.698,-2.596 -0.455,-3.484 2.709,-1.937 5.367,-4.136 7.095,-7.022 0.861,-1.437 1.305,-2.924 1.543,-4.449 -0.25,0.072 -0.508,0.127 -0.779,0.154 -9.643,0.981 -20.029,-0.477 -29.738,-0.754 -9.585,-0.272 -19.17,-0.519 -28.758,-0.695 -9.586,-0.176 -19.178,-0.185 -28.763,-0.422 -7.925,-0.196 -19.366,1.018 -26.229,-3.535 -0.57,-0.377 -0.556,-1.131 0,-1.511 6.843,-4.684 18.26,-3.516 26.229,-3.666 9.913,-0.186 19.842,-0.011 29.755,0.114 9.917,0.124 19.834,0.302 29.748,0.574 9.437,0.259 19.457,-0.336 28.75,1.339 -0.114,-8.162 -0.523,-16.36 -0.164,-24.511 0.312,-7.089 10.638,-7.077 11.006,0 0.326,6.274 0.124,12.598 0.077,18.878" />
      <path
         id="path152"
         style="fill:#e0dfe6;fill-opacity:1;fill-rule:nonzero;stroke:none"
         d="m 697.547,276.779 c -1.636,0.15 -3.255,0.179 -4.839,0.076 -1.274,1.303 -3.218,2.05 -4.984,1.383 -0.438,-0.161 -0.868,-0.346 -1.296,-0.533 0.206,0.088 0.112,0.062 -0.295,-0.081 -0.22,-0.066 -0.446,-0.113 -0.672,-0.158 -0.459,-0.061 -0.917,-0.122 -1.375,-0.185 -1.072,-0.23 -1.669,-0.337 -2.669,-0.848 -1.332,-0.678 -2.278,-2.751 -1.71,-4.2 0.073,-0.186 0.168,-0.347 0.252,-0.519 -0.44,-0.408 -0.874,-0.832 -1.288,-1.295 -1.138,-1.273 -2.243,-2.616 -3.301,-4.011 -1.423,-1.171 -2.779,-2.425 -4.018,-3.814 -0.789,-0.884 -1.732,-1.942 -2.665,-3.104 -0.198,0.688 -0.403,1.368 -0.629,2.03 -0.704,2.07 -3.688,2.203 -4.339,0 -1.81,-6.13 -2.468,-13.274 -1.805,-19.641 0.225,-2.168 1.251,-3.387 3.207,-4.211 1.261,-0.532 2.208,-0.094 3.365,0.439 1.421,0.655 2.073,2.329 2.163,3.772 0.075,1.201 0.089,2.434 0.071,3.678 4.189,1.761 5.501,7.839 8.142,11.36 2.612,3.482 5.509,6.743 8.297,10.086 1.599,0.13 3.244,0.906 4.528,1.837 0.812,0.588 1.463,1.308 1.902,2.115 2.487,0.085 4.223,0.791 5.578,3.003 0.799,1.305 -0.267,2.697 -1.62,2.821" />
      <path
         id="path154"
         style="fill:#e0dfe6;fill-opacity:1;fill-rule:nonzero;stroke:none"
         d="m 723.315,292.775 c -3.328,2.299 -7.317,1.043 -11.051,0.547 -3.91,-0.52 -7.877,-0.882 -11.753,-1.598 -2.362,-0.436 -1.968,-3.751 0,-4.399 3.944,-1.301 8.406,-1.876 12.549,-2.036 3.826,-0.148 8.178,-0.413 10.868,2.725 1.336,1.559 1.076,3.593 -0.613,4.761" />
      <path
         id="path156"
         style="fill:#e0dfe6;fill-opacity:1;fill-rule:nonzero;stroke:none"
         d="m 674.253,283.348 c -5.016,3.889 -12.692,-0.07 -18.426,-1.119 -1.039,-0.19 -2.535,-0.239 -3.747,-0.47 -0.056,0.386 -0.112,0.773 -0.167,1.159 -0.567,3.707 -1.118,7.165 -2.554,10.668 -0.328,0.799 -1.297,0.792 -1.627,0 -2.24,-5.364 -6.745,-19.161 2.178,-20.949 4.084,-0.817 9.34,0.446 13.391,1.158 4.758,0.837 9.952,1.067 11.876,6.057 0.406,1.054 -0.016,2.792 -0.924,3.496" />
      <path
         id="path158"
         style="fill:#e0dfe6;fill-opacity:1;fill-rule:nonzero;stroke:none"
         d="m 722.746,251.007 c -5.293,0.169 -9.858,-4.653 -13.473,-7.997 -3.864,-3.576 -7.343,-7.908 -9.174,-12.875 -0.592,-1.606 1.422,-2.861 2.755,-2.118 4.417,2.463 8.346,5.958 12.235,9.175 3.717,3.072 8.635,5.493 10.429,10.176 0.697,1.82 -1.067,3.585 -2.772,3.639" />
      <path
         id="path160"
         style="fill:#e0dfe6;fill-opacity:1;fill-rule:nonzero;stroke:none"
         d="m 629.103,319.819 c 0.037,-0.052 0.064,-0.081 0.089,-0.114 -0.029,0.038 -0.059,0.076 -0.089,0.114" />
      <path
         id="path162"
         style="fill:#e0dfe6;fill-opacity:1;fill-rule:nonzero;stroke:none"
         d="m 629.103,319.819 c -0.174,0.236 -0.356,0.467 -0.54,0.7 l 0.54,-0.7" />
      <path
         id="path164"
         style="fill:#e0dfe6;fill-opacity:1;fill-rule:nonzero;stroke:none"
         d="m 728.629,320.362 c -19.169,0.022 -38.337,-0.106 -57.502,-0.521 -5.299,-0.116 -10.597,-0.261 -15.894,-0.433 -0.007,0.032 -0.016,0.048 -0.02,0.064 -0.005,0.617 -0.211,1.163 -0.645,1.668 -0.763,0.888 -2.091,1.047 -3.171,0.775 -1.041,-0.262 -1.948,-0.937 -2.429,-1.906 -0.135,-0.275 -0.251,-0.558 -0.345,-0.847 -1.748,-0.068 -3.497,-0.117 -5.245,-0.195 -0.541,-0.025 -1.086,-0.045 -1.633,-0.064 -0.067,0.241 -0.142,0.479 -0.223,0.705 -0.564,1.579 -1.853,2.669 -3.605,2.341 -0.823,-0.153 -1.466,-0.689 -1.963,-1.324 -0.282,-0.359 -0.656,-0.753 -0.871,-1.123 -0.144,-0.245 -0.252,-0.51 -0.344,-0.781 -1.608,-0.043 -3.223,-0.098 -4.835,-0.184 -0.056,0.117 -0.118,0.226 -0.189,0.324 -0.111,0.155 -0.199,0.315 -0.291,0.481 -0.09,0.162 -0.199,0.309 -0.308,0.459 -0.312,0.421 -0.659,0.799 -0.991,1.202 0.068,-0.089 0.136,-0.177 0.204,-0.266 -0.347,0.428 -0.717,0.8 -1.23,1.091 -0.991,0.563 -2.427,0.679 -3.407,0 -0.855,-0.592 -1.56,-1.313 -1.82,-2.359 -0.134,-0.539 -0.225,-1.11 -0.218,-1.666 0,-0.034 0.008,-0.064 0.009,-0.097 -2.238,-0.362 -4.432,-0.846 -6.544,-1.533 -1.742,-0.568 -2.001,-3.358 0,-3.797 9.073,-1.994 19.052,-0.661 28.259,-0.391 9.25,0.273 18.498,0.581 27.749,0.833 19.163,0.523 38.333,0.816 57.502,0.794 4.344,-0.005 4.351,6.745 0,6.75" />
      <path
         id="path472"
         style="fill:#525d7d;fill-opacity:1;fill-rule:nonzero;stroke:none"
         d="m 611.534,225.656 c -0.242,0 -0.485,0.059 -0.705,0.176 -0.493,0.262 -0.799,0.777 -0.795,1.336 l 0.694,90.733 c 0.06,7.801 6.454,14.225 14.255,14.321 l 92.513,1.148 c 0.061,10e-4 0.124,10e-4 0.184,10e-4 8.074,0 14.797,-6.513 15.028,-14.603 l 0.938,-32.866 c 0.024,-0.828 -0.628,-1.518 -1.456,-1.542 -0.797,-0.05 -1.519,0.628 -1.542,1.456 l -0.938,32.866 c -0.186,6.476 -5.567,11.689 -12.03,11.689 -0.049,0 -0.098,0 -0.147,-10e-4 l -92.513,-1.148 c -6.18,-0.076 -11.245,-5.165 -11.292,-11.344 l -0.673,-87.901 c 3.54,2.323 7.786,4.93 11.44,7.014 0.505,0.287 1.132,0.259 1.607,-0.076 1.192,-0.841 2.382,-1.692 3.571,-2.542 1.742,-1.246 3.535,-2.528 5.328,-3.77 2.347,1.576 4.779,3.078 7.139,4.536 0.926,0.572 1.852,1.144 2.774,1.72 0.565,0.354 1.295,0.293 1.793,-0.15 1.392,-1.239 2.791,-2.47 4.19,-3.702 1.144,-1.007 2.287,-2.014 3.428,-3.025 1.917,1.446 3.945,2.764 5.917,4.044 0.9,0.584 1.802,1.17 2.693,1.768 0.514,0.342 1.183,0.338 1.69,-0.013 0.756,-0.525 1.496,-1.081 2.235,-1.638 1.412,-1.063 2.746,-2.067 4.189,-2.839 0.731,-0.39 1.007,-1.299 0.617,-2.03 -0.392,-0.732 -1.303,-1.005 -2.031,-0.616 -1.648,0.882 -3.138,2.004 -4.58,3.089 -0.436,0.329 -0.874,0.658 -1.315,0.98 -0.619,-0.409 -1.242,-0.813 -1.864,-1.217 -2.258,-1.466 -4.593,-2.983 -6.681,-4.649 -0.571,-0.455 -1.388,-0.433 -1.933,0.052 -1.444,1.286 -2.896,2.564 -4.347,3.843 -1.122,0.987 -2.245,1.975 -3.363,2.966 -0.611,-0.379 -1.223,-0.757 -1.835,-1.135 -2.618,-1.617 -5.326,-3.288 -7.874,-5.037 -0.511,-0.349 -1.185,-0.351 -1.695,-0.001 -2.099,1.436 -4.194,2.934 -6.22,4.383 -0.925,0.662 -1.848,1.323 -2.774,1.979 -4.271,-2.469 -9.194,-5.548 -12.775,-7.993 -0.253,-0.174 -0.548,-0.262 -0.845,-0.262" />
      <path
         id="path474"
         style="fill:#525d7d;fill-opacity:1;fill-rule:nonzero;stroke:none"
         d="m 619.935,310.653 c -2.942,0 -5.524,0.035 -7.893,0.108 -0.829,0.025 -1.479,0.716 -1.454,1.544 0.025,0.829 0.739,1.507 1.545,1.454 2.338,-0.072 4.891,-0.106 7.802,-0.106 3.057,0 6.127,0.037 9.195,0.074 3.076,0.038 6.149,0.076 9.204,0.076 2.543,0 4.26,-0.028 6.184,-0.058 2.431,-0.039 5.187,-0.083 10.37,-0.083 7.758,0 27.049,0.37 45.705,0.728 11.218,0.216 22.3,0.428 30.743,0.559 0.86,0.011 1.51,-0.648 1.523,-1.477 0.013,-0.829 -0.648,-1.51 -1.477,-1.523 -8.439,-0.13 -19.517,-0.343 -30.731,-0.558 -18.671,-0.358 -37.977,-0.729 -45.763,-0.729 -5.208,0 -7.975,0.044 -10.418,0.083 -1.908,0.03 -3.614,0.058 -6.136,0.058 -3.043,0 -6.104,-0.038 -9.167,-0.075 -3.081,-0.038 -6.163,-0.075 -9.232,-0.075" />
      <path
         id="path476"
         style="fill:#525d7d;fill-opacity:1;fill-rule:nonzero;stroke:none"
         d="m 623.359,322.176 c -0.188,0 -0.425,-0.252 -0.425,-0.537 0,-0.554 0.438,-0.703 0.696,-0.703 0.006,0 0.059,0.003 0.065,0.003 0.265,0.038 0.506,0.258 0.506,0.461 0,0.374 -0.338,0.776 -0.842,0.776 z m 0,-3 c -1.21,0 -2.158,0.977 -2.158,2.224 0,1.28 0.867,2.334 2.063,2.508 1.622,0.246 2.67,-1.064 2.67,-2.269 0,-1.381 -1.131,-2.463 -2.575,-2.463" />
      <path
         id="path478"
         style="fill:#525d7d;fill-opacity:1;fill-rule:nonzero;stroke:none"
         d="m 635.427,322.167 c -0.252,0 -0.508,-0.251 -0.508,-0.392 0,-0.273 0.39,-0.693 0.872,-0.693 0.003,0 0.067,0.004 0.07,0.004 0.064,0.006 0.389,0.054 0.389,0.375 0,0.376 -0.384,0.706 -0.823,0.706 z m 0,-3 c -1.22,0 -2.177,1.008 -2.177,2.294 0,1.334 1.015,2.48 2.312,2.609 0.059,0.006 0.179,0.012 0.229,0.012 1.212,0 2.128,-0.991 2.128,-2.307 0,-1.487 -1.072,-2.608 -2.492,-2.608" />
      <path
         id="path480"
         style="fill:#525d7d;fill-opacity:1;fill-rule:nonzero;stroke:none"
         d="m 650.902,321.564 c -0.27,0 -0.445,-0.22 -0.445,-0.573 0,-0.349 0.187,-0.553 0.311,-0.619 0.311,0.119 0.571,0.448 0.628,0.721 -0.047,0.202 -0.301,0.454 -0.494,0.471 z m 0.014,-3 c -1.479,0 -2.512,1.019 -2.512,2.478 0,1.706 1.084,2.142 1.733,2.251 0.223,0.037 0.449,0.057 0.666,0.057 1.661,0 2.654,-1.199 2.654,-2.359 0,-1.293 -1.188,-2.427 -2.541,-2.427" />
      <path
         id="path482"
         style="fill:#525d7d;fill-opacity:1;fill-rule:nonzero;stroke:none"
         d="m 669.854,217.441 c -0.817,0 -1.486,0.655 -1.5,1.476 -0.011,0.677 -0.016,1.354 -0.016,2.031 0,37.939 25.301,60.59 67.679,60.59 1.82,0 3.676,-0.034 5.672,-0.106 0.827,-0.029 1.475,-0.724 1.445,-1.552 -0.029,-0.828 -0.758,-1.472 -1.552,-1.446 -1.96,0.07 -3.781,0.104 -5.565,0.104 -19.344,0 -35.463,-4.924 -46.614,-14.239 -11.986,-10.014 -18.065,-24.599 -18.065,-43.351 0,-0.661 0.005,-1.323 0.016,-1.982 0.013,-0.83 -0.647,-1.511 -1.5,-1.525" />
      <path
         id="path484"
         style="fill:#525d7d;fill-opacity:1;fill-rule:nonzero;stroke:none"
         d="m 686.458,246.794 c -0.164,0 -0.329,0.026 -0.491,0.082 -0.783,0.271 -1.198,1.126 -0.927,1.908 3.103,8.967 11.876,13.752 14.759,15.325 0.279,0.152 0.482,0.259 0.585,0.327 0.691,0.45 1.622,0.264 2.078,-0.425 0.456,-0.688 0.274,-1.612 -0.413,-2.07 -0.139,-0.094 -0.419,-0.25 -0.813,-0.466 -2.631,-1.435 -10.638,-5.802 -13.36,-13.672 -0.215,-0.621 -0.796,-1.009 -1.418,-1.009" />
      <path
         id="path486"
         style="fill:#525d7d;fill-opacity:1;fill-rule:nonzero;stroke:none"
         d="m 691.348,256.423 c -0.382,0 -0.762,0.144 -1.055,0.434 l -31.946,31.64 c -0.589,0.583 -0.593,1.532 -0.01,2.121 0.583,0.589 1.532,0.593 2.122,0.01 l 31.945,-31.64 c 0.589,-0.583 0.593,-1.532 0.01,-2.121 -0.293,-0.296 -0.68,-0.444 -1.066,-0.444" />
      <path
         id="path488"
         style="fill:#525d7d;fill-opacity:1;fill-rule:nonzero;stroke:none"
         d="m 658.182,280.879 c -0.064,0 -0.13,0.004 -0.196,0.012 -0.821,0.108 -1.4,0.861 -1.293,1.682 0.153,1.171 0.289,2.343 0.425,3.514 0.192,1.66 0.391,3.377 0.638,5.076 0.11,0.753 0.787,1.339 1.526,1.283 0.517,-0.014 1.034,-0.033 1.55,-0.053 0.942,-0.035 1.881,-0.071 2.825,-0.071 1.176,0 2.154,0.057 3.078,0.177 0.829,0.111 1.574,-0.471 1.682,-1.293 0.107,-0.821 -0.472,-1.574 -1.293,-1.682 -1.057,-0.138 -2.159,-0.202 -3.467,-0.202 -0.982,0 -1.959,0.036 -2.939,0.073 -0.058,0.003 -0.118,0.005 -0.176,0.007 -0.163,-1.225 -0.305,-2.458 -0.445,-3.661 -0.137,-1.186 -0.274,-2.371 -0.429,-3.557 -0.099,-0.756 -0.744,-1.305 -1.486,-1.305" />
      <path
         id="path490"
         style="fill:#525d7d;fill-opacity:1;fill-rule:nonzero;stroke:none"
         d="m 629.558,263.963 c -0.799,0 -1.597,0.008 -2.398,0.028 -0.786,0.02 -1.424,0.643 -1.461,1.428 -0.313,6.513 -0.367,13.12 -0.421,19.509 -0.047,5.588 -0.095,11.366 -0.316,17.037 -0.032,0.828 0.614,1.525 1.441,1.557 5.232,0.203 18.31,0.547 47.116,0.56 0.405,0 0.793,-0.163 1.075,-0.453 0.284,-0.29 0.436,-0.682 0.425,-1.087 -0.06,-2.277 -0.091,-4.573 -0.091,-6.823 0,-4.763 0.134,-9.509 0.399,-14.105 0.048,-0.827 -0.584,-1.536 -1.411,-1.583 -0.859,-0.045 -1.536,0.585 -1.583,1.411 -0.269,4.652 -0.405,9.456 -0.405,14.277 0,1.77 0.019,3.568 0.056,5.362 -25.299,-0.022 -38.055,-0.302 -43.969,-0.502 0.176,-5.229 0.22,-10.507 0.263,-15.625 0.049,-5.9 0.1,-11.986 0.353,-17.987 3.169,-0.032 6.138,0.09 9.269,0.214 2.86,0.114 5.818,0.232 9.009,0.232 3.508,0 7.084,-0.11 10.542,-0.218 1.509,-0.047 3.011,-0.093 4.504,-0.13 0.828,-0.021 1.482,-0.709 1.462,-1.538 -0.022,-0.827 -0.675,-1.459 -1.539,-1.462 -1.497,0.038 -3.005,0.085 -4.52,0.132 -3.436,0.106 -6.988,0.216 -10.449,0.216 -3.131,0 -6.059,-0.116 -8.89,-0.23 -2.73,-0.108 -5.554,-0.22 -8.461,-0.22" />
      <path
         id="path492"
         style="fill:#525d7d;fill-opacity:1;fill-rule:nonzero;stroke:none"
         d="m 654.133,273.684 c -2.713,0 -5.156,0.047 -7.469,0.144 -0.794,0.033 -1.424,0.68 -1.438,1.474 -0.123,7.262 -0.322,16.829 -0.771,26.418 -0.039,0.828 0.6,1.531 1.427,1.569 0.843,0.037 1.531,-0.6 1.569,-1.428 0.423,-9.016 0.625,-18.001 0.751,-25.088 1.853,-0.059 3.807,-0.089 5.931,-0.089 3.19,0 6.371,0.065 9.902,0.143 0.871,-0.005 1.514,-0.639 1.533,-1.467 0.018,-0.828 -0.639,-1.515 -1.467,-1.533 -3.549,-0.078 -6.748,-0.143 -9.968,-0.143" />
      <path
         id="path494"
         style="fill:#525d7d;fill-opacity:1;fill-rule:nonzero;stroke:none"
         d="m 683.311,295.023 c 1.055,-0.032 2.102,-0.081 3.124,-0.129 0.935,-0.044 1.891,-0.089 2.844,-0.12 -0.007,1.654 -0.053,3.346 -0.097,4.986 -0.011,0.381 -0.021,0.762 -0.031,1.143 -2.073,-0.003 -4.167,0.013 -6.287,-0.039 0.074,-1.274 0.18,-2.552 0.283,-3.798 0.057,-0.681 0.112,-1.362 0.164,-2.043 z m 7.462,-3.283 c -1.517,0.019 -3.022,0.089 -4.479,0.157 -1.443,0.069 -2.935,0.138 -4.401,0.156 -0.785,0.009 -1.43,0.622 -1.479,1.405 -0.072,1.122 -0.164,2.241 -0.257,3.36 -0.147,1.774 -0.298,3.607 -0.363,5.443 -0.029,0.823 0.613,1.516 1.436,1.551 2.119,0.09 4.236,0.09 6.284,0.09 1.035,0 2.059,0 3.086,0.011 0.808,0.031 1.498,-0.647 1.516,-1.469 0.017,-0.865 0.041,-1.733 0.065,-2.602 0.048,-1.792 0.099,-3.644 0.099,-5.464 0,-0.387 -0.002,-0.773 -0.007,-1.158 -0.011,-0.821 -0.681,-1.48 -1.5,-1.48" />
      <path
         id="path496"
         style="fill:#525d7d;fill-opacity:1;fill-rule:nonzero;stroke:none"
         d="m 702.354,295.082 c 3.634,0 7.321,-0.046 10.888,-0.09 2.678,-0.032 5.358,-0.065 8.038,-0.08 -0.044,1.231 -0.11,2.477 -0.173,3.693 -0.028,0.536 -0.057,1.072 -0.083,1.606 -2.753,0.089 -5.534,0.128 -8.236,0.167 -4.306,0.06 -8.742,0.124 -13.149,0.385 0.059,-1.988 0.155,-3.869 0.29,-5.689 0.809,0.006 1.617,0.008 2.425,0.008 z m 20.469,-3.177 c -3.21,0.009 -6.414,0.048 -9.618,0.088 -4.801,0.059 -9.76,0.12 -14.643,0.07 -0.792,0 -1.441,0.594 -1.509,1.369 -0.245,2.801 -0.393,5.714 -0.452,8.908 -0.008,0.421 0.162,0.826 0.468,1.116 0.306,0.289 0.725,0.438 1.139,0.407 4.86,-0.347 9.823,-0.418 14.623,-0.486 3.171,-0.045 6.451,-0.091 9.686,-0.217 0.78,-0.03 1.407,-0.655 1.441,-1.437 0.041,-0.984 0.092,-1.971 0.144,-2.96 0.093,-1.75 0.188,-3.558 0.221,-5.33 0.007,-0.403 -0.149,-0.793 -0.431,-1.08 -0.282,-0.287 -0.667,-0.448 -1.069,-0.448" />
      <path
         id="path498"
         style="fill:#525d7d;fill-opacity:1;fill-rule:nonzero;stroke:none"
         d="m 682.854,275.381 c -0.363,0 -0.716,0.131 -0.991,0.374 -0.318,0.279 -0.502,0.679 -0.509,1.102 -0.054,3.435 -0.226,6.193 -0.546,8.679 -0.055,0.431 0.079,0.864 0.368,1.188 0.29,0.325 0.724,0.497 1.14,0.502 2.803,-0.036 5.66,-0.132 8.424,-0.226 4.369,-0.149 8.888,-0.306 13.264,-0.217 0.844,-0.022 1.514,-0.642 1.531,-1.47 0.016,-0.829 -0.642,-1.513 -1.47,-1.53 -4.457,-0.088 -9.02,0.068 -13.427,0.219 -2.188,0.073 -4.435,0.149 -6.66,0.196 0.17,-1.722 0.281,-3.583 0.341,-5.69 0.993,0.057 1.981,0.078 2.948,0.097 1.87,0.038 3.637,0.074 5.363,0.362 0.808,0.136 1.589,-0.415 1.726,-1.234 0.136,-0.817 -0.416,-1.59 -1.233,-1.725 -1.941,-0.324 -3.9,-0.364 -5.794,-0.402 -1.495,-0.031 -2.908,-0.059 -4.308,-0.216 -0.056,-0.006 -0.111,-0.009 -0.167,-0.009" />
      <path
         id="path500"
         style="fill:#525d7d;fill-opacity:1;fill-rule:nonzero;stroke:none"
         d="m 661.24,254.589 c -0.035,0 -0.07,0.001 -0.105,0.004 -5.613,0.384 -11.333,0.417 -16.711,0.417 l -4.213,-0.003 c -3.833,0 -8.29,0.014 -12.662,0.194 -0.828,0.034 -1.471,0.732 -1.437,1.56 0.034,0.828 0.734,1.487 1.56,1.438 4.316,-0.178 8.736,-0.192 12.539,-0.192 l 4.213,0.003 c 5.43,0 11.208,-0.034 16.916,-0.425 0.827,-0.057 1.451,-0.773 1.394,-1.599 -0.054,-0.792 -0.713,-1.397 -1.494,-1.397" />
      <path
         id="path502"
         style="fill:#525d7d;fill-opacity:1;fill-rule:nonzero;stroke:none"
         d="m 627.61,247.863 c -0.788,0 -1.449,0.614 -1.496,1.41 -0.05,0.827 0.581,1.538 1.407,1.587 6.407,0.383 13.174,0.504 19.145,0.61 6.977,0.124 13.003,0.232 14.971,0.724 0.804,0.2 1.619,-0.287 1.82,-1.091 0.201,-0.803 -0.288,-1.618 -1.091,-1.819 -2.3,-0.575 -8.19,-0.681 -15.647,-0.814 -5.941,-0.105 -12.675,-0.225 -19.018,-0.604 -0.032,-0.002 -0.062,-0.003 -0.091,-0.003" />
      <path
         id="path504"
         style="fill:#525d7d;fill-opacity:1;fill-rule:nonzero;stroke:none"
         d="m 711.948,254.761 c -2.685,0 -5.376,-0.952 -7.529,-2.875 l -3.981,-3.555 c -2.292,-2.047 -3.644,-4.985 -3.708,-8.058 -0.064,-3.073 1.163,-6.064 3.368,-8.206 l 2.955,-2.871 c 7.424,8.295 16.742,17.498 19.959,19.149 l -3.028,3.062 c -2.206,2.229 -5.118,3.354 -8.036,3.354 z m -6.74,-27.657 10.936,-10.622 c 4.058,-3.942 10.39,-4.177 14.728,-0.551 l 2.038,1.704 c 2.876,2.402 4.628,5.928 4.805,9.673 0.178,3.745 -1.232,7.42 -3.869,10.086 l -8.753,8.848 c -0.155,-0.23 -0.376,-0.419 -0.65,-0.536 -1.986,-0.852 -10.846,-9.213 -19.235,-18.602 z m 18.605,-16.745 c -3.527,0 -7.043,1.333 -9.759,3.971 l -16.046,15.585 c -2.8,2.72 -4.359,6.518 -4.278,10.421 0.082,3.903 1.799,7.633 4.71,10.233 l 3.981,3.556 c 5.685,5.075 14.335,4.81 19.696,-0.609 l 13.862,-14.012 c 3.226,-3.261 4.95,-7.758 4.732,-12.338 -0.217,-4.581 -2.36,-8.894 -5.877,-11.834 l -2.039,-1.703 c -2.617,-2.187 -5.804,-3.27 -8.982,-3.27" />
      <path
         id="path506"
         style="fill:#525d7d;fill-opacity:1;fill-rule:nonzero;stroke:none"
         d="m 713.862,238.578 c -0.384,0 -0.768,0.146 -1.061,0.439 -2.16,2.161 -4.688,4.215 -7.132,6.202 -1.557,1.264 -3.166,2.572 -4.666,3.896 -0.622,0.548 -0.681,1.496 -0.133,2.117 0.548,0.621 1.495,0.681 2.117,0.133 1.455,-1.284 3.04,-2.572 4.573,-3.818 2.504,-2.035 5.093,-4.139 7.362,-6.409 0.586,-0.585 0.586,-1.535 0,-2.121 -0.293,-0.293 -0.676,-0.439 -1.06,-0.439" />
    </g>
  </g>
</svg>
