<?xml version="1.0" encoding="UTF-8" standalone="no"?>
<!-- Created with Inkscape (http://www.inkscape.org/) -->

<svg
   xmlns:dc="http://purl.org/dc/elements/1.1/"
   xmlns:cc="http://creativecommons.org/ns#"
   xmlns:rdf="http://www.w3.org/1999/02/22-rdf-syntax-ns#"
   xmlns:svg="http://www.w3.org/2000/svg"
   xmlns="http://www.w3.org/2000/svg"
   xmlns:sodipodi="http://sodipodi.sourceforge.net/DTD/sodipodi-0.dtd"
   xmlns:inkscape="http://www.inkscape.org/namespaces/inkscape"
   width="165.724"
   height="156.017"
   viewBox="0 0 165.72399 156.01699"
   id="svg6770"
   version="1.1"
   inkscape:version="0.91 r13725"
   sodipodi:docname="seo_icon.svg">
  <defs
     id="defs6772" />
  <sodipodi:namedview
     id="base"
     pagecolor="#ffffff"
     bordercolor="#666666"
     borderopacity="1.0"
     inkscape:pageopacity="0.0"
     inkscape:pageshadow="2"
     inkscape:zoom="0.98994949"
     inkscape:cx="147.28908"
     inkscape:cy="371.00418"
     inkscape:document-units="px"
     inkscape:current-layer="layer1"
     showgrid="false"
     units="px"
     inkscape:window-width="1280"
     inkscape:window-height="995"
     inkscape:window-x="0"
     inkscape:window-y="0"
     inkscape:window-maximized="1" />
  <metadata
     id="metadata6775">
    <rdf:RDF>
      <cc:Work
         rdf:about="">
        <dc:format>image/svg+xml</dc:format>
        <dc:type
           rdf:resource="http://purl.org/dc/dcmitype/StillImage" />
        <dc:title></dc:title>
      </cc:Work>
    </rdf:RDF>
  </metadata>
  <g
     inkscape:label="Layer 1"
     inkscape:groupmode="layer"
     id="layer1"
     transform="translate(0,-896.34522)">
    <g
       id="g7511">
      <path
         d="m 98.818506,1025.8867 c -9.96875,-0.645 -19.990247,-0.6501 -29.959872,-0.048 -5.74025,0.3463 -12.4185,0.5013 -18.475125,1.9113 -0.838875,-7.7188 -3.88825,-14.855 -10.524375,-19.7463 -1.7705,-1.305 -19.704125,-10.7837 -19.51525,-4.845 0.176375,5.5638 7.82575,8.7275 11.685625,11.7638 7.263125,5.7137 7.5845,12.8775 7.576125,21.6338 -0.0049,6.1775 7.8535,6.8174 10.22175,2.3037 6.693375,0.4263 13.84225,-0.6863 20.229,-0.8925 9.595125,-0.31 19.167502,-0.2325 28.762122,0.011 2.442004,0.061 5.377504,-1.9063 5.830134,-4.4388 0.0913,-0.5113 0.23875,-1.0862 0.21587,-1.6075 -0.15187,-3.4262 -2.65487,-5.8262 -6.046004,-6.0462"
         style="fill:#e0dfe6;fill-opacity:1;fill-rule:nonzero;stroke:none"
         id="path14"
         inkscape:connector-curvature="0" />
      <path
         d="m 159.05576,995.12665 c -3.075,-1.34 -6.22125,-2.47625 -9.3325,-3.7275 -2.04875,-0.82375 -4.15875,-2.0275 -6.39375,-2.15375 -3.38,-1.25125 -6.88875,-1.95125 -10.56125,-2.25625 -3.37375,-0.28125 -5.66125,3.62 -4.58125,6.5575 -1.31625,6.08625 -0.1975,13.71125 -0.155,19.33745 0.0288,3.6888 4.10625,4.7288 6.6525,2.755 4.005,-3.1037 7.8575,-6.1725 12.42,-8.4487 1.8325,-0.915 4.11625,-1.695 5.82125,-2.935 0.645,0.2712 1.28625,0.5512 1.9425,0.805 5.68875,2.1962 9.83375,-7.4725 4.1875,-9.93375"
         style="fill:#e0dfe6;fill-opacity:1;fill-rule:nonzero;stroke:none"
         id="path16"
         inkscape:connector-curvature="0" />
      <path
         d="m 155.83451,1028.0567 c -3.795,2.2349 -5.8025,6.2487 -9.37375,8.8325 -4.13,2.9875 -8.9,3.2549 -13.825,3.405 -4.93625,0.1512 -9.9025,-0.1626 -14.59875,-1.835 -3.38125,-1.2051 -6.1125,-3.6763 -9.71162,-4.0725 -0.8105,-0.089 -1.74713,0.6749 -1.91163,1.4549 -2.61912,12.3801 18.057,16.0338 26.222,16.4475 6.4575,0.3276 12.86,-0.3712 18.5675,-3.62 5.11875,-2.9125 11.65,-8.3375 12.765,-14.36 0.84625,-4.5674 -3.70625,-8.8587 -8.13375,-6.2524"
         style="fill:#e0dfe6;fill-opacity:1;fill-rule:nonzero;stroke:none"
         id="path18"
         inkscape:connector-curvature="0" />
      <path
         d="m 158.94951,983.8179 c -0.22875,-4.30875 -0.6575,-8.64625 -1.2525,-12.91 -0.55,-3.9375 -0.9125,-8.84125 -4.23375,-11.4575 -1.11125,-0.875 -2.575,-1.0775 -3.67375,0 -2.92625,2.86875 -2.93,7.21125 -3.065,11.1 -0.1725,4.9175 -0.0712,9.915 0.3,14.82125 0.74875,9.8925 14.34375,5.43625 11.925,-1.55375"
         style="fill:#e0dfe6;fill-opacity:1;fill-rule:nonzero;stroke:none"
         id="path20"
         inkscape:connector-curvature="0" />
      <path
         d="m 149.77826,906.0354 c -1.21,-1.84625 -3.84,-1.04 -4.0125,1.0875 -0.85375,10.5975 0.59875,21.19 -0.465,31.815 -0.1775,1.77875 1.17,4.1425 2.80125,4.88375 1.6175,0.73625 2.6275,1.00625 4.35875,0.57 2.4375,-0.6125 4.10875,-3.005 4.15375,-5.45375 0.2025,-11.1925 -0.53,-23.28625 -6.83625,-32.9025"
         style="fill:#e0dfe6;fill-opacity:1;fill-rule:nonzero;stroke:none"
         id="path22"
         inkscape:connector-curvature="0" />
      <path
         d="m 155.00826,955.5354 c -6.16375,-1.80125 -13.10375,-0.0387 -19.44125,0.26125 -3.16125,0.15 -5.02,2.81 -4.4425,5.83 0.25,0.92875 0.34625,1.85125 0.3225,2.76875 -1.7475,-1.04875 -3.53125,-2.59 -4.67625,-3.21375 -2.135,-1.16 -3.60625,-1.73 -5.97125,-1.9325 -0.74375,-0.0638 -1.2,0.7475 -1.055,1.385 1.18,5.1625 7.6575,13.0875 13.18375,13.64125 5.315,0.53125 7.07375,-4.24875 7.395,-8.86625 4.94125,0.53 10.02875,1.19 14.685,-0.18375 4.76625,-1.405 4.78875,-8.29 0,-9.69"
         style="fill:#e0dfe6;fill-opacity:1;fill-rule:nonzero;stroke:none"
         id="path24"
         inkscape:connector-curvature="0" />
      <path
         d="m 116.07076,967.09665 c -0.0237,-8.5425 -0.0975,-18.565 -3.62875,-25.89375 -0.5925,-1.22875 -2.65475,-1.22875 -3.247,0 -3.1255,6.48625 -3.543,15.08125 -3.61575,22.895 -4.2285,0.05 -8.629874,0.79875 -12.513124,0.95625 -8.175752,0.3325 -16.356002,0.5175 -24.536627,0.62 -7.772,0.0975 -15.545375,-0.0525 -23.315,0.09 -7.73625,0.14125 -16.390125,-0.62125 -23.84225,1.74625 -1.50875,0.48 -2.215875,2.995 -0.48975,3.74875 6.34225,2.77 13.808125,3.0525 20.651875,3.54875 8.583,0.6225 17.162625,0.76125 25.767625,0.7925 8.180625,0.03 16.36125,-0.11875 24.537497,-0.38125 4.52788,-0.14625 10.276884,0.41125 15.392634,-0.26375 2.99612,2.48 8.92237,1.19875 8.86112,-3.86625 -0.001,-0.0937 -0.001,-0.1925 -0.002,-0.285 0.56875,-1.185 0.62,-2.60125 -0.02,-3.7075"
         style="fill:#e0dfe6;fill-opacity:1;fill-rule:nonzero;stroke:none"
         id="path26"
         inkscape:connector-curvature="0" />
      <path
         d="m 86.181668,932.7679 c -14.17675,-0.45125 -28.390625,-0.73625 -42.573625,-0.40875 -12.194375,0.28125 -26.8555,-0.92125 -38.190475,4.23375 -0.8349625,0.38 -0.4956125,1.56625 0.2368125,1.81125 11.9580375,4.015 26.7060375,1.68 39.1704125,1.635 13.792,-0.05 27.569875,0.0138 41.356875,0.45375 4.97275,0.1575 4.966875,-7.5675 0,-7.725"
         style="fill:#e0dfe6;fill-opacity:1;fill-rule:nonzero;stroke:none"
         id="path28"
         inkscape:connector-curvature="0" />
      <path
         d="m 149.73076,915.68665 c -0.40875,-2.1175 -1.0825,-4.1175 -2.14125,-5.895 -3.24625,-5.44875 -11.48,-12.61625 -18.135,-9.08125 -0.49875,0.265 -0.57875,0.88875 -0.355,1.35625 2.39375,4.99 7.95875,7.9125 9.81,13.325 -18.5375,0.5475 -37.09825,0.58 -55.639251,0.685 -10.667,0.0612 -21.339875,0.0362 -32.0035,0.2925 -8.994125,0.2175 -19.459375,-1.0875 -27.855,2.5525 -1.033625,0.44875 -0.978,2.18875 0,2.65625 8.2755,3.95125 18.863375,2.89625 27.855,3.2725 10.65675,0.44625 21.337875,0.5025 32.0035,0.5275 18.648881,0.0438 37.291751,-0.31875 55.936751,-0.49 -0.71125,4.57125 -2.11625,9.2775 -2.28125,13.535 -0.2275,5.85 8.51875,6.865 10.07125,1.36375 1.28,-4.54 2.72875,-10.2675 3.11875,-15.89 2.57625,-1.985 2.4325,-6.6 -0.385,-8.21"
         style="fill:#e0dfe6;fill-opacity:1;fill-rule:nonzero;stroke:none"
         id="path30"
         inkscape:connector-curvature="0" />
      <path
         d="m 149.16451,975.4804 c -0.59125,-4.15375 -1.13875,-9.87125 -4.55625,-12.715 -0.83,-0.69125 -2.15875,-0.7075 -2.73875,0.3525 -2.005,3.665 -1.06125,8.585 -0.95625,12.63125 0.11375,4.35125 -1.0325,9.15875 2.1675,12.5375 1.22125,1.29 3.51375,1.28625 4.73625,0 3.36,-3.5325 1.98,-8.355 1.3475,-12.80625"
         style="fill:#e0dfe6;fill-opacity:1;fill-rule:nonzero;stroke:none"
         id="path32"
         inkscape:connector-curvature="0" />
      <path
         d="m 130.24951,986.88415 c -0.915,0 -1.85875,0.0275 -2.82375,0.0813 -16.73412,0.9325 -25.95387,14.62245 -26.41287,27.66625 -0.289,8.19 2.8945,16.6626 8.51462,22.6626 3.707,3.9575 10.2045,8.7387 20.102,9.0374 8.655,0.25 17.19875,-3.2187 23.40125,-9.5462 6.18375,-6.3088 9.345,-14.61 8.9025,-23.3725 -0.20375,-4.0288 -0.9375,-7.1625 -2.31125,-9.86 -4.98875,-9.80755 -14.75625,-15.85505 -26.79875,-16.59255 -0.8275,-0.05 -1.68625,-0.0763 -2.57375,-0.0763 z m 0.2925,63.21125 c -0.3425,0 -0.68375,0 -1.02625,-0.015 -8.8525,-0.2675 -16.71125,-3.8025 -22.725,-10.2237 -6.38137,-6.8125 -9.853504,-16.0551 -9.525374,-25.3576 0.5185,-14.7437 10.973124,-30.2212 29.951624,-31.27745 2.0475,-0.115 4.01125,-0.11625 5.835,-0.004 13.40375,0.82 24.305,7.6125 29.9125,18.63365 1.59875,3.14 2.48625,6.86 2.71375,11.3725 0.495,9.82 -3.045,19.1201 -9.97,26.1863 -6.68625,6.8238 -15.81,10.685 -25.16625,10.685"
         style="fill:#525d7d;fill-opacity:1;fill-rule:nonzero;stroke:none"
         id="path366"
         inkscape:connector-curvature="0" />
      <path
         d="m 127.67326,1020.4866 c -0.48875,0 -0.95875,-0.19 -1.31,-0.5325 -0.36625,-0.3575 -0.57,-0.8487 -0.565,-1.3612 0.0325,-3.2463 0.0588,-6.5 0.0588,-9.755 0,-9.48 -0.22625,-16.75375 -0.73125,-23.5875 -0.0762,-1.0325 0.69875,-1.93125 1.73125,-2.0075 1.0425,-0.0637 1.9325,0.69875 2.00875,1.73125 0.5125,6.92875 0.74125,14.2875 0.74125,23.86375 0,2.6125 -0.0175,5.225 -0.0413,7.8337 6.125,-0.2037 12.33875,-0.36 18.36875,-0.5125 5.25,-0.1324 10.50625,-0.265 15.75625,-0.4287 1.015,-0.031 1.9,0.7812 1.9325,1.8162 0.0312,1.035 -0.78125,1.9 -1.8175,1.9325 -5.25625,0.1638 -10.51875,0.2963 -15.7775,0.4288 -6.66375,0.1687 -13.555,0.3425 -20.29,0.5775 -0.0225,0 -0.0438,0 -0.065,0"
         style="fill:#525d7d;fill-opacity:1;fill-rule:nonzero;stroke:none"
         id="path368"
         inkscape:connector-curvature="0" />
      <path
         d="m 127.69451,1018.3116 c -0.71875,0 -1.40375,-0.4162 -1.715,-1.115 -0.42,-0.9462 0.007,-2.055 0.9525,-2.475 11.405,-5.0625 23.09,-9.9262 33.39875,-14.2175 0.95125,-0.3975 2.05375,0.054 2.45125,1.0113 0.3975,0.9562 -0.0538,2.0537 -1.01,2.4512 -10.29,4.2825 -21.95375,9.1375 -33.3175,14.1825 -0.2475,0.11 -0.50625,0.1625 -0.76,0.1625"
         style="fill:#525d7d;fill-opacity:1;fill-rule:nonzero;stroke:none"
         id="path370"
         inkscape:connector-curvature="0" />
      <path
         d="m 37.786759,1040.9542 c -0.88475,0 -1.685,-0.66 -1.86425,-1.5588 -0.06687,-0.3312 -0.06587,-0.7 -0.06488,-1.51 0.0049,-4.0025 0.021,-16.1863 -8.22075,-24.4388 -5.295375,-5.3025 -13.11475,-7.9912 -23.2402504,-7.9912 -0.813,0 -1.625,0.021 -2.433,0.059 -1.01524997,0.038 -1.91262497,-0.75 -1.96149997,-1.7837 -0.04888,-1.035 0.75,-1.9125 1.78462497,-1.9625 0.86675,-0.04 1.736875,-0.062 2.609875,-0.062 11.1577504,0 19.8691254,3.0587 25.8936254,9.0912 6.19775,6.2063 9.333,15.3213 9.317375,27.0938 -5e-4,0.415 -0.0054,0.7138 0.0088,0.8775 0.202625,1.015 -0.464875,1.9487 -1.4795,2.1525 -0.117125,0.024 -0.234375,0.034 -0.350125,0.034"
         style="fill:#525d7d;fill-opacity:1;fill-rule:nonzero;stroke:none"
         id="path372"
         inkscape:connector-curvature="0" />
      <path
         d="m 18.807384,1007.6891 c -1.082625,-0.026 -1.901,-0.8862 -1.875,-1.9225 0.3315,-13.19245 0.594125,-26.98495 0.77975,-40.9962 0.01362,-1.03625 0.82325,-1.9025 1.899875,-1.85 1.035125,0.0138 1.86325,0.86375 1.850125,1.9 -0.1865,14.025 -0.44875,27.83375 -0.78075,41.0412 -0.02587,1.0188 -0.859875,1.8275 -1.874,1.8275"
         style="fill:#525d7d;fill-opacity:1;fill-rule:nonzero;stroke:none"
         id="path374"
         inkscape:connector-curvature="0" />
      <path
         d="m 146.58701,938.8904 c -0.0762,0 -0.1525,-0.004 -0.22875,-0.0125 -1.0275,-0.125 -1.76,-1.05875 -1.63625,-2.0875 0.48125,-3.965 0.715,-8.17875 0.715,-12.88125 0,-2.46875 -0.065,-5.10125 -0.19625,-8.04875 -0.495,-11.1175 -2.245,-15.765 -11.80625,-15.765 -1.14375,0 -2.3925,0.07 -3.82,0.2125 -0.05,0.005 -0.1,0.009 -0.15,0.009 l -96.397376,1.85375 c -0.23975,0.025 -0.692,0.035 -1.212875,0.0462 -5.064,0.10375 -10.008875,0.92375 -10.020625,9.51625 -0.01025,7.345 -0.03563,14.6875 -0.07813,22.0325 -0.0063,1.03125 -0.844125,1.86375 -1.875,1.86375 -1.046375,-0.006 -1.88125,-0.85 -1.875,-1.88625 0.0425,-7.3375 0.06788,-14.67625 0.07813,-22.015 0.01763,-12.98125 9.953625,-13.18375 13.693875,-13.26125 0.42925,-0.009 0.80125,-0.015 1.098125,-0.0387 l 96.441376,-1.85875 c 1.52125,-0.15 2.86875,-0.22375 4.1175,-0.22375 13.56875,0 15.09875,9.1525 15.5525,19.3475 0.13375,3.00375 0.2,5.69125 0.2,8.21625 0,4.855 -0.2425,9.21625 -0.74125,13.3325 -0.115,0.95125 -0.925,1.64875 -1.85875,1.64875"
         style="fill:#525d7d;fill-opacity:1;fill-rule:nonzero;stroke:none"
         id="path376"
         inkscape:connector-curvature="0" />
      <path
         d="m 146.58451,989.82665 c -1.03625,0 -1.875,-0.83875 -1.875,-1.875 0,-8.11625 0,-15.78125 0.47875,-23.93 0.0613,-1.03375 0.965,-1.8125 1.98125,-1.76125 1.03375,0.0612 1.8225,0.94875 1.7625,1.98125 -0.4725,8.0375 -0.4725,15.65125 -0.4725,23.71 0,1.03625 -0.84,1.875 -1.875,1.875"
         style="fill:#525d7d;fill-opacity:1;fill-rule:nonzero;stroke:none"
         id="path378"
         inkscape:connector-curvature="0" />
      <path
         d="m 19.947009,919.45915 c -1.025,0 -1.862375,-0.825 -1.8745,-1.8525 -0.01175,-1.035 0.817375,-1.885 1.8525,-1.8975 l 127.179501,-1.525 c 1.0325,0.007 1.885,0.8175 1.8975,1.8525 0.0125,1.03625 -0.8175,1.885 -1.8525,1.8975 0,0 -127.179126,1.525 -127.202501,1.525"
         style="fill:#525d7d;fill-opacity:1;fill-rule:nonzero;stroke:none"
         id="path380"
         inkscape:connector-curvature="0" />
      <path
         d="m 30.362509,911.68665 c -1.413625,0 -2.4795,-1.05 -2.4795,-2.4425 0,-0.20875 0.02638,-0.4225 0.05662,-0.6125 0.001,0 5e-4,0.0462 5e-4,0.0862 0,-0.835 0.546875,-1.54375 1.30175,-1.785 0.05763,-0.04 0.11675,-0.0763 0.17825,-0.11 0.34325,-0.38375 0.84225,-0.625 1.397875,-0.625 1.612375,0 2.736875,1.435 2.736875,2.7225 0,1.5 -1.461875,2.76625 -3.192375,2.76625"
         style="fill:#525d7d;fill-opacity:1;fill-rule:nonzero;stroke:none"
         id="path382"
         inkscape:connector-curvature="0" />
      <path
         d="m 42.692634,910.99915 c -10e-4,0 -0.002,0 -0.0025,0 5e-4,0 0.0015,0 0.0025,0 z m -0.486375,0.0888 c -1.15575,0 -2.060125,-0.88 -2.060125,-2.00375 0,-0.46625 0.15975,-0.90625 0.433625,-1.28375 0,-1.08 0.827625,-1.91875 1.86375,-1.91875 1.787125,0 2.73925,1.27875 2.73925,2.48125 0,1.05625 -0.873,2.5125 -2.308,2.63 -0.17675,0.045 -0.399,0.095 -0.6685,0.095"
         style="fill:#525d7d;fill-opacity:1;fill-rule:nonzero;stroke:none"
         id="path384"
         inkscape:connector-curvature="0" />
      <path
         d="m 56.612509,906.6254 c -0.557125,0 -0.67775,0.88125 -0.67775,1.09875 0,0.12 0.01275,0.23375 0.03463,0.34125 l 0.40725,-0.40625 -0.272,-0.2725 0.5435,0 0.271,-0.27125 0,0.27125 0.82475,0 c -0.244125,-0.45 -0.71875,-0.76125 -1.131375,-0.76125 z m 0.306625,1.5775 0,0.7875 c 0.04687,-0.005 0.317875,-0.085 0.51025,-0.27625 l -0.51025,-0.51125 z m -0.306625,2.1725 c -1.42975,0 -2.46825,-0.9975 -2.46825,-2.37375 0,-0.25 0.0405,-0.51375 0.08687,-0.74625 0,0.01 -0.0015,0.0762 -0.0015,0.13125 0,-0.49875 0.19875,-0.975 0.550875,-1.3275 0.82075,-0.81875 1.744125,-0.81875 2.138625,-0.81875 0.391125,0 0.77,0.1225 1.085,0.34625 1.147375,0.48875 1.680625,1.19375 1.680625,2.1375 0,1.5175 -1.622125,2.65125 -3.07225,2.65125"
         style="fill:#525d7d;fill-opacity:1;fill-rule:nonzero;stroke:none"
         id="path386"
         inkscape:connector-curvature="0" />
      <path
         d="m 3.8501805,935.2079 c 0.3120125,6.62125 0.3252,13.32125 0.3374,19.82 0.00537,2.66875 0.010262,5.33625 0.03565,8 L 118.81604,962.57915 c 0.0771,-2.97875 0.11475,-5.99875 0.11475,-9.18 0,-5.25 -0.107,-10.8975 -0.32525,-17.21375 -11.68162,0.4075 -24.405747,0.59625 -39.837372,0.59625 -25.641125,0 -46.332,-1.065 -56.382875,-1.7 l -0.6025,-0.0375 c -0.06838,0.001 -0.80375,0.0113 -1.929625,0.0238 -3.692375,0.045 -11.2974125,0.13625 -16.0029875,0.14 z m -1.48095,31.5775 c -1.0254,0 -1.8608375,-0.82375 -1.875,-1.85 -0.04395,-3.295 -0.0498125,-6.59625 -0.05665,-9.9 -0.013175,-7.09875 -0.0273375,-14.43875 -0.4345625,-21.6 -0.0293,-0.515 0.1557625,-1.02125 0.5107375,-1.395 0.3549875,-0.37375 0.8466875,-0.58625 1.361325,-0.58625 0.00586,0 1.6953125,0.004 1.6953125,0.004 4.65675,0 12.479025,-0.0937 16.237775,-0.14 1.150875,-0.0125 1.903375,-0.0225 2.040125,-0.0225 0.03362,0 0.295875,0.0138 0.773375,0.0438 10.007375,0.6325 30.607875,1.6925 56.1465,1.6925 16.214375,0 29.424752,-0.21 41.574252,-0.66 1.03025,-0.0388 1.90425,0.76875 1.94337,1.80375 0.26563,7.12625 0.395,13.41375 0.395,19.22375 0,3.8125 -0.0566,7.54875 -0.1685,11.10625 -0.0312,1.01 -0.85687,1.8125 -1.86675,1.81625 0,0 -118.2689845,0.46375 -118.2763095,0.46375"
         style="fill:#525d7d;fill-opacity:1;fill-rule:nonzero;stroke:none"
         id="path388"
         inkscape:connector-curvature="0" />
      <path
         d="m 75.693009,965.0654 c -0.03612,0 -0.07275,-10e-4 -0.108875,-0.002 -1.033625,-0.0588 -1.824125,-0.945 -1.765125,-1.97875 0.27,-4.72375 0.398,-9.43875 0.522,-13.99875 0.1245,-4.58875 0.253375,-9.3325 0.526875,-14.11125 0.05862,-1.03375 0.942875,-1.82125 1.9785,-1.765 1.034125,0.0588 1.82425,0.94375 1.765125,1.97875 -0.2695,4.7225 -0.397875,9.43875 -0.522,13.99875 -0.1245,4.5875 -0.252875,9.33125 -0.526375,14.11125 -0.05712,0.9975 -0.88375,1.7675 -1.870125,1.7675"
         style="fill:#525d7d;fill-opacity:1;fill-rule:nonzero;stroke:none"
         id="path390"
         inkscape:connector-curvature="0" />
      <path
         d="m 95.598386,942.3004 c -0.0391,0 -0.0786,10e-4 -0.11775,0.003 -1.102,0.0425 -1.86175,0.625 -2.30563,1.1075 -0.74312,0.80625 -1.15775,1.95125 -1.10887,3.06125 0.0761,1.7325 1.51075,3.03 2.50537,3.19875 0.27538,0.0462 0.55663,0.0775 0.83838,0.09 1.1475,0.045 2.21237,-0.35 3.0185,-1.12 0.74412,-0.71125 1.17337,-1.65 1.17675,-2.57375 0.001,-0.345 -0.0464,-0.71 -0.13713,-1.0575 -0.40087,-1.52875 -1.86087,-2.24875 -3.01512,-2.585 -0.28225,-0.0825 -0.56788,-0.12375 -0.8545,-0.12375 z m -0.005,11.21375 c -0.11425,0 -0.2295,-0.002 -0.34475,-0.007 -0.4405,-0.02 -0.8765,-0.0675 -1.30225,-0.13875 -2.582,-0.4375 -5.46775,-3.13375 -5.6265,-6.73 -0.0933,-2.1175 0.67038,-4.22 2.09713,-5.76875 1.30862,-1.42125 3.05475,-2.2425 4.9175,-2.31375 0.72275,-0.0312 1.4575,0.0613 2.1655,0.2675 2.947374,0.8575 4.934124,2.71625 5.595254,5.235 0.17437,0.665 0.26225,1.34625 0.25975,2.0225 -0.008,1.93875 -0.85938,3.86 -2.33638,5.27125 -1.467254,1.40125 -3.382374,2.1625 -5.425254,2.1625"
         style="fill:#525d7d;fill-opacity:1;fill-rule:nonzero;stroke:none"
         id="path392"
         inkscape:connector-curvature="0" />
      <path
         d="m 83.797509,958.67665 c -0.40175,0 -0.807125,-0.12875 -1.149875,-0.395 -0.816875,-0.635 -0.964875,-1.81375 -0.328625,-2.63125 1.09375,-1.40625 2.43025,-2.44625 3.723125,-3.45125 1.161125,-0.90375 2.258372,-1.75625 3.064502,-2.79375 0.63525,-0.81875 1.812,-0.96625 2.63137,-0.32875 0.81738,0.63625 0.96488,1.81375 0.32863,2.63125 -1.09425,1.40625 -2.43025,2.44625 -3.72225,3.45125 -1.161627,0.90375 -2.259252,1.75625 -3.065377,2.79375 -0.369125,0.475 -0.922875,0.72375 -1.4815,0.72375"
         style="fill:#525d7d;fill-opacity:1;fill-rule:nonzero;stroke:none"
         id="path394"
         inkscape:connector-curvature="0" />
      <path
         d="m 11.191043,956.81915 c -0.1055,0 -0.2125,-0.01 -0.319375,-0.0275 -0.663575,-0.115 -1.2138625,-0.57625 -1.4433625,-1.20875 -1.129875,-3.11625 -2.22265,-5.66125 -3.4399375,-8.00875 -0.47705,-0.91875 -0.11865,-2.05 0.801275,-2.5275 0.9199125,-0.475 2.050775,-0.1175 2.5273375,0.80125 0.8837875,1.70375 1.7021875,3.49625 2.5103125,5.50375 0.837375,-0.9175 1.700625,-1.8075 2.5825,-2.665 0.379875,-0.36875 0.8925,-0.5575 1.42525,-0.52625 0.527875,0.0325 1.017625,0.2875 1.347625,0.7025 l 1.38875,1.73125 c 0.283625,0.35375 0.567375,0.7075 0.8505,1.06 1.068375,-1.64 2.247625,-3.39125 3.498625,-5.10375 0.61175,-0.83625 1.785125,-1.01875 2.619625,-0.4075 0.836375,0.61125 1.0185,1.78375 0.407625,2.62 -1.771875,2.425 -3.411125,4.95875 -4.78125,7.11625 -0.326125,0.51375 -0.88225,0.8375 -1.490125,0.8675 -0.61625,0.0312 -1.192875,-0.2375 -1.568375,-0.71625 -0.808125,-1.03125 -1.633875,-2.05875 -2.4605,-3.08625 l -0.0805,-0.10125 c -1.01525,1.05875 -1.995625,2.1625 -2.92975,3.29375 -0.359375,0.43625 -0.892125,0.6825 -1.44625,0.6825"
         style="fill:#525d7d;fill-opacity:1;fill-rule:nonzero;stroke:none"
         id="path396"
         inkscape:connector-curvature="0" />
      <path
         d="m 20.432384,956.72665 c -0.0875,0 -0.175375,-0.006 -0.26325,-0.0187 -0.6665,-0.0937 -1.231,-0.53875 -1.4795,-1.165 -1.223625,-3.0825 -2.392625,-5.5925 -3.679125,-7.90125 -0.504,-0.90375 -0.18025,-2.04625 0.7245,-2.55 0.903875,-0.505 2.046,-0.18 2.550875,0.725 0.9335,1.675 1.806625,3.4425 2.67425,5.425 0.808625,-0.94 1.645,-1.8575 2.5015,-2.74125 0.367625,-0.38125 0.874,-0.58375 1.409125,-0.57 0.529375,0.0175 1.025875,0.2575 1.36825,0.6625 l 1.46475,1.72 c 0.28575,0.33375 0.572375,0.66875 0.857,1.00375 1.019,-1.6725 2.145,-3.4575 3.34375,-5.2075 0.585375,-0.85375 1.751,-1.0725 2.606875,-0.48625 0.8535,0.58625 1.071875,1.75375 0.486375,2.6075 -1.69875,2.4775 -3.26175,5.05875 -4.565875,7.255 -0.311625,0.52375 -0.8565,0.86375 -1.463875,0.9125 -0.6065,0.0512 -1.19925,-0.20125 -1.588875,-0.66875 -0.830625,-0.99625 -1.67875,-1.98875 -2.526875,-2.98125 l -0.108375,-0.12875 c -0.984375,1.09125 -1.931625,2.22375 -2.829625,3.38125 -0.358375,0.4625 -0.90725,0.72625 -1.481875,0.72625"
         style="fill:#525d7d;fill-opacity:1;fill-rule:nonzero;stroke:none"
         id="path398"
         inkscape:connector-curvature="0" />
      <path
         d="m 41.468509,956.9629 c -0.087,0 -0.174875,-0.006 -0.26275,-0.0187 -0.6665,-0.0937 -1.2315,-0.53875 -1.4795,-1.165 -1.223125,-3.08 -2.392125,-5.59125 -3.67925,-7.90125 -0.504375,-0.90375 -0.180125,-2.04625 0.724125,-2.55 0.904375,-0.505 2.046,-0.18 2.550875,0.72375 0.9345,1.6775 1.806625,3.44375 2.67475,5.42625 0.809125,-0.94125 1.6445,-1.8575 2.5005,-2.74125 0.368125,-0.38125 0.869625,-0.5875 1.409125,-0.57 0.528875,0.0175 1.026,0.2575 1.36775,0.6625 l 1.437,1.685 c 0.295375,0.34625 0.59125,0.6925 0.88625,1.03875 1.019,-1.67375 2.146,-3.46 3.34425,-5.2075 0.584875,-0.85375 1.752875,-1.07125 2.605875,-0.485 0.8545,0.585 1.071875,1.7525 0.485875,2.60625 -1.69625,2.47375 -3.25975,5.05625 -4.565375,7.25625 -0.310625,0.52375 -0.8565,0.86375 -1.463375,0.91125 -0.61575,0.05 -1.20025,-0.20125 -1.589375,-0.6675 -0.839875,-1.00875 -1.69825,-2.0125 -2.55575,-3.01625 l -0.08,-0.095 c -0.983375,1.09 -1.930625,2.2225 -2.828625,3.38125 -0.358375,0.4625 -0.90725,0.72625 -1.482375,0.72625"
         style="fill:#525d7d;fill-opacity:1;fill-rule:nonzero;stroke:none"
         id="path400"
         inkscape:connector-curvature="0" />
      <path
         d="m 132.37326,967.75915 c -0.365,0 -0.7275,-0.10625 -1.04125,-0.31625 -4.035,-2.695 -10.155,-8.0625 -18.1875,-15.95125 -0.365,-0.35875 -0.5675,-0.85 -0.5625,-1.36125 0.006,-0.51125 0.22125,-0.9975 0.595,-1.34625 l 17.6575,-16.51875 c 0.54125,-0.50625 1.3275,-0.64625 2.00875,-0.35875 0.6825,0.2875 1.13125,0.9475 1.14625,1.6875 l 0.0275,1.2925 c 0.0525,2.49625 0.105,5.00375 0.18625,7.4975 8.325,0.0738 16.4125,-0.3825 24.98625,-0.8675 l 0.3425,-0.02 c 1.015,-0.0575 1.91875,0.7325 1.9775,1.76625 0.0588,1.03375 -0.7325,1.92 -1.76625,1.97875 l -0.34125,0.0187 c -9.25375,0.52375 -17.9775,1.02125 -27.045,0.84875 -0.9925,-0.0187 -1.8,-0.80875 -1.8375,-1.8025 -0.0825,-2.135 -0.14,-4.28625 -0.18875,-6.435 l -13.16,12.31125 c 5.4425,5.2925 9.89875,9.30625 13.30875,11.9875 -0.0175,-2.185 -0.0525,-4.58375 -0.12125,-6.95375 -0.015,-0.5275 0.1925,-1.0375 0.5725,-1.40375 0.37875,-0.36625 0.89375,-0.555 1.42125,-0.5225 1.6875,0.1075 3.47375,0.16 5.45875,0.16 2.84,0 5.745,-0.10875 8.555,-0.2125 4.1075,-0.1525 8.37125,-0.30875 12.57375,-0.1425 1.035,0.0412 1.84,0.91375 1.79875,1.94875 -0.0413,1.03375 -0.915,1.83 -1.94875,1.79875 -4.08375,-0.16375 -8.245,-0.007 -12.285,0.1425 -2.84375,0.10625 -5.78375,0.215 -8.69375,0.215 -1.2875,0 -2.49625,-0.0212 -3.6525,-0.065 0.0687,3.18 0.085,6.28125 0.09,8.74375 0.001,0.6925 -0.37875,1.33 -0.99,1.6575 -0.27625,0.14875 -0.58125,0.2225 -0.885,0.2225"
         style="fill:#525d7d;fill-opacity:1;fill-rule:nonzero;stroke:none"
         id="path402"
         inkscape:connector-curvature="0" />
      <path
         d="m 40.539759,983.71915 c -1.03325,0 -1.86675,-0.83625 -1.869625,-1.86875 -0.003,-1.03375 0.835375,-1.875 1.868125,-1.88125 0.231,-10e-4 0.8945,-0.055 1.857,-0.12625 2.83975,-0.21375 8.1255,-0.61 12.865625,-0.61 2.380375,0 4.768625,0.0488 7.154875,0.0975 3.471125,0.0712 6.9385,0.14125 10.366125,0.0587 1.045,-0.0475 1.8955,0.795 1.92,1.83 0.02487,1.035 -0.7945,1.89375 -1.829125,1.91875 -3.483875,0.085 -7.006375,0.015 -10.53325,-0.0575 -2.36075,-0.0488 -4.724125,-0.0975 -7.078625,-0.0975 -4.5995,0 -9.794375,0.39 -12.585375,0.59875 -1.11775,0.0838 -1.883375,0.1375 -2.13575,0.1375"
         style="fill:#525d7d;fill-opacity:1;fill-rule:nonzero;stroke:none"
         id="path404"
         inkscape:connector-curvature="0" />
      <path
         d="m 39.959134,994.9329 c -1.035625,0 -1.875,-0.83875 -1.875,-1.875 0,-1.03625 0.839375,-1.875 1.875,-1.875 10.819875,0 22.008375,0 32.995625,-0.38625 1.059125,-0.02 1.903875,0.77375 1.94,1.80875 0.03662,1.035 -0.7735,1.90375 -1.808125,1.93875 -11.05325,0.38875 -22.275375,0.38875 -33.1275,0.38875"
         style="fill:#525d7d;fill-opacity:1;fill-rule:nonzero;stroke:none"
         id="path406"
         inkscape:connector-curvature="0" />
      <path
         d="m 41.506009,1006.1466 c -1.036125,0 -1.875,-0.84 -1.875,-1.875 0,-1.0362 0.838875,-1.875 1.875,-1.875 4.717875,0 9.57375,-0.099 14.270125,-0.1937 4.71425,-0.095 9.58875,-0.1925 14.344125,-0.1925 1.03575,0 1.875,0.8387 1.875,1.875 0,1.035 -0.83925,1.875 -1.875,1.875 -4.71725,0 -9.57325,0.097 -14.2685,0.1925 -4.715375,0.095 -9.589875,0.1937 -14.34575,0.1937"
         style="fill:#525d7d;fill-opacity:1;fill-rule:nonzero;stroke:none"
         id="path408"
         inkscape:connector-curvature="0" />
      <path
         d="m 87.878636,1031.2942 c -6.630877,0 -13.326627,-0.27 -19.801752,-0.5313 -6.42575,-0.2587 -13.069875,-0.5275 -19.600125,-0.5275 -3.794,0 -7.24175,0.087 -10.541,0.2687 -1.041,0.07 -1.918,-0.735 -1.975125,-1.7687 -0.05662,-1.035 0.735375,-1.9188 1.769,-1.975 3.36875,-0.1862 6.884375,-0.275 10.747125,-0.275 6.606,0 13.288625,0.2687 19.7515,0.53 7.262625,0.2937 14.765625,0.605 22.171877,0.515 0.98437,-0.045 1.88325,0.8175 1.896,1.8537 0.0116,1.035 -0.81788,1.8838 -1.8535,1.8963 -0.8545,0.01 -1.7095,0.014 -2.564,0.014"
         style="fill:#525d7d;fill-opacity:1;fill-rule:nonzero;stroke:none"
         id="path410"
         inkscape:connector-curvature="0" />
    </g>
  </g>
</svg>
