<?xml version="1.0" encoding="UTF-8" standalone="no"?>
<svg
   xmlns:dc="http://purl.org/dc/elements/1.1/"
   xmlns:cc="http://creativecommons.org/ns#"
   xmlns:rdf="http://www.w3.org/1999/02/22-rdf-syntax-ns#"
   xmlns:svg="http://www.w3.org/2000/svg"
   xmlns="http://www.w3.org/2000/svg"
   version="1.1"
   id="svg8381"
   viewBox="0 0 200.11301 166.993"
   height="166.993"
   width="200.11301">
  <defs
     id="defs8383" />
  <metadata
     id="metadata8386">
    <rdf:RDF>
      <cc:Work
         rdf:about="">
        <dc:format>image/svg+xml</dc:format>
        <dc:type
           rdf:resource="http://purl.org/dc/dcmitype/StillImage" />
        <dc:title></dc:title>
      </cc:Work>
    </rdf:RDF>
  </metadata>
  <g
     transform="translate(0,-885.36916)"
     id="layer1">
    <g
       id="g8312"
       transform="matrix(1.25,0,0,-1.25,-496.99787,1308.3331)">
      <path
         id="path134"
         style="fill:#e0dfe6;fill-opacity:1;fill-rule:nonzero;stroke:none"
         d="m 534.272,278.388 c -1.06,0.843 -2.138,1.589 -3.29,2.211 0.367,0.03 0.732,0.054 1.104,0.091 3.24,0.323 3.058,0.243 3.391,-2.687 0.032,-0.279 0.082,-0.554 0.142,-0.827 -0.519,0.483 -0.981,0.922 -1.347,1.212 z M 426.961,218.7 c -0.019,0.57 -0.031,1.141 -0.04,1.713 0.716,-0.287 1.466,-0.483 2.236,-0.62 -0.743,-0.343 -1.48,-0.698 -2.196,-1.093 z m 130.157,83.938 c -0.36,5.357 -0.238,11.91 -3.078,16.605 -0.636,1.051 -2.17,1.052 -2.806,0 -0.743,-1.23 -1.312,-2.602 -1.753,-4.063 -0.288,1.459 -0.635,2.903 -1.083,4.315 -0.672,2.114 -3.515,2.037 -4.219,0 -2.143,-6.199 -2.404,-13.032 -2.76,-19.533 -0.203,-3.719 -1.042,-8.155 -0.479,-12.053 -1.061,0.665 -2.253,1.122 -3.494,1.34 -2.518,0.44 -4.83,-0.302 -7.257,-0.849 -3.784,-0.852 -7.603,-1.237 -11.463,-1.56 -2.736,-0.23 -3.143,-3.681 -0.632,-4.665 0.581,-0.229 1.16,-0.43 1.738,-0.608 -1.013,-0.315 -1.974,-0.738 -2.825,-1.29 -0.295,0.857 -1.21,1.335 -2.088,1.254 0.072,3.954 -1.046,7.112 -3.128,10.926 -0.1,0.181 -0.25,0.303 -0.415,0.396 -0.875,2.536 -2.371,4.802 -4.675,6.355 -3.289,2.215 -8.546,2.756 -10.677,-1.245 -0.202,-0.381 -0.09,-0.838 0.28,-1.07 7.124,-4.44 6.458,-11.356 2.37,-17.763 -0.422,-0.609 -0.853,-1.21 -1.293,-1.806 -1.46,-1.774 -3.335,-3.392 -5.2,-5.026 0.704,1.968 1.182,4.005 1.688,6.217 0.572,2.503 -2.708,3.89 -4.113,1.734 -1.681,-2.582 -4.128,-5.06 -6.354,-7.304 -0.172,0.273 -0.333,0.563 -0.513,0.824 -0.595,0.865 -1.728,1.292 -2.693,0.706 -3.817,-2.316 -3.524,-6.515 -2.82,-10.42 0.017,-0.236 0.045,-0.478 0.09,-0.729 0.03,-0.164 0.077,-0.32 0.136,-0.472 0.044,-0.222 0.088,-0.444 0.131,-0.663 0.558,-2.825 0.956,-5.531 0.912,-8.419 -0.019,-1.277 -0.036,-2.478 0.173,-3.593 -1.06,-0.928 -2.066,-1.897 -2.965,-2.942 -2.225,-2.59 -1.229,-5.748 1.028,-7.059 -1.528,-2.577 -2.011,-5.319 -2.294,-8.233 -6.055,0.35 -14.782,-1.93 -17.258,-2.257 -5.798,-0.764 -11.611,-1.41 -17.406,-2.183 -4.087,-0.545 -9.779,-0.456 -13.571,-2.708 -0.793,1.417 -2.313,2.474 -3.948,2.36 -2.061,-0.145 -4.108,-0.295 -6.148,-0.521 -0.739,4.146 -1.224,8.351 -2.107,12.479 -0.228,1.067 -1.948,1.079 -2.169,0 -1.076,-5.244 -1.506,-10.616 -2.639,-15.828 -0.585,-2.69 1.176,-4.703 3.79,-4.975 1.532,-0.159 3.057,-0.219 4.583,-0.235 -0.02,-3.274 0.187,-6.519 0.635,-9.817 0.494,-3.641 5.813,-4.559 8.063,-2.129 4.479,4.84 10.346,5.829 16.664,6.429 7.355,0.7 14.75,1.107 22.115,1.731 5.907,0.5 15.463,-0.601 19.315,4.868 1.968,2.793 1.754,6.432 1.816,9.685 0.023,1.258 0.018,2.498 -0.05,3.719 7.218,5.698 13.914,12.704 19.422,19.919 2.874,3.765 5.567,7.686 7.564,11.993 0.969,2.091 1.823,4.18 2.449,6.399 0.336,1.194 0.496,2.396 0.629,3.597 3.292,-2.206 7.743,0.929 11.418,-0.524 3.675,-1.453 5.599,-5.87 9.556,-7.26 3.535,-1.242 7.289,-0.564 8.61,3.241 0.434,1.249 0.91,2.956 1.219,4.764 0.061,0.075 0.12,0.15 0.18,0.226 1.582,-0.171 3.241,-0.032 4.878,0.403 4.729,1.255 5.51,5.22 5.491,9.56 -0.025,5.909 -0.175,11.861 -0.57,17.757" />
      <path
         id="path136"
         style="fill:#e0dfe6;fill-opacity:1;fill-rule:nonzero;stroke:none"
         d="m 423.288,304.04 c -1.131,4.384 -1.481,9.187 -5.342,11.973 -1.735,1.253 -4.598,0.339 -5.559,-1.457 -0.879,-1.642 -1.089,-3.637 -0.95,-5.72 -1.364,-0.381 -2.83,-0.646 -4.223,-0.611 -2.709,0.069 -3.09,-3.283 -1.261,-4.658 2.083,-1.566 4.377,-2.379 6.994,-2.26 0.177,-0.629 0.351,-1.234 0.512,-1.804 0.126,-0.445 0.137,-0.726 0.129,-0.904 -0.805,-0.261 -1.933,-0.403 -2.503,-0.498 -2.014,-0.334 -3.994,-0.197 -5.988,-0.092 -0.118,0.075 -0.22,0.156 -0.348,0.227 -1.204,0.667 -2.779,0.761 -3.975,0 -1.633,-1.039 -2.195,-2.184 -2.897,-3.909 -1.092,-2.686 1.218,-5.479 3.579,-6.303 6.488,-2.268 18.657,-1.707 21.977,5.434 1.595,3.429 0.756,7.086 -0.145,10.582" />
      <path
         id="path138"
         style="fill:#e0dfe6;fill-opacity:1;fill-rule:nonzero;stroke:none"
         d="m 545.738,223.109 c 0.324,0.358 0.626,0.728 0.897,1.1 1.535,2.114 3.508,5.845 1.964,8.356 -0.724,1.179 -1.922,1.509 -3.212,1.307 -1.356,-0.212 -2.385,-1.507 -3.323,-2.432 -0.157,-0.154 -0.325,-0.295 -0.484,-0.445 -0.602,0.909 -1.55,1.641 -2.907,2.011 -4.905,1.334 -10.025,0.854 -15,1.357 -0.818,0.083 -1.492,-0.269 -1.96,-0.824 -4.902,1.805 -10.485,0.209 -15.213,-1.755 -1.386,-0.576 -1.698,-2.243 -0.411,-3.142 3.336,-2.328 7.244,-1.48 10.91,-2.753 1.739,-0.603 2.935,-1.779 3.973,-3.14 -0.914,-0.904 -1.81,-1.851 -2.921,-2.622 -1.641,-1.143 -3.378,-2.338 -4.717,-0.398 -0.553,0.801 -1.374,1.149 -2.329,0.949 -2.877,-0.604 -3.648,-3.724 -2.946,-6.253 0.977,-3.523 4.409,-5.477 7.926,-5.56 3.264,-0.076 6.884,1.326 9.495,3.204 1.104,0.794 2.106,1.631 2.947,2.542 4.739,-2.917 10.559,-3.319 15.708,-0.14 2.639,1.63 3.743,5.205 2.084,7.948 -0.152,0.252 -0.313,0.477 -0.481,0.69" />
      <path
         id="path556"
         style="fill:#525d7d;fill-opacity:1;fill-rule:nonzero;stroke:none"
         d="m 478.369,237.461 c -0.441,0 -0.876,0.192 -1.173,0.563 -0.517,0.648 -0.412,1.591 0.235,2.109 11.911,9.52 36.697,29.33 36.697,45.566 0,7.109 -3.819,14.283 -12.35,14.283 -9.262,0 -18.533,-4.409 -24.8,-11.796 -0.27,-0.318 -0.661,-0.509 -1.079,-0.528 -0.419,-0.021 -0.824,0.14 -1.121,0.435 -9.891,9.814 -18.44,14.585 -26.135,14.585 -6.889,0 -13.018,-8.576 -13.018,-15.334 0,-2.902 2.121,-7.497 6.134,-13.289 0.473,-0.68 0.303,-1.615 -0.378,-2.086 -0.678,-0.472 -1.614,-0.304 -2.087,0.377 -4.425,6.387 -6.669,11.432 -6.669,14.998 0,8.252 7.391,18.334 16.018,18.334 8.218,0 17.099,-4.697 27.113,-14.347 6.859,7.425 16.255,11.651 26.022,11.651 10.547,0 15.35,-8.959 15.35,-17.283 0,-15.537 -18.178,-32.209 -37.824,-47.91 -0.276,-0.221 -0.607,-0.328 -0.935,-0.328" />
      <path
         id="path558"
         style="fill:#525d7d;fill-opacity:1;fill-rule:nonzero;stroke:none"
         d="m 425.128,221.991 c 0.393,0 0.771,-0.154 1.052,-0.43 0.29,-0.285 0.452,-0.676 0.448,-1.083 -0.004,-0.551 -0.006,-1.104 -0.006,-1.656 0,-2.506 0.04,-5.059 0.081,-7.545 2.919,3.369 6.381,7.089 9.877,10.602 0.272,0.272 0.638,0.43 1.024,0.44 l 39.746,1.047 c -0.62,21.942 -1.394,39.788 -1.403,39.97 -10e-4,1.895 0.019,3.717 0.041,5.532 0.014,1.181 0.027,2.358 0.035,3.535 -0.704,0.003 -1.407,0.005 -2.11,0.005 -4.851,0 -46.398,-0.772 -63.286,-1.979 0.291,-16.338 0.741,-32.418 1.22,-48.787 0,0 13.242,0.348 13.281,0.349 z m 0.14,-16.245 c -0.165,0 -0.332,0.027 -0.493,0.083 -0.596,0.208 -0.998,0.765 -1.007,1.395 l -0.053,3.316 c -0.046,2.714 -0.093,5.519 -0.093,8.282 0,0.043 0,0.086 0,0.129 l -13.192,-0.347 c -0.848,-0.001 -1.514,0.643 -1.538,1.455 -0.51,17.368 -0.991,34.393 -1.29,51.735 -0.014,0.791 0.591,1.457 1.381,1.52 15.925,1.274 59.923,2.094 64.93,2.094 1.208,0 2.418,-0.005 3.628,-0.015 0.825,-0.007 1.489,-0.677 1.488,-1.502 -0.002,-1.682 -0.022,-3.367 -0.041,-5.057 -0.022,-1.804 -0.042,-3.615 -0.042,-5.433 0.007,-0.121 0.818,-18.805 1.444,-41.454 0.012,-0.397 -0.137,-0.783 -0.41,-1.072 -0.273,-0.289 -0.651,-0.458 -1.05,-0.468 l -40.646,-1.07 c -4.394,-4.439 -8.693,-9.166 -11.854,-13.039 -0.29,-0.356 -0.72,-0.552 -1.162,-0.552" />
      <path
         id="path560"
         style="fill:#525d7d;fill-opacity:1;fill-rule:nonzero;stroke:none"
         d="m 436.503,258.153 c -2.084,0 -4.168,0.012 -6.25,0.024 -2.073,0.01 -4.142,0.022 -6.209,0.022 -0.829,0 -1.5,0.672 -1.5,1.5 0,0.828 0.671,1.5 1.5,1.5 2.072,0 4.148,-0.012 6.225,-0.022 2.076,-0.012 4.155,-0.024 6.234,-0.024 7.291,0 15.122,0.128 22.994,1.053 0.805,0.11 1.568,-0.49 1.664,-1.315 0.097,-0.822 -0.492,-1.567 -1.315,-1.664 -8.024,-0.944 -15.961,-1.074 -23.343,-1.074" />
      <path
         id="path562"
         style="fill:#525d7d;fill-opacity:1;fill-rule:nonzero;stroke:none"
         d="m 426.131,250.014 c -0.734,0 -1.376,0.54 -1.483,1.289 -0.117,0.819 0.453,1.58 1.273,1.697 2.198,0.313 4.463,0.412 6.655,0.507 1.527,0.066 3.106,0.134 4.6,0.276 0.807,0.083 1.556,-0.526 1.635,-1.352 0.078,-0.824 -0.526,-1.556 -1.351,-1.634 -1.571,-0.15 -3.189,-0.22 -4.754,-0.287 -2.119,-0.092 -4.309,-0.187 -6.361,-0.481 -0.071,-0.01 -0.143,-0.015 -0.214,-0.015" />
      <path
         id="path564"
         style="fill:#525d7d;fill-opacity:1;fill-rule:nonzero;stroke:none"
         d="m 446.157,250.711 c -0.779,0 -1.438,0.603 -1.494,1.392 -0.06,0.827 0.562,1.545 1.388,1.604 2.128,0.152 4.31,0.207 6.418,0.26 2.758,0.069 5.61,0.14 8.331,0.431 0.825,0.088 1.564,-0.507 1.652,-1.331 0.089,-0.824 -0.508,-1.563 -1.331,-1.651 -2.844,-0.305 -5.758,-0.378 -8.577,-0.448 -2.074,-0.052 -4.219,-0.106 -6.278,-0.253 -0.037,-0.003 -0.073,-0.004 -0.109,-0.004" />
      <path
         id="path566"
         style="fill:#525d7d;fill-opacity:1;fill-rule:nonzero;stroke:none"
         d="m 424.913,241.481 c -0.761,0 -1.413,0.577 -1.491,1.351 -0.083,0.824 0.519,1.559 1.343,1.641 4.019,0.403 8.137,0.578 12.119,0.746 2.961,0.125 6.024,0.255 8.989,0.478 0.825,0.061 1.546,-0.558 1.608,-1.384 0.062,-0.826 -0.558,-1.546 -1.384,-1.608 -3.013,-0.226 -6.1,-0.357 -9.086,-0.484 -3.94,-0.166 -8.014,-0.338 -11.947,-0.732 -0.051,-0.006 -0.102,-0.008 -0.151,-0.008" />
      <path
         id="path568"
         style="fill:#525d7d;fill-opacity:1;fill-rule:nonzero;stroke:none"
         d="m 453.64,243.021 c -0.372,0 -0.746,0.009 -1.122,0.03 -0.827,0.046 -1.46,0.754 -1.414,1.582 0.047,0.827 0.769,1.443 1.582,1.414 1.633,-0.095 3.199,0.07 4.875,0.241 1.375,0.139 2.797,0.283 4.27,0.283 0.828,0 1.5,-0.672 1.5,-1.5 0,-0.828 -0.672,-1.5 -1.5,-1.5 -1.322,0 -2.606,-0.13 -3.966,-0.268 -1.364,-0.138 -2.775,-0.282 -4.225,-0.282" />
      <path
         id="path570"
         style="fill:#525d7d;fill-opacity:1;fill-rule:nonzero;stroke:none"
         d="m 426.479,233.298 c -0.758,0 -1.409,0.572 -1.49,1.342 -0.086,0.825 0.512,1.563 1.335,1.65 1.353,0.141 2.714,0.227 4.028,0.31 2.008,0.127 3.903,0.246 5.82,0.549 0.826,0.13 1.587,-0.43 1.716,-1.247 0.13,-0.818 -0.428,-1.587 -1.247,-1.716 -2.056,-0.325 -4.112,-0.454 -6.099,-0.58 -1.286,-0.081 -2.614,-0.165 -3.904,-0.301 -0.053,-0.004 -0.106,-0.007 -0.159,-0.007" />
      <path
         id="path572"
         style="fill:#525d7d;fill-opacity:1;fill-rule:nonzero;stroke:none"
         d="m 459.567,234.69 -15.846,0 c -0.828,0 -1.5,0.672 -1.5,1.5 0,0.828 0.672,1.5 1.5,1.5 l 15.846,0 c 0.828,0 1.5,-0.672 1.5,-1.5 0,-0.828 -0.672,-1.5 -1.5,-1.5" />
      <path
         id="path574"
         style="fill:#525d7d;fill-opacity:1;fill-rule:nonzero;stroke:none"
         d="m 510.587,310.614 c -0.764,0 -1.417,0.582 -1.491,1.358 -0.078,0.825 0.527,1.557 1.352,1.635 2.259,0.215 4.466,0.237 6.6,0.257 1.393,0.014 2.833,0.028 4.266,0.096 0.855,0.035 1.53,-0.6 1.569,-1.427 0.04,-0.827 -0.599,-1.53 -1.426,-1.569 -1.49,-0.072 -2.959,-0.085 -4.379,-0.1 -2.168,-0.02 -4.215,-0.041 -6.347,-0.243 -0.048,-0.005 -0.096,-0.007 -0.144,-0.007" />
      <path
         id="path576"
         style="fill:#525d7d;fill-opacity:1;fill-rule:nonzero;stroke:none"
         d="m 534.62,310.788 -4.875,0 c -0.828,0 -1.5,0.672 -1.5,1.5 0,0.828 0.672,1.5 1.5,1.5 l 4.875,0 c 0.828,0 1.5,-0.672 1.5,-1.5 0,-0.828 -0.672,-1.5 -1.5,-1.5" />
      <path
         id="path578"
         style="fill:#525d7d;fill-opacity:1;fill-rule:nonzero;stroke:none"
         d="m 533.577,302.256 c -0.026,0 -0.05,0.001 -0.076,0.002 -4.942,0.246 -8.985,0.361 -12.723,0.361 -2.754,0 -5.321,-0.062 -7.85,-0.188 -0.818,-0.041 -1.532,0.596 -1.573,1.423 -0.041,0.828 0.596,1.532 1.423,1.574 2.579,0.128 5.195,0.191 8,0.191 3.79,0 7.88,-0.116 12.873,-0.365 0.827,-0.041 1.464,-0.745 1.423,-1.574 -0.04,-0.801 -0.703,-1.424 -1.497,-1.424" />
      <path
         id="path580"
         style="fill:#525d7d;fill-opacity:1;fill-rule:nonzero;stroke:none"
         d="m 524.17,294.419 c -0.792,0 -1.455,0.62 -1.497,1.421 -0.044,0.827 0.592,1.533 1.419,1.577 3.348,0.177 6.733,0.177 10.005,0.177 0.828,0 1.5,-0.672 1.5,-1.5 0,-0.829 -0.672,-1.5 -1.5,-1.5 -3.233,0 -6.577,0 -9.846,-0.173 -0.028,-10e-4 -0.054,-0.002 -0.081,-0.002" />
      <path
         id="path582"
         style="fill:#525d7d;fill-opacity:1;fill-rule:nonzero;stroke:none"
         d="m 540.471,269.99 c -0.456,0 -0.894,0.208 -1.183,0.578 -3.179,4.079 -5.892,7.453 -8.494,10.56 -4.55,0.107 -8.47,0.227 -10.711,0.296 -1.101,0.034 -1.787,0.055 -1.927,0.055 -0.899,0 -1.797,-0.01 -2.695,-0.033 -0.798,-0.057 -1.517,0.632 -1.538,1.461 -0.021,0.828 0.632,1.517 1.46,1.537 0.925,0.025 1.849,0.035 2.773,0.035 0.142,0 0.861,-0.021 2.018,-0.056 2.347,-0.073 6.539,-0.202 11.368,-0.311 0.43,-0.01 0.836,-0.205 1.113,-0.534 2.179,-2.589 4.418,-5.344 6.928,-8.523 0.416,2.434 0.808,4.943 1.189,7.593 0.106,0.739 0.739,1.287 1.484,1.287 2.17,-0.019 4.246,-0.025 6.31,-0.016 -0.139,12.823 -0.284,25.385 -0.517,37.811 l -2.737,-0.071 c -5.916,-0.158 -12.035,-0.321 -18.044,-0.321 -3.091,0 -4.765,0.035 -6.383,0.068 -1.495,0.031 -2.939,0.062 -5.429,0.062 -3.491,0 -7.047,-0.068 -10.487,-0.132 -2.993,-0.057 -6.074,-0.116 -9.133,-0.129 0.067,-2.625 0.155,-5.245 0.244,-7.864 0.138,-4.119 0.282,-8.376 0.337,-12.585 0.01,-0.829 -0.653,-1.509 -1.481,-1.52 -0.839,0 -1.509,0.659 -1.519,1.481 -0.055,4.177 -0.198,8.419 -0.336,12.523 -0.106,3.14 -0.211,6.28 -0.282,9.429 -0.008,0.403 0.146,0.794 0.428,1.082 0.282,0.288 0.669,0.451 1.072,0.451 l 0.125,-0.001 c 3.492,0 7.048,0.067 10.489,0.132 3.453,0.065 7.024,0.133 10.543,0.133 2.518,0 3.98,-0.031 5.492,-0.062 1.601,-0.034 3.26,-0.068 6.32,-0.068 5.969,0 12.068,0.163 17.965,0.32 l 4.249,0.111 c 0.399,-0.002 0.787,-0.139 1.075,-0.416 0.288,-0.276 0.455,-0.656 0.463,-1.054 0.259,-13.418 0.413,-26.984 0.562,-40.859 0.004,-0.399 -0.152,-0.783 -0.432,-1.068 -0.279,-0.284 -0.662,-0.445 -1.062,-0.447 -2.161,-0.01 -4.299,-0.014 -6.536,0 -0.503,-3.407 -1.03,-6.595 -1.606,-9.707 -0.108,-0.582 -0.545,-1.045 -1.119,-1.185 -0.118,-0.029 -0.238,-0.043 -0.356,-0.043" />
      <path
         id="path584"
         style="fill:#525d7d;fill-opacity:1;fill-rule:nonzero;stroke:none"
         d="m 409.427,321.545 c -3.047,-0.026 -5.524,-2.478 -5.565,-5.467 -0.023,-1.554 0.581,-3.075 1.655,-4.176 1.022,-1.046 2.386,-1.63 3.842,-1.644 1.487,-0.003 2.995,0.596 4.084,1.677 1.083,1.075 1.677,2.496 1.673,4.003 -0.005,1.74 -1.038,3.628 -2.572,4.699 -0.114,0.081 -0.375,0.189 -0.583,0.276 -0.129,0.054 -0.255,0.106 -0.374,0.16 -0.684,0.314 -1.409,0.472 -2.16,0.472 z m -0.012,-14.287 c -0.029,0 -0.057,0 -0.086,0 -2.26,0.022 -4.376,0.927 -5.958,2.548 -1.628,1.668 -2.542,3.969 -2.509,6.314 0.063,4.606 3.875,8.387 8.497,8.425 1.254,-0.001 2.375,-0.239 3.469,-0.74 l 0.287,-0.123 c 0.343,-0.142 0.768,-0.32 1.148,-0.586 2.332,-1.63 3.845,-4.437 3.853,-7.15 0.007,-2.314 -0.903,-4.495 -2.559,-6.141 -1.635,-1.622 -3.869,-2.547 -6.142,-2.547" />
      <path
         id="path586"
         style="fill:#525d7d;fill-opacity:1;fill-rule:nonzero;stroke:none"
         d="m 400.065,290.684 c -0.365,0 -0.719,0.133 -0.994,0.377 -0.312,0.276 -0.494,0.668 -0.505,1.083 -0.021,0.743 -0.022,1.6 -0.022,2.6 0,5.242 0.749,12.596 7.227,15.919 0.736,0.379 1.642,0.088 2.02,-0.651 0.378,-0.737 0.087,-1.64 -0.651,-2.019 -3.87,-1.985 -5.596,-6.071 -5.596,-13.249 0,-0.344 0,-0.671 0,-0.982 3.18,0 6.393,0.14 9.5,0.274 1.981,0.086 4.015,0.175 6.043,0.227 -0.202,6.388 -1.959,10.956 -5.353,13.938 -0.622,0.547 -0.684,1.495 -0.137,2.117 0.547,0.621 1.493,0.684 2.117,0.137 4.302,-3.781 6.393,-9.493 6.393,-17.465 l 0,-0.194 c 0,-0.819 -0.656,-1.487 -1.476,-1.5 -2.478,-0.041 -5.008,-0.151 -7.457,-0.257 -3.138,-0.136 -6.385,-0.277 -9.594,-0.277 -0.422,0 -0.859,-0.022 -1.373,-0.071 -0.048,-0.005 -0.095,-0.007 -0.142,-0.007" />
      <path
         id="path588"
         style="fill:#525d7d;fill-opacity:1;fill-rule:nonzero;stroke:none"
         d="m 418.017,271.24 c -0.302,0 -0.606,0.091 -0.871,0.279 -6.167,4.406 -9.998,11.712 -9.998,19.069 0,0.599 0.025,1.206 0.077,1.802 0.07,0.826 0.791,1.443 1.622,1.367 0.825,-0.071 1.438,-0.796 1.366,-1.622 -0.043,-0.512 -0.065,-1.033 -0.065,-1.547 0,-6.405 3.35,-12.776 8.742,-16.627 0.674,-0.482 0.83,-1.419 0.349,-2.093 -0.293,-0.409 -0.754,-0.628 -1.222,-0.628" />
      <path
         id="path590"
         style="fill:#525d7d;fill-opacity:1;fill-rule:nonzero;stroke:none"
         d="m 523.818,228.428 c 0.577,0 1.109,-0.334 1.357,-0.865 3.536,-7.549 11.526,-10.634 15.776,-11.775 -0.08,1.372 -0.172,2.89 -0.271,4.525 -0.582,9.658 -1.369,22.705 -1.515,33.762 -7.889,-1.632 -13.347,-7.856 -15.412,-10.591 -0.308,-0.407 -0.801,-0.637 -1.309,-0.592 -1.461,0.11 -3.027,0.21 -4.583,0.21 -3.956,0 -13.157,-0.981 -13.157,-10.067 0,-4.072 7.049,-4.927 12.964,-4.927 1.8,0 3.71,0.1 6.01,0.313 0.047,0.005 0.093,0.007 0.14,0.007 z m 18.744,-16.057 c -0.097,0 -0.194,0.01 -0.291,0.028 -3.331,0.658 -14.31,3.5 -19.339,12.945 -1.952,-0.161 -3.645,-0.236 -5.264,-0.236 -10.593,0 -15.964,2.667 -15.964,7.927 0,8.06 6.191,13.067 16.157,13.067 1.365,0 2.717,-0.071 4.001,-0.16 2.785,3.503 9.297,10.288 18.61,11.381 0.43,0.048 0.85,-0.085 1.168,-0.366 0.32,-0.282 0.504,-0.688 0.507,-1.113 0.079,-11.327 0.917,-25.211 1.528,-35.35 0.15,-2.483 0.284,-4.7 0.385,-6.54 0.026,-0.463 -0.164,-0.911 -0.514,-1.215 -0.275,-0.239 -0.626,-0.368 -0.984,-0.368" />
      <path
         id="path592"
         style="fill:#525d7d;fill-opacity:1;fill-rule:nonzero;stroke:none"
         d="m 542.521,228.083 c -0.55,0 -1.08,0.303 -1.343,0.829 -0.37,0.741 -0.07,1.642 0.671,2.013 2.167,1.083 2.939,3.017 2.939,4.467 0,2.009 -1.495,3.908 -3.333,4.231 -0.817,0.143 -1.362,0.922 -1.218,1.737 0.144,0.818 0.927,1.362 1.737,1.218 3.315,-0.584 5.814,-3.673 5.814,-7.186 0,-2.994 -1.762,-5.734 -4.597,-7.151 -0.216,-0.107 -0.444,-0.158 -0.67,-0.158" />
      <path
         id="path594"
         style="fill:#525d7d;fill-opacity:1;fill-rule:nonzero;stroke:none"
         d="m 514.221,227.056 c -0.804,0 -1.469,0.638 -1.498,1.449 -0.038,1.096 -0.085,2.185 -0.132,3.27 -0.102,2.371 -0.209,4.822 -0.209,7.254 0,1.659 0.049,3.168 0.149,4.613 0.056,0.827 0.786,1.463 1.599,1.393 0.827,-0.057 1.451,-0.773 1.393,-1.6 -0.095,-1.376 -0.141,-2.817 -0.141,-4.406 0,-2.367 0.1,-4.678 0.206,-7.124 0.047,-1.094 0.095,-2.191 0.133,-3.297 0.029,-0.828 -0.619,-1.522 -1.447,-1.551 -0.018,-10e-4 -0.035,-10e-4 -0.053,-10e-4" />
      <path
         id="path596"
         style="fill:#525d7d;fill-opacity:1;fill-rule:nonzero;stroke:none"
         d="m 518.273,214.963 c -0.047,0 -0.096,0 -0.145,0.001 l -0.367,0.003 c -2.234,0 -3.848,0 -4.876,1.111 -0.938,1.014 -0.937,2.382 -0.935,4.864 0.001,1.318 0.002,2.957 -0.117,5.1 -0.046,0.827 0.587,1.535 1.415,1.581 0.842,0.032 1.534,-0.589 1.581,-1.415 0.123,-2.227 0.122,-3.985 0.121,-5.269 -0.001,-1.259 -0.002,-2.56 0.162,-2.856 0.253,-0.116 1.811,-0.116 2.649,-0.116 l 0.404,-0.003 c 0.148,-0.002 0.32,-0.004 0.451,-0.001 0.246,0.693 0.499,2.745 0.837,5.482 l 0.225,1.821 c 0.103,0.823 0.86,1.402 1.675,1.302 0.821,-0.102 1.404,-0.852 1.302,-1.675 l -0.225,-1.815 c -0.84,-6.806 -1.002,-8.115 -4.157,-8.115" />
      <path
         id="path598"
         style="fill:#525d7d;fill-opacity:1;fill-rule:nonzero;stroke:none"
         d="m 550.77,241.342 c -0.384,0 -0.767,0.146 -1.06,0.438 -0.586,0.586 -0.586,1.535 -0.001,2.122 0.229,0.23 0.424,0.469 0.618,0.701 0.573,0.693 1.223,1.478 2.406,1.985 0.759,0.325 1.643,-0.026 1.97,-0.788 0.326,-0.761 -0.027,-1.644 -0.788,-1.97 -0.493,-0.211 -0.791,-0.554 -1.278,-1.141 -0.251,-0.302 -0.508,-0.609 -0.805,-0.908 -0.293,-0.293 -0.678,-0.439 -1.062,-0.439" />
      <path
         id="path600"
         style="fill:#525d7d;fill-opacity:1;fill-rule:nonzero;stroke:none"
         d="m 551.291,234.899 c -0.721,0 -1.357,0.521 -1.478,1.256 -0.136,0.816 0.418,1.589 1.235,1.724 0.488,0.081 1.075,0.077 1.659,0.05 0.483,-0.021 0.957,-0.028 1.246,0.067 0.785,0.263 1.636,-0.163 1.897,-0.948 0.262,-0.787 -0.162,-1.636 -0.948,-1.898 -0.644,-0.215 -1.24,-0.239 -1.633,-0.239 -0.234,0 -0.47,0.011 -0.704,0.021 -0.344,0.017 -0.687,0.044 -1.028,-0.012 -0.082,-0.014 -0.165,-0.021 -0.246,-0.021" />
      <path
         id="path602"
         style="fill:#525d7d;fill-opacity:1;fill-rule:nonzero;stroke:none"
         d="m 554.119,226.695 c -1.37,0 -2.405,0.687 -3.317,1.292 -0.255,0.169 -0.51,0.341 -0.777,0.493 -0.719,0.411 -0.968,1.327 -0.557,2.047 0.411,0.719 1.327,0.969 2.047,0.557 0.323,-0.185 0.637,-0.392 0.946,-0.598 0.698,-0.463 1.257,-0.84 1.787,-0.782 0.835,0.095 1.569,-0.488 1.669,-1.31 0.098,-0.823 -0.488,-1.57 -1.31,-1.669 -0.167,-0.02 -0.329,-0.03 -0.488,-0.03" />
      <path
         id="path604"
         style="fill:#525d7d;fill-opacity:1;fill-rule:nonzero;stroke:none"
         d="m 437.452,335.268 c -0.786,0 -1.447,0.612 -1.496,1.406 -0.052,0.827 0.576,1.539 1.402,1.591 1.109,0.071 2.25,0.106 3.391,0.106 0.224,0 0.482,-0.006 0.769,-0.02 0.828,-0.036 1.469,-0.737 1.432,-1.564 -0.036,-0.828 -0.751,-1.509 -1.565,-1.432 -0.238,0.01 -0.451,0.016 -0.636,0.016 -1.079,0 -2.156,-0.033 -3.202,-0.1 -0.032,-0.002 -0.064,-0.003 -0.095,-0.003 z m -12.673,-2.655 c -0.602,0 -1.169,0.364 -1.399,0.959 -0.299,0.772 0.085,1.641 0.858,1.939 1.257,0.488 2.588,0.92 3.954,1.287 0.797,0.214 1.622,-0.26 1.837,-1.06 0.215,-0.8 -0.259,-1.623 -1.06,-1.837 -1.262,-0.34 -2.491,-0.739 -3.649,-1.186 -0.178,-0.07 -0.36,-0.102 -0.541,-0.102 z m 29.162,-0.604 c -0.218,0 -0.439,0.046 -0.648,0.148 -1.138,0.547 -2.33,1.037 -3.54,1.458 -0.784,0.272 -1.197,1.127 -0.925,1.909 0.272,0.783 1.125,1.197 1.909,0.925 1.318,-0.458 2.615,-0.992 3.854,-1.589 0.747,-0.358 1.062,-1.255 0.703,-2.001 -0.258,-0.537 -0.794,-0.85 -1.353,-0.85 z m -39.65,-6.768 c -0.29,0 -0.583,0.084 -0.841,0.259 -0.686,0.465 -0.864,1.397 -0.4,2.083 0.751,1.106 1.754,2.193 2.983,3.231 0.633,0.533 1.58,0.454 2.114,-0.178 0.534,-0.633 0.454,-1.58 -0.179,-2.115 -1.019,-0.86 -1.839,-1.743 -2.435,-2.622 -0.29,-0.428 -0.762,-0.658 -1.242,-0.658 z m 49.988,-0.974 c -0.414,0 -0.826,0.17 -1.122,0.504 -0.842,0.948 -1.752,1.85 -2.703,2.682 -0.624,0.545 -0.688,1.493 -0.142,2.116 0.543,0.622 1.492,0.689 2.116,0.142 1.046,-0.914 2.046,-1.907 2.971,-2.948 0.551,-0.619 0.494,-1.566 -0.125,-2.117 -0.285,-0.254 -0.642,-0.379 -0.995,-0.379" />
      <path
         id="path606"
         style="fill:#525d7d;fill-opacity:1;fill-rule:nonzero;stroke:none"
         d="m 467.061,321.278 c 0.061,-0.022 0.121,-0.046 0.183,-0.068 0.847,-0.318 1.71,-0.64 2.571,-0.956 -0.183,0.831 -0.359,1.669 -0.52,2.512 -0.219,-0.146 -0.438,-0.29 -0.656,-0.432 -0.538,-0.356 -1.065,-0.702 -1.578,-1.056 z m 4.821,-4.858 c -0.165,0 -0.331,0.027 -0.491,0.083 -1.722,0.595 -3.489,1.258 -5.199,1.897 -0.956,0.358 -1.875,0.701 -2.719,1.008 -0.5,0.183 -0.866,0.616 -0.963,1.14 -0.095,0.523 0.093,1.058 0.496,1.406 1.288,1.111 2.659,2.013 3.985,2.886 0.87,0.572 1.692,1.113 2.494,1.71 0.425,0.316 0.982,0.384 1.472,0.181 0.487,-0.202 0.833,-0.647 0.908,-1.171 0.335,-2.32 0.878,-4.682 1.402,-6.967 l 0.077,-0.338 c 0.122,-0.532 -0.053,-1.087 -0.46,-1.452 -0.279,-0.25 -0.637,-0.383 -1.002,-0.383" />
    </g>
  </g>
</svg>
