<?xml version="1.0" encoding="UTF-8" standalone="no"?>
<svg
   xmlns:dc="http://purl.org/dc/elements/1.1/"
   xmlns:cc="http://creativecommons.org/ns#"
   xmlns:rdf="http://www.w3.org/1999/02/22-rdf-syntax-ns#"
   xmlns:svg="http://www.w3.org/2000/svg"
   xmlns="http://www.w3.org/2000/svg"
   version="1.1"
   id="svg6560"
   viewBox="0 0 175.508 163.219"
   height="163.21899"
   width="175.508">
  <defs
     id="defs6562" />
  <metadata
     id="metadata6565">
    <rdf:RDF>
      <cc:Work
         rdf:about="">
        <dc:format>image/svg+xml</dc:format>
        <dc:type
           rdf:resource="http://purl.org/dc/dcmitype/StillImage" />
        <dc:title></dc:title>
      </cc:Work>
    </rdf:RDF>
  </metadata>
  <g
     transform="translate(0,-889.14316)"
     id="layer1">
    <g
       id="g6538"
       transform="matrix(1.25,0,0,-1.25,-267.225,1300.6423)">
      <path
         id="path148"
         style="fill:#e0dfe6;fill-opacity:1;fill-rule:nonzero;stroke:none"
         d="m 252.738,313.17 c -1.511,2.558 -6.145,3.098 -7.501,0 -1.46,-3.332 -1.193,-5.764 -0.864,-9.383 0.164,-1.798 0.347,-3.596 0.527,-5.392 0.257,-2.565 0.886,-2.949 -1.668,-3.084 -5.259,-0.278 -14.764,0.459 -18.706,-3.532 -0.613,-0.62 -0.651,-1.715 0,-2.331 3.058,-2.894 8.286,-2.389 12.248,-2.364 4.118,0.025 10.324,-0.766 14.035,1.435 3.161,1.876 3.741,5.626 3.762,8.977 0.031,4.978 0.754,11.295 -1.833,15.674" />
      <path
         id="path150"
         style="fill:#e0dfe6;fill-opacity:1;fill-rule:nonzero;stroke:none"
         d="m 275.656,315.577 c -0.126,3.828 -5.754,5.911 -7.657,2.074 -2.833,-5.709 -1.61,-12.254 -2.111,-18.43 -0.537,-6.629 -2.834,-12.745 -7.752,-17.345 -4.564,-4.269 -10.33,-7.654 -15.979,-10.267 -5.33,-2.466 -11.743,-3.434 -16.441,-7.034 -1.17,-0.897 -1.087,-2.635 0.411,-3.142 6.179,-2.09 13.297,0.672 19.035,3.049 6.565,2.72 12.816,6.289 18.173,10.993 5.137,4.511 8.42,10.403 9.945,17.044 1.657,7.219 2.618,15.694 2.376,23.058" />
      <path
         id="path152"
         style="fill:#e0dfe6;fill-opacity:1;fill-rule:nonzero;stroke:none"
         d="m 328.939,315.534 c -2.942,3.1 -6.922,2.566 -10.623,1.12 -2.384,-0.932 -3.341,-1.924 -6.1,-0.624 -0.673,0.316 -1.201,0.983 -1.89,1.309 -2.041,0.964 -3.98,0.861 -6.005,-0.069 -1.676,-0.771 -4.129,-3.552 -5.569,-3.167 -1.117,0.299 -2.31,2.517 -3.656,3.058 -3.979,1.6 -6.883,-1.559 -10.062,-3.365 -1.451,-0.825 -0.772,-3.034 0.832,-3.072 1.68,-0.04 3.27,0.794 4.832,0.793 2.272,-0.002 2.072,-1.09 3.522,-2.674 2.43,-2.653 5.433,-2.561 8.575,-1.288 1.522,0.617 3.374,2.426 5.046,2.136 1.542,-0.266 2.93,-2.025 4.762,-2.297 4.617,-0.687 8.376,3.502 12.793,2.055 3.588,-1.175 5.934,3.565 3.543,6.085" />
      <path
         id="path154"
         style="fill:#e0dfe6;fill-opacity:1;fill-rule:nonzero;stroke:none"
         d="m 350.041,236.114 c 3.387,0.773 5.928,4.922 2.559,8.072 -4.502,4.208 -10.332,7.418 -15.974,10.028 0.393,0.709 0.618,1.569 0.597,2.586 -0.197,9.752 -0.144,19.756 -1.34,29.445 -0.678,5.49 -3.868,14.848 -11.155,12.922 -0.943,-0.249 -1.603,-1.335 -1.299,-2.287 0.805,-2.522 2.436,-4.616 3.077,-7.203 0.137,-0.553 0.229,-1.117 0.305,-1.686 -0.066,0.011 -0.127,0.03 -0.194,0.036 -9.073,0.812 -18.739,-0.491 -27.867,-0.698 -8.442,-0.192 -18.177,1.022 -26.193,-2.029 -1.098,-0.419 -1.04,-1.748 0,-2.185 8.161,-3.435 18.547,-2.199 27.189,-2.109 8.832,0.092 18.491,-0.37 27.204,1.271 -0.038,-1.035 -0.084,-2.063 -0.096,-3.064 -0.089,-7.475 -0.161,-14.938 -0.052,-22.413 0.05,-3.446 2.84,-5.12 5.521,-5.023 1.819,-2.406 3.599,-4.653 5.752,-6.834 2.166,-2.193 4.812,-4.214 6.692,-6.666 -4.124,-0.021 -6.836,-3.442 -8.211,-7.138 -2.325,-6.246 -4.141,-12.767 -6.074,-19.144 -0.318,-1.05 -0.329,-1.991 -0.125,-2.816 -0.123,-0.07 -0.245,-0.142 -0.368,-0.211 -1.719,-0.972 -2.887,-2.048 -4.823,-1.784 -1.644,0.224 -3.555,1.496 -4.975,2.257 -3.652,1.959 -7.119,5.727 -11.103,7.194 0.41,2.45 -0.676,5.061 -3.649,5.649 -5.158,1.02 -10.646,0.124 -15.885,-0.091 -5.8,-0.237 -11.603,-0.387 -17.407,-0.45 -10.421,-0.112 -20.78,0.061 -31.157,0.632 -3.517,0.193 -4.428,-4.017 -2.608,-6.295 2.987,-3.738 8.032,-4.077 12.492,-4.393 6.119,-0.434 12.238,-0.628 18.372,-0.719 5.802,-0.086 11.605,-0.085 17.407,0.005 5.643,0.086 12.1,-0.511 17.641,0.893 2.616,-7.006 14.571,-12.723 20.838,-13.213 5.027,-0.393 11.021,3.319 15.622,5.126 4.277,1.68 10.803,3.266 12.595,8.01 1.759,4.657 -0.305,11.819 -0.808,16.659 -0.296,2.838 -0.793,5.747 -2.5,7.666" />
      <path
         id="path156"
         style="fill:#525d7d;fill-opacity:1;fill-rule:nonzero;stroke:none"
         d="m 326.284,200.671 c -0.263,0 -0.523,0.068 -0.757,0.204 -2.735,1.596 -5.482,3.268 -8.138,4.885 -4.354,2.65 -8.855,5.39 -13.427,7.865 -0.496,0.268 -0.799,0.791 -0.785,1.354 0.18,7.781 0.482,18.006 1.218,28.107 0.037,0.509 0.33,0.962 0.778,1.208 1.363,0.743 2.99,1.606 4.73,2.373 0.34,0.15 0.988,0.445 1.87,0.847 3.308,1.507 9.464,4.313 15.325,6.75 0.381,0.159 0.81,0.155 1.186,-0.014 5.748,-2.558 13.034,-6.475 21.655,-11.643 0.459,-0.275 0.738,-0.775 0.729,-1.31 -0.057,-3.411 -0.161,-6.881 -0.261,-10.238 -0.15,-4.987 -0.304,-10.144 -0.304,-15.189 0,-1.475 0.013,-2.947 0.042,-4.419 0.013,-0.632 -0.372,-1.204 -0.961,-1.431 -4.795,-1.842 -9.642,-3.873 -14.329,-5.836 -2.151,-0.9 -4.303,-1.802 -6.463,-2.691 -0.465,-0.191 -0.933,-0.407 -1.429,-0.66 -0.214,-0.108 -0.447,-0.162 -0.679,-0.162 z m -20.087,15.152 c 4.358,-2.391 8.621,-4.986 12.752,-7.501 2.42,-1.474 4.915,-2.992 7.399,-4.451 0.304,0.142 0.602,0.272 0.901,0.395 2.155,0.888 4.301,1.788 6.447,2.685 4.39,1.839 8.919,3.735 13.432,5.491 -0.017,1.142 -0.025,2.285 -0.025,3.428 0,5.09 0.156,10.269 0.306,15.278 0.091,3.063 0.186,6.22 0.243,9.331 -7.9,4.712 -14.622,8.33 -20,10.766 -5.632,-2.359 -11.456,-5.012 -14.635,-6.46 -0.898,-0.409 -1.557,-0.71 -1.903,-0.862 -1.348,-0.595 -2.641,-1.26 -3.785,-1.875 -0.663,-9.376 -0.955,-18.818 -1.132,-26.225" />
      <path
         id="path158"
         style="fill:#525d7d;fill-opacity:1;fill-rule:nonzero;stroke:none"
         d="m 326.893,227.385 c -0.3,0 -0.598,0.09 -0.855,0.267 -4.183,2.905 -14.575,10.102 -20.726,14.216 -0.689,0.461 -0.874,1.393 -0.413,2.081 0.46,0.69 1.391,0.874 2.081,0.413 5.791,-3.874 15.316,-10.463 19.929,-13.662 8.684,5.775 14.523,8.502 19.694,10.917 l 1.921,0.901 c 0.747,0.355 1.643,0.035 1.997,-0.715 0.354,-0.749 0.033,-1.644 -0.716,-1.998 l -1.932,-0.906 c -5.239,-2.447 -11.177,-5.22 -20.143,-11.259 -0.253,-0.17 -0.545,-0.255 -0.837,-0.255" />
      <path
         id="path160"
         style="fill:#525d7d;fill-opacity:1;fill-rule:nonzero;stroke:none"
         d="m 327.245,201.945 c -0.052,0 -0.104,0.003 -0.156,0.008 -0.824,0.085 -1.423,0.822 -1.338,1.647 0.184,1.771 0.272,3.675 0.272,5.822 0,2.805 -0.153,5.692 -0.302,8.484 -0.15,2.817 -0.305,5.73 -0.305,8.587 0,0.805 0.013,1.607 0.04,2.407 0.028,0.827 0.733,1.476 1.55,1.448 0.828,-0.029 1.476,-0.723 1.448,-1.551 -0.027,-0.766 -0.038,-1.534 -0.038,-2.304 0,-2.776 0.152,-5.649 0.301,-8.427 0.151,-2.832 0.306,-5.759 0.306,-8.644 0,-2.251 -0.094,-4.256 -0.287,-6.131 -0.081,-0.772 -0.732,-1.346 -1.491,-1.346" />
      <path
         id="path162"
         style="fill:#525d7d;fill-opacity:1;fill-rule:nonzero;stroke:none"
         d="m 236.186,213.523 c -0.812,0 -1.477,0.647 -1.499,1.458 -0.083,2.969 -0.178,5.944 -0.274,8.921 -0.257,8.019 -0.523,16.31 -0.523,24.443 0,3.737 0.047,5.834 0.084,7.518 0.028,1.245 0.052,2.321 0.052,3.752 0,1.849 -0.034,3.698 -0.067,5.547 -0.017,0.932 -0.034,1.862 -0.047,2.794 -0.012,0.828 0.651,1.509 1.479,1.521 0.855,0 1.509,-0.652 1.521,-1.48 0.013,-0.927 0.029,-1.854 0.046,-2.781 0.034,-1.867 0.068,-3.734 0.068,-5.601 0,-1.456 -0.024,-2.552 -0.053,-3.819 -0.039,-1.757 -0.083,-3.748 -0.083,-7.451 0,-8.085 0.265,-16.352 0.522,-24.346 0.08,-2.493 0.159,-4.985 0.232,-7.471 l 67.034,0.232 c 0.831,0 1.502,-0.668 1.505,-1.496 0.003,-0.828 -0.666,-1.501 -1.494,-1.504 0,0 -68.497,-0.237 -68.503,-0.237" />
      <path
         id="path164"
         style="fill:#525d7d;fill-opacity:1;fill-rule:nonzero;stroke:none"
         d="m 326.948,255.343 c -0.771,0 -1.427,0.591 -1.493,1.373 -0.394,4.656 -0.586,9.748 -0.586,15.566 0,5.334 0.158,10.755 0.31,15.997 0.054,1.857 0.109,3.713 0.156,5.567 l 0.001,0.107 c 0,3.491 -4.532,5.351 -7.804,5.351 -0.193,0 -0.383,-0.006 -0.57,-0.019 l -50.705,-0.608 c -0.848,0.018 -1.508,0.653 -1.518,1.482 -0.01,0.828 0.654,1.508 1.482,1.518 l 50.623,0.605 c 0.171,0.014 0.428,0.022 0.688,0.022 5.196,0 10.804,-3.193 10.804,-8.351 l -0.002,-0.189 c -0.048,-1.852 -0.102,-3.712 -0.156,-5.573 -0.152,-5.221 -0.309,-10.618 -0.309,-15.909 0,-5.734 0.188,-10.742 0.575,-15.312 0.07,-0.827 -0.542,-1.552 -1.368,-1.622 -0.043,-0.003 -0.086,-0.005 -0.128,-0.005" />
      <path
         id="path166"
         style="fill:#525d7d;fill-opacity:1;fill-rule:nonzero;stroke:none"
         d="m 219.579,260.541 c -2.793,0 -5.799,1.974 -5.799,6.309 0,3.642 2.93,5.878 5.03,5.878 0.244,0 0.491,-0.022 0.738,-0.048 0.145,-0.015 0.288,-0.033 0.43,-0.033 0.947,0 1.675,-0.368 2.26,-0.664 l 0.142,-0.072 c 2.089,-1.044 3.137,-4.012 3.137,-5.38 0,-2.501 -2.258,-5.99 -5.938,-5.99 z m -0.769,9.187 c -0.522,0 -2.03,-0.989 -2.03,-2.878 0,-3.15 2.332,-3.309 2.799,-3.309 2.035,0 2.938,2.167 2.938,2.99 0,0.548 -0.703,2.31 -1.479,2.697 l -0.154,0.079 c -0.43,0.217 -0.685,0.34 -0.906,0.34 -0.244,0 -0.491,0.023 -0.739,0.049 -0.144,0.015 -0.287,0.032 -0.429,0.032" />
      <path
         id="path168"
         style="fill:#525d7d;fill-opacity:1;fill-rule:nonzero;stroke:none"
         d="m 268.724,317.386 c -3.104,0 -5.535,2.583 -5.535,5.878 0,2.264 1.176,4.269 3.147,5.365 0.693,0.384 1.39,0.57 2.132,0.57 3.075,0 6.368,-2.403 6.368,-5.98 0,-3.216 -2.742,-5.833 -6.112,-5.833 z m -0.931,8.62 c -1.02,-0.568 -1.604,-1.567 -1.604,-2.742 0,-1.429 0.87,-2.878 2.535,-2.878 1.53,0 3.112,1.06 3.112,2.833 0,1.706 -1.778,2.98 -3.368,2.98 -0.152,0 -0.366,-0.022 -0.675,-0.193" />
      <path
         id="path170"
         style="fill:#525d7d;fill-opacity:1;fill-rule:nonzero;stroke:none"
         d="m 329.263,308.715 c -0.363,0 -0.725,0.13 -1.014,0.394 -1.75,1.605 -3.449,3.231 -5.094,4.803 -0.513,0.491 -1.026,0.981 -1.541,1.473 -0.758,-0.536 -1.513,-1.072 -2.268,-1.608 -1.583,-1.123 -3.165,-2.246 -4.773,-3.369 -0.568,-0.399 -1.334,-0.353 -1.853,0.106 -1.354,1.199 -2.51,2.574 -3.629,3.904 -0.568,0.676 -1.149,1.367 -1.753,2.029 -1.282,-0.989 -2.545,-2.024 -3.776,-3.034 -1.027,-0.842 -2.052,-1.682 -3.091,-2.501 -0.617,-0.487 -1.508,-0.413 -2.038,0.17 -0.869,0.956 -1.698,1.965 -2.499,2.939 -0.775,0.945 -1.52,1.851 -2.294,2.709 l -0.358,-0.238 c -2.247,-1.488 -4.57,-3.027 -6.644,-4.749 -0.306,-0.255 -0.696,-0.382 -1.098,-0.339 -0.396,0.037 -0.761,0.23 -1.015,0.536 -1.914,2.312 -3.972,4.757 -6.239,7.025 -0.586,0.586 -0.586,1.535 0,2.121 0.586,0.586 1.536,0.586 2.121,0 1.985,-1.986 3.794,-4.075 5.485,-6.098 1.863,1.442 3.825,2.741 5.734,4.005 l 1.408,0.937 c 0.602,0.401 1.404,0.318 1.908,-0.201 1.18,-1.21 2.263,-2.528 3.31,-3.803 0.482,-0.586 0.974,-1.186 1.473,-1.771 0.647,0.523 1.291,1.05 1.935,1.578 1.595,1.308 3.244,2.66 4.944,3.921 0.596,0.441 1.424,0.382 1.95,-0.14 1.029,-1.019 1.946,-2.111 2.834,-3.166 0.826,-0.983 1.619,-1.925 2.467,-2.78 1.26,0.885 2.508,1.771 3.755,2.655 1.09,0.775 2.182,1.549 3.281,2.324 0.584,0.412 1.376,0.355 1.895,-0.138 0.82,-0.777 1.632,-1.553 2.444,-2.329 1.632,-1.562 3.32,-3.177 5.047,-4.76 0.61,-0.559 0.652,-1.509 0.092,-2.119 -0.296,-0.322 -0.701,-0.486 -1.106,-0.486" />
      <path
         id="path172"
         style="fill:#525d7d;fill-opacity:1;fill-rule:nonzero;stroke:none"
         d="m 242.734,291.157 c -3.2,0 -6.442,0.076 -9.578,0.15 -3.122,0.073 -6.35,0.148 -9.522,0.148 l -0.336,0 c -0.779,0 -1.428,0.597 -1.494,1.373 -0.151,1.772 -0.224,3.686 -0.224,5.852 0,2.29 0.081,4.612 0.159,6.857 0.078,2.216 0.158,4.508 0.158,6.737 0,0.625 -0.006,1.249 -0.02,1.873 -0.018,0.785 0.574,1.451 1.356,1.526 2.915,0.282 6.005,0.418 9.443,0.418 4.595,0 9.195,-0.246 13.513,-0.5 0.816,-0.048 1.443,-0.739 1.411,-1.556 -0.056,-1.437 -0.083,-2.94 -0.083,-4.597 0,-3.258 0.111,-6.585 0.217,-9.802 0.077,-2.305 0.154,-4.611 0.193,-6.916 0.014,-0.826 -0.642,-1.508 -1.468,-1.526 -1.242,-0.026 -2.483,-0.037 -3.725,-0.037 z m -18.039,3.295 c 2.859,-0.014 5.738,-0.081 8.531,-0.147 3.829,-0.089 7.785,-0.178 11.67,-0.136 -0.041,1.79 -0.1,3.579 -0.16,5.368 -0.108,3.241 -0.219,6.593 -0.219,9.901 0,1.142 0.013,2.213 0.038,3.242 -3.842,0.219 -7.875,0.411 -11.879,0.411 -2.804,0 -5.364,-0.092 -7.78,-0.284 0,-0.177 0.001,-0.355 0.001,-0.533 0,-2.282 -0.081,-4.601 -0.159,-6.842 -0.078,-2.219 -0.158,-4.514 -0.158,-6.752 0,-1.53 0.037,-2.925 0.115,-4.228" />
      <path
         id="path174"
         style="fill:#525d7d;fill-opacity:1;fill-rule:nonzero;stroke:none"
         d="m 223.371,292.557 c -0.383,0 -0.767,0.146 -1.06,0.439 -0.586,0.586 -0.586,1.535 0,2.121 3.327,3.328 6.947,6.392 10.448,9.353 3.805,3.222 7.742,6.553 11.177,10.138 0.573,0.599 1.522,0.619 2.121,0.045 0.598,-0.573 0.618,-1.522 0.045,-2.121 -3.544,-3.697 -7.54,-7.08 -11.406,-10.352 -3.453,-2.923 -7.025,-5.945 -10.264,-9.184 -0.293,-0.293 -0.677,-0.439 -1.061,-0.439" />
      <path
         id="path176"
         style="fill:#525d7d;fill-opacity:1;fill-rule:nonzero;stroke:none"
         d="m 246.454,291.979 c -0.394,0 -0.788,0.155 -1.082,0.461 -3.749,3.906 -8.121,7.468 -12.348,10.912 -3.499,2.852 -7.118,5.8 -10.403,8.955 -0.598,0.573 -0.617,1.523 -0.044,2.121 0.574,0.597 1.525,0.616 2.121,0.042 3.198,-3.07 6.768,-5.979 10.221,-8.791 4.297,-3.502 8.741,-7.124 12.617,-11.161 0.573,-0.597 0.554,-1.548 -0.044,-2.121 -0.29,-0.279 -0.665,-0.418 -1.038,-0.418" />
      <path
         id="path178"
         style="fill:#525d7d;fill-opacity:1;fill-rule:nonzero;stroke:none"
         d="m 264.929,241.28 c -0.339,0 -0.679,0.114 -0.96,0.348 -3.206,2.673 -6.116,5.661 -8.929,8.552 -0.685,0.704 -1.369,1.407 -2.058,2.107 -0.519,0.526 -0.577,1.353 -0.137,1.947 1.238,1.667 2.419,3.469 3.562,5.211 1.825,2.783 3.711,5.661 5.945,8.194 0.548,0.62 1.497,0.678 2.118,0.132 0.621,-0.548 0.68,-1.496 0.132,-2.117 -2.093,-2.372 -3.92,-5.159 -5.686,-7.853 -0.936,-1.428 -1.898,-2.895 -2.907,-4.316 0.394,-0.404 0.787,-0.808 1.181,-1.213 2.76,-2.836 5.613,-5.767 8.7,-8.34 0.636,-0.53 0.722,-1.476 0.192,-2.112 -0.297,-0.356 -0.724,-0.54 -1.153,-0.54" />
      <path
         id="path180"
         style="fill:#525d7d;fill-opacity:1;fill-rule:nonzero;stroke:none"
         d="m 275.057,242.612 c -0.124,0 -0.251,0.016 -0.377,0.048 -0.802,0.208 -1.284,1.026 -1.076,1.829 2.085,8.038 5.894,15.421 9.617,22.295 0.394,0.727 1.304,1 2.034,0.605 0.728,-0.395 0.999,-1.306 0.604,-2.035 -3.635,-6.71 -7.351,-13.907 -9.35,-21.619 -0.176,-0.674 -0.785,-1.123 -1.452,-1.123" />
      <path
         id="path182"
         style="fill:#525d7d;fill-opacity:1;fill-rule:nonzero;stroke:none"
         d="m 291.465,240.621 c -0.384,0 -0.768,0.147 -1.06,0.44 -0.587,0.585 -0.587,1.535 0,2.121 1.04,1.039 1.813,2.223 2.631,3.476 0.655,1.002 1.331,2.038 2.182,3.06 1.462,1.753 2.978,3.44 4.821,5.359 -0.909,1.139 -1.784,2.295 -2.637,3.422 -1.652,2.185 -3.361,4.444 -5.307,6.553 -0.563,0.609 -0.524,1.557 0.084,2.12 0.61,0.559 1.559,0.523 2.119,-0.085 2.047,-2.217 3.801,-4.535 5.497,-6.778 1.095,-1.448 2.227,-2.945 3.403,-4.362 0.49,-0.592 0.454,-1.457 -0.082,-2.007 -2.22,-2.27 -3.945,-4.165 -5.593,-6.143 -0.739,-0.887 -1.34,-1.806 -1.975,-2.779 -0.866,-1.326 -1.762,-2.697 -3.023,-3.957 -0.292,-0.293 -0.676,-0.44 -1.06,-0.44" />
      <path
         id="path184"
         style="fill:#525d7d;fill-opacity:1;fill-rule:nonzero;stroke:none"
         d="m 296.947,285.921 c -4.789,0 -9.578,0.015 -14.364,0.032 -7.403,0.024 -14.8,0.05 -22.178,0.015 -0.833,0 -1.504,0.667 -1.508,1.493 -0.004,0.828 0.665,1.503 1.493,1.507 7.387,0.036 14.792,0.009 22.203,-0.015 4.783,-0.017 9.568,-0.032 14.354,-0.032 8.099,0 18.791,0.04 29.676,0.347 0.816,0.054 1.519,-0.628 1.542,-1.456 0.023,-0.828 -0.629,-1.518 -1.457,-1.542 -10.923,-0.309 -21.642,-0.349 -29.761,-0.349" />
      <path
         id="path186"
         style="fill:#525d7d;fill-opacity:1;fill-rule:nonzero;stroke:none"
         d="m 224.523,264.569 c -0.789,0 -1.451,0.617 -1.496,1.416 -0.047,0.827 0.586,1.535 1.414,1.582 1.286,0.072 2.583,0.198 3.854,0.375 0.819,0.119 1.578,-0.458 1.693,-1.278 0.114,-0.82 -0.459,-1.578 -1.279,-1.693 -1.352,-0.188 -2.731,-0.323 -4.1,-0.4 -0.028,-0.001 -0.057,-0.002 -0.086,-0.002 z m 12.704,2.502 c -0.618,0 -1.197,0.385 -1.414,1.001 -0.275,0.782 0.134,1.639 0.916,1.914 1.213,0.428 2.416,0.915 3.574,1.448 0.751,0.347 1.643,0.018 1.99,-0.734 0.346,-0.753 0.017,-1.643 -0.735,-1.99 -1.242,-0.572 -2.531,-1.095 -3.832,-1.554 -0.165,-0.058 -0.333,-0.085 -0.499,-0.085 z m 11.427,6.083 c -0.458,0 -0.911,0.209 -1.206,0.606 -0.494,0.665 -0.355,1.604 0.31,2.098 1.023,0.761 2.031,1.582 2.994,2.442 0.619,0.55 1.566,0.498 2.118,-0.12 0.551,-0.619 0.497,-1.567 -0.121,-2.119 -1.029,-0.918 -2.107,-1.797 -3.202,-2.611 -0.268,-0.199 -0.583,-0.296 -0.893,-0.296 z m 9.189,9.13 c -0.317,0 -0.636,0.1 -0.908,0.307 -0.659,0.502 -0.787,1.443 -0.285,2.102 0.777,1.02 1.525,2.089 2.224,3.176 0.448,0.696 1.375,0.899 2.072,0.451 0.698,-0.447 0.9,-1.375 0.452,-2.072 -0.741,-1.154 -1.535,-2.289 -2.36,-3.373 -0.296,-0.387 -0.743,-0.591 -1.195,-0.591 z m 6.488,11.222 c -0.196,0 -0.395,0.038 -0.587,0.12 -0.762,0.324 -1.117,1.205 -0.793,1.968 0.504,1.181 0.974,2.404 1.396,3.633 0.269,0.782 1.121,1.201 1.906,0.929 0.784,-0.268 1.201,-1.123 0.931,-1.906 -0.446,-1.295 -0.941,-2.584 -1.472,-3.832 -0.243,-0.57 -0.798,-0.912 -1.381,-0.912 z m 3.692,12.434 c -0.087,0 -0.176,0.008 -0.266,0.024 -0.815,0.145 -1.358,0.925 -1.212,1.741 0.227,1.268 0.415,2.566 0.559,3.858 0.091,0.823 0.837,1.407 1.656,1.326 0.823,-0.092 1.417,-0.834 1.325,-1.658 -0.151,-1.356 -0.348,-2.721 -0.587,-4.055 -0.13,-0.726 -0.762,-1.236 -1.475,-1.236" />
    </g>
  </g>
</svg>
