<?xml version="1.0" encoding="UTF-8" standalone="no"?>
<svg
   xmlns:dc="http://purl.org/dc/elements/1.1/"
   xmlns:cc="http://creativecommons.org/ns#"
   xmlns:rdf="http://www.w3.org/1999/02/22-rdf-syntax-ns#"
   xmlns:svg="http://www.w3.org/2000/svg"
   xmlns="http://www.w3.org/2000/svg"
   version="1.1"
   id="svg5249"
   viewBox="0 0 193.81 156.15"
   height="156.14999"
   width="193.81">
  <defs
     id="defs5251" />
  <metadata
     id="metadata5254">
    <rdf:RDF>
      <cc:Work
         rdf:about="">
        <dc:format>image/svg+xml</dc:format>
        <dc:type
           rdf:resource="http://purl.org/dc/dcmitype/StillImage" />
        <dc:title></dc:title>
      </cc:Work>
    </rdf:RDF>
  </metadata>
  <g
     transform="translate(0,-896.21216)"
     id="layer1">
    <g
       id="g5178"
       transform="matrix(1.25,0,0,-1.25,-751.69375,1066.8547)">
      <path
         id="path580"
         style="fill:#e0dfe6;fill-opacity:1;fill-rule:nonzero;stroke:none"
         d="m 743.74,127.051 c -0.762,2.56 -2.274,4.611 -5.053,5.776 -1.689,0.707 -2.855,-1.507 -2.18,-2.835 1.077,-2.115 2.153,-3.764 2.134,-6.241 -0.015,-1.928 1.823,-3.133 3.6,-2.743 6.147,1.347 9.768,-5.797 4.247,-9.372 -3.752,-2.43 -8.076,-3.549 -12.162,-5.179 -0.76,-0.303 -1.385,-0.736 -1.904,-1.238 -1.715,1.149 -3.976,1.443 -5.856,0.174 -6.683,-4.513 -13.391,-8.7789 -20.611,-12.3977 -7.135,-3.5758 -14.988,-7.557 -22.808,-9.2355 -1.527,-0.3278 -2.581,-1.9258 -2.604,-3.4203 -0.085,-5.7231 0.103,-11.4399 0.438,-17.1504 -1.387,-5.125 -1.465,-10.6313 -1.775,-15.9239 -0.37,-6.3297 -0.467,-12.6738 -0.259,-19.0097 -3.333,0.9761 -6.555,2.5117 -9.706,3.8242 -4.605,1.918 -9.309,3.4836 -13.949,5.3008 -1.427,0.559 -2.52,-0.6047 -2.68,-1.87 -5.841,2.9918 -12.625,7.2625 -18.924,7.4661 -1.962,0.0632 -3.009,-2.1442 -2.152,-3.75 3.636,-6.8168 13.664,-11.3149 20.339,-14.6743 1.754,-0.8824 3.53,-1.7304 5.315,-2.564 -5.719,-1.5996 -11.563,-2.2168 -17.268,-3.634 -2.586,-0.6422 -2.085,-3.916 0,-4.7609 6.052,-2.4536 12.632,-2.3254 19.013,-1.3325 3.774,0.5875 9.032,1.4149 12.894,3.5817 1.609,-0.6039 3.219,-1.2067 4.838,-1.768 3.66,-1.2687 7.329,-2.6683 11.251,-2.0953 4.662,0.6812 9.121,3.7191 13.266,5.8039 4.109,2.0672 8.216,4.1414 12.33,6.1973 4.257,2.1269 9.786,3.791 12.826,7.5449 1.458,1.8 1.429,4.5211 0.069,6.1312 3.03,1.7946 5.598,4.0196 6.798,7.0528 1.536,3.8859 1.089,8.4558 1.154,12.5523 l 0.214,13.7684 c 0.132,8.4633 0.264,16.9265 0.396,25.3898 0.237,-0.0363 0.469,-0.0785 0.725,-0.0894 9.05,-0.3836 20.339,7.8285 20.697,17.2875 0.284,7.501 -5.47,13.843 -12.653,13.433 z M 723.266,51.3609 c -0.134,-2.091 0.074,-2.291 -1.499,-3.5191 -1.21,-0.9445 -3.26,-1.6227 -4.613,-2.2902 -3.458,-1.7067 -6.915,-3.4145 -10.374,-5.1219 -4.596,-2.2695 -9.2,-4.5129 -13.735,-6.8899 -0.102,0.7227 -0.197,1.4461 -0.308,2.1676 -0.264,1.9321 -0.488,3.8719 -0.722,5.8078 -0.545,4.5192 -1.03,9.0438 -1.519,13.5692 -0.163,1.5039 -0.322,3.0074 -0.482,4.5113 0.053,2.8793 -0.159,5.7445 -0.925,8.5707 -0.351,3.1813 -0.714,6.3609 -1.118,9.5367 7.371,1.8985 14.633,3.3012 21.811,6.2137 4.756,1.9297 9.457,4.1047 13.983,6.5816 0.061,-13.0464 0.331,-26.1894 -0.499,-39.1375" />
      <path
         id="path582"
         style="fill:#e0dfe6;fill-opacity:1;fill-rule:nonzero;stroke:none"
         d="m 631.357,72.018 c -0.136,0.305 -0.409,0.5996 -0.644,0.8351 -0.339,0.3383 -0.76,0.6078 -1.219,0.8114 0.019,1.6062 -0.746,3.2421 -2.242,3.9707 -0.763,0.3714 -1.492,0.5515 -2.347,0.4367 -0.726,-0.0973 -1.64,-0.4102 -2.113,-1.0121 -0.354,-0.4512 -0.71,-0.9016 -1.063,-1.3539 -0.699,-0.8934 -1.335,-2.2336 -0.613,-3.336 0.431,-0.6574 1.035,-0.9976 1.705,-1.2008 -5.883,-5.6253 -8.142,-14.1558 -7.01,-22.1914 0.422,-2.9906 4.634,-1.8937 4.896,0.6625 0.755,7.3758 4.824,12.4985 10.006,17.3789 1.444,1.361 1.384,3.3383 0.644,4.9989" />
      <path
         id="path584"
         style="fill:#525d7d;fill-opacity:1;fill-rule:nonzero;stroke:none"
         d="m 684.647,17.6191 c -0.228,0 -0.457,0.0516 -0.666,0.1563 l -57.646,28.5777 c -0.533,0.2641 -0.859,0.8157 -0.833,1.4082 0.97,22.4895 2.166,45.3489 3.211,65.0107 0.034,0.649 0.482,1.201 1.11,1.369 12.842,3.435 25.704,7.369 38.143,11.173 6.492,1.986 13.204,4.038 19.836,5.997 0.384,0.112 0.796,0.069 1.147,-0.125 l 43.415,-23.866 c 0.465,-0.255 0.76,-0.737 0.776,-1.266 0.177,-5.543 0.263,-11.6028 0.263,-18.5267 0,-5.9796 -0.062,-12.0546 -0.122,-17.9308 -0.06,-5.8672 -0.122,-11.9356 -0.122,-17.8992 0,-4.4348 0.034,-8.4375 0.105,-12.2364 0.011,-0.6144 -0.352,-1.173 -0.918,-1.4113 -8.153,-3.4336 -16.825,-7.2117 -25.21,-10.8652 -7.882,-3.4336 -15.326,-6.6758 -21.907,-9.4485 -0.186,-0.0777 -0.384,-0.1168 -0.582,-0.1168 z M 628.542,48.607 684.698,20.7684 c 6.407,2.705 13.618,5.8468 21.239,9.1671 8.074,3.5172 16.414,7.1504 24.31,10.4852 -0.06,3.5148 -0.088,7.2156 -0.088,11.2766 0,5.9793 0.062,12.0547 0.122,17.9304 0.06,5.8672 0.122,11.9356 0.122,17.8996 0,6.5372 -0.077,12.2989 -0.234,17.5757 l -42.117,23.153 c -6.423,-1.901 -12.92,-3.887 -19.209,-5.811 -12.123,-3.708 -24.651,-7.539 -37.192,-10.919 -1.015,-19.1209 -2.166,-41.1717 -3.109,-62.919" />
      <path
         id="path586"
         style="fill:#525d7d;fill-opacity:1;fill-rule:nonzero;stroke:none"
         d="m 682.734,85.377 c -0.232,0 -0.464,0.0535 -0.677,0.1609 l -51.6,26.0641 c -0.739,0.373 -1.036,1.275 -0.662,2.015 0.374,0.739 1.274,1.033 2.015,0.662 l 51.016,-25.7685 48.322,17.9425 c 0.781,0.286 1.641,-0.107 1.929,-0.884 0.288,-0.777 -0.107,-1.64 -0.884,-1.929 L 683.257,85.4707 c -0.169,-0.0625 -0.346,-0.0937 -0.523,-0.0937" />
      <path
         id="path588"
         style="fill:#525d7d;fill-opacity:1;fill-rule:nonzero;stroke:none"
         d="m 684.141,17.8691 c -0.778,0 -1.436,0.6016 -1.494,1.3907 -0.382,5.2148 -2.286,32.5496 -2.286,58.5925 0,3.3243 0.044,6.4129 0.135,9.4422 0.025,0.8285 0.722,1.4926 1.544,1.4543 0.828,-0.0242 1.479,-0.7156 1.454,-1.5437 -0.089,-2.9992 -0.133,-6.0578 -0.133,-9.3528 0,-25.9382 1.898,-53.1765 2.278,-58.3742 0.061,-0.8258 -0.56,-1.5445 -1.386,-1.6051 -0.037,-0.0031 -0.074,-0.0039 -0.112,-0.0039" />
      <path
         id="path590"
         style="fill:#525d7d;fill-opacity:1;fill-rule:nonzero;stroke:none"
         d="m 739.453,100.954 c -0.727,0 -1.461,0.021 -2.2,0.057 -0.828,0.039 -1.467,0.742 -1.427,1.569 0.04,0.828 0.74,1.456 1.569,1.427 0.693,-0.034 1.378,-0.053 2.058,-0.053 9.903,0 11.049,4.04 11.049,7.079 0,4.849 -3.876,8.796 -8.64,8.796 -1.939,0 -3.133,-0.311 -3.857,-0.647 -0.012,-0.041 -0.024,-0.082 -0.037,-0.121 -0.596,-1.992 -1.576,-2.41 -2.293,-2.41 -0.975,0 -1.711,0.787 -1.711,1.831 0,0.893 0.502,1.808 1.374,2.543 0.125,0.788 0.224,1.907 0.224,3.473 0,4.113 -1.149,9.016 -6.625,9.016 -3.868,0 -7.978,-2.47 -7.978,-7.047 0,-0.456 0,-1.662 -1.204,-1.948 -1.201,-0.281 -1.731,0.786 -1.907,1.137 -0.669,1.335 -1.645,2.699 -3.81,2.699 -3.15,0 -6.597,-1.989 -6.711,-4.951 -0.031,-0.828 -0.715,-1.497 -1.557,-1.441 -0.828,0.032 -1.472,0.728 -1.441,1.556 0.186,4.84 5.184,7.836 9.709,7.836 1.737,0 3.225,-0.541 4.451,-1.614 1.526,4.421 6.099,6.773 10.448,6.773 6.027,0 9.625,-4.493 9.625,-12.016 0,-0.715 -0.019,-1.385 -0.057,-2.008 0.986,0.226 2.107,0.339 3.357,0.339 6.418,0 11.64,-5.292 11.64,-11.796 0,-4.597 -2.438,-10.079 -14.049,-10.079" />
      <path
         id="path592"
         style="fill:#525d7d;fill-opacity:1;fill-rule:nonzero;stroke:none"
         d="m 615.901,63.5762 c -2.89,0 -7.259,2.4265 -7.259,6.084 0,3.1211 2.067,5.2175 5.143,5.2175 0.562,0 1.111,-0.0539 1.642,-0.1062 l 0.403,-0.0383 c 0.349,-0.032 0.677,-0.1855 0.925,-0.4336 0.396,-0.3965 0.904,-0.7187 1.441,-1.0586 0.807,-0.5117 1.721,-1.0918 2.494,-2.0586 0.608,-0.7605 0.891,-1.5703 0.891,-2.5469 0,-3.1414 -2.596,-4.8789 -4.391,-4.8789 -0.058,0 -0.206,-0.0312 -0.326,-0.0566 -0.26,-0.0559 -0.584,-0.1238 -0.963,-0.1238 z m -2.116,8.3015 c -1.422,0 -2.143,-0.7461 -2.143,-2.2175 0,-1.4895 2.5,-3.084 4.259,-3.084 0.065,0 0.211,0.0308 0.341,0.0586 0.257,0.0547 0.576,0.1218 0.948,0.1218 0.172,0.0047 1.391,0.4075 1.391,1.8789 0,0.2989 -0.051,0.4434 -0.235,0.6739 -0.458,0.5754 -1.06,0.9558 -1.757,1.3972 -0.486,0.3086 -1.024,0.6504 -1.539,1.0872 -0.449,0.0441 -0.873,0.0839 -1.265,0.0839" />
      <path
         id="path594"
         style="fill:#525d7d;fill-opacity:1;fill-rule:nonzero;stroke:none"
         d="m 615.343,55.6109 c -3.219,0.8481 -6.814,1.7942 -9.696,3.9555 -0.662,0.4969 -0.797,1.4375 -0.3,2.1004 0.498,0.6621 1.438,0.7949 2.101,0.3 2.412,-1.8098 5.563,-2.6398 8.611,-3.4426 l -0.716,-2.9133" />
      <path
         id="path596"
         style="fill:#525d7d;fill-opacity:1;fill-rule:nonzero;stroke:none"
         d="m 613.534,47.6258 c -0.078,0 -0.156,0.0058 -0.236,0.0183 -2.269,0.3586 -4.69,0.4516 -7.032,0.5422 -0.826,0.0325 -1.648,0.0637 -2.459,0.1067 -0.827,0.0437 -1.462,0.7488 -1.419,1.5769 0.043,0.8262 0.713,1.4699 1.578,1.4192 0.797,-0.0422 1.604,-0.0735 2.416,-0.1047 2.429,-0.0938 4.94,-0.1914 7.384,-0.5774 0.819,-0.1289 1.377,-0.8972 1.247,-1.7156 -0.116,-0.7383 -0.754,-1.2656 -1.479,-1.2656" />
      <path
         id="path598"
         style="fill:#525d7d;fill-opacity:1;fill-rule:nonzero;stroke:none"
         d="m 606.851,32.659 c -2.647,0 -5.496,1.3105 -5.496,4.1894 0,3.9641 4.147,6.6262 8.02,6.6262 1.933,0 7.819,0 7.819,-4.8254 0,-1.4453 -1.368,-2.864 -4.065,-4.2187 -1.708,-0.8567 -4.252,-1.7715 -6.278,-1.7715 z m 2.524,7.8156 c -2.047,0 -5.02,-1.4121 -5.02,-3.6262 0,-0.9707 1.849,-1.1894 2.496,-1.1894 2.596,0 6.729,2.1797 7.338,3.1281 -0.064,0.8133 -0.771,1.6875 -4.814,1.6875 z m 4.854,-1.6164 0,0" />
      <path
         id="path600"
         style="fill:#525d7d;fill-opacity:1;fill-rule:nonzero;stroke:none"
         d="m 610.041,22.5145 c -0.416,0 -0.829,0.1718 -1.126,0.5078 -0.548,0.6211 -0.488,1.5695 0.133,2.1172 2.077,1.832 3.944,3.7304 5.922,5.7394 0.659,0.6688 1.32,1.3406 1.992,2.0125 0.586,0.5859 1.535,0.5859 2.121,0 0.586,-0.5859 0.586,-1.5351 0,-2.1211 -0.666,-0.666 -1.322,-1.332 -1.975,-1.9961 -1.927,-1.9578 -3.92,-3.9824 -6.076,-5.8847 -0.285,-0.2508 -0.639,-0.375 -0.991,-0.375" />
      <path
         id="path602"
         style="fill:#525d7d;fill-opacity:1;fill-rule:nonzero;stroke:none"
         d="m 623.412,14.3316 c -1.794,0 -5.144,1.4829 -5.144,5.0532 0,3.7683 2.525,7.241 5.872,8.0789 0.192,0.0488 0.408,0.0722 0.664,0.0722 2.272,0 4.862,-2.407 4.862,-4.5195 0,-0.118 0.014,-0.248 0.027,-0.3828 0.021,-0.2422 0.043,-0.4934 0.043,-0.7363 0,-1.8235 -1.902,-7.5657 -6.324,-7.5657 z m 1.462,10.2231 c -2.258,-0.5637 -3.606,-3.0715 -3.606,-5.1699 0,-1.8352 2.122,-2.0532 2.144,-2.0532 2.207,0 3.302,3.9477 3.324,4.5735 0,0.1445 -0.016,0.3008 -0.03,0.4519 -0.022,0.2328 -0.04,0.4575 -0.04,0.6594 -0.073,0.4824 -1.237,1.5195 -1.862,1.5195 0.004,0.002 0.039,0.0118 0.07,0.0188" />
      <path
         id="path604"
         style="fill:#525d7d;fill-opacity:1;fill-rule:nonzero;stroke:none"
         d="m 638.649,14.5535 c -0.758,0 -1.408,0.5723 -1.49,1.343 -0.116,1.1074 -0.32,2.1851 -0.533,3.3262 -0.328,1.7363 -0.665,3.532 -0.665,5.4097 0,0.2629 0.007,0.5266 0.02,0.7922 0.045,0.8262 0.729,1.4297 1.578,1.418 0.827,-0.0442 1.462,-0.7508 1.418,-1.5781 -0.011,-0.211 -0.016,-0.4219 -0.016,-0.6321 0,-1.5984 0.298,-3.1804 0.613,-4.8551 0.216,-1.1496 0.439,-2.3378 0.569,-3.5664 0.086,-0.8246 -0.511,-1.5625 -1.335,-1.6496 -0.053,-0.0047 -0.106,-0.0078 -0.159,-0.0078" />
      <path
         id="path606"
         style="fill:#525d7d;fill-opacity:1;fill-rule:nonzero;stroke:none"
         d="m 651.117,16.3609 c -0.514,0 -1.015,0.2649 -1.294,0.7395 -1.696,2.884 -3.427,5.9812 -4.316,9.3594 -0.211,0.8007 0.268,1.6211 1.069,1.832 0.803,0.2141 1.622,-0.2684 1.832,-1.0684 0.793,-3.0086 2.411,-5.8996 4.001,-8.6015 0.42,-0.7137 0.182,-1.6336 -0.532,-2.0535 -0.239,-0.1407 -0.501,-0.2075 -0.76,-0.2075" />
      <path
         id="path608"
         style="fill:#525d7d;fill-opacity:1;fill-rule:nonzero;stroke:none"
         d="m 659.326,19.3113 c -2.391,0 -6.782,2.6602 -6.782,7.0059 0,2.123 1.422,5.332 3.567,5.332 0.516,0 1.008,-0.209 1.387,-0.5879 0.586,-0.5859 0.586,-1.5351 0,-2.1211 -0.338,-0.3386 -0.795,-0.4804 -1.239,-0.4289 -0.316,-0.4519 -0.715,-1.4129 -0.715,-2.1941 0,-2.5481 2.972,-4.0059 3.782,-4.0059 0.681,0 2.429,1.6797 2.429,3.5325 0,0.8281 0.672,1.5 1.5,1.5 0.829,0 1.5,-0.6719 1.5,-1.5 0,-3.175 -2.791,-6.5325 -5.429,-6.5325" />
      <path
         id="path610"
         style="fill:#525d7d;fill-opacity:1;fill-rule:nonzero;stroke:none"
         d="m 694.349,47.5176 c -4.402,0 -5.565,5.9922 -5.565,9.1609 0,3.1145 0.457,13.2774 6.34,13.2774 1.961,0 3.94,-1.3235 3.94,-4.2782 0,-0.5617 -0.106,-1.1 -0.326,-1.6457 -0.309,-0.7683 -1.184,-1.1418 -1.951,-0.832 -0.769,0.3086 -1.142,1.1824 -0.832,1.9512 0.075,0.1886 0.109,0.3508 0.109,0.5265 0,1.2782 -0.659,1.2782 -0.94,1.2782 -2.169,0 -3.34,-5.295 -3.34,-10.2774 0,-2.0808 0.774,-6.1609 2.565,-6.1609 0.297,0 1.134,0.5457 1.633,0.8719 0.613,0.4003 1.245,0.8132 1.939,1.1105 0.761,0.325 1.643,-0.0285 1.969,-0.7883 0.326,-0.7617 -0.026,-1.6433 -0.788,-1.9695 -0.453,-0.1945 -0.975,-0.5356 -1.479,-0.8645 -1.025,-0.6687 -2.084,-1.3601 -3.274,-1.3601" />
      <path
         id="path612"
         style="fill:#525d7d;fill-opacity:1;fill-rule:nonzero;stroke:none"
         d="m 706.38,55.4559 c -0.793,0 -1.457,0.623 -1.496,1.425 -0.05,0.9902 -0.15,1.9863 -0.255,3.0418 -0.152,1.5128 -0.308,3.0761 -0.308,4.6437 0,0.9922 0.063,1.8895 0.19,2.7422 0.123,0.8203 0.891,1.3902 1.707,1.2605 0.819,-0.123 1.383,-0.8867 1.26,-1.7058 -0.105,-0.7043 -0.157,-1.4551 -0.157,-2.2969 0,-1.4172 0.149,-2.9055 0.293,-4.3449 0.104,-1.0457 0.212,-2.1258 0.266,-3.1902 0.041,-0.8274 -0.596,-1.5325 -1.423,-1.5735 -0.026,-0.0012 -0.051,-0.0019 -0.077,-0.0019" />
      <path
         id="path614"
         style="fill:#525d7d;fill-opacity:1;fill-rule:nonzero;stroke:none"
         d="m 701.836,58.7676 c -0.663,0 -1.27,0.4422 -1.448,1.1133 -0.215,0.7996 0.261,1.6218 1.062,1.8359 1.486,0.3965 2.934,1.0605 4.469,1.7637 0.864,0.3965 1.758,0.8054 2.677,1.1738 0.768,0.3066 1.643,-0.0664 1.95,-0.8352 0.308,-0.7695 -0.066,-1.6425 -0.834,-1.95 -0.853,-0.341 -1.712,-0.7355 -2.543,-1.1164 -1.58,-0.7234 -3.214,-1.4726 -4.946,-1.9343 -0.13,-0.0344 -0.259,-0.0508 -0.387,-0.0508" />
      <path
         id="path616"
         style="fill:#525d7d;fill-opacity:1;fill-rule:nonzero;stroke:none"
         d="m 717.324,58.6707 c -0.828,0 -1.5,0.6719 -1.5,1.5 0,1.5898 -0.168,3.1231 -0.347,4.7481 -0.177,1.6203 -0.361,3.2949 -0.361,5.0226 0,0.3438 0.008,0.6895 0.023,1.0367 0.038,0.8285 0.758,1.4887 1.566,1.4309 0.828,-0.0371 1.468,-0.7383 1.431,-1.5652 -0.014,-0.3032 -0.02,-0.6036 -0.02,-0.9024 0,-1.5637 0.167,-3.0851 0.344,-4.6953 0.178,-1.6328 0.364,-3.3215 0.364,-5.0754 0,-0.8281 -0.672,-1.5 -1.5,-1.5" />
      <path
         id="path618"
         style="fill:#525d7d;fill-opacity:1;fill-rule:nonzero;stroke:none"
         d="m 713.31,63.0918 c -0.672,0 -1.284,0.4551 -1.454,1.1363 -0.201,0.8039 0.288,1.6176 1.092,1.8188 1.786,0.4461 3.507,1.1355 5.328,1.8652 0.767,0.3074 1.538,0.616 2.325,0.9109 0.775,0.2922 1.641,-0.1015 1.931,-0.8781 0.291,-0.7754 -0.102,-1.6394 -0.878,-1.9304 -0.765,-0.2872 -1.516,-0.5879 -2.262,-0.8868 -1.835,-0.7351 -3.733,-1.4953 -5.717,-1.9914 -0.123,-0.03 -0.245,-0.0445 -0.365,-0.0445" />
      <path
         id="path620"
         style="fill:#525d7d;fill-opacity:1;fill-rule:nonzero;stroke:none"
         d="m 635.895,59.0152 c -0.828,0 -1.5,0.6723 -1.5,1.5 l -0.002,3.3657 c 0,5.9336 0.059,11.7507 0.765,17.6836 0.099,0.823 0.858,1.4187 1.666,1.3125 0.823,-0.0977 1.41,-0.8438 1.312,-1.6661 -0.686,-5.7707 -0.743,-11.4902 -0.743,-17.33 l 0.002,-3.3657 c 0,-0.8277 -0.672,-1.5 -1.5,-1.5" />
      <path
         id="path622"
         style="fill:#525d7d;fill-opacity:1;fill-rule:nonzero;stroke:none"
         d="m 642.279,57.3855 c -0.796,0 -1.459,0.625 -1.497,1.429 -0.086,1.7886 -0.129,3.6628 -0.129,5.5703 0,4.8398 0.268,10.0125 0.82,15.814 0.079,0.8254 0.823,1.4375 1.635,1.352 0.825,-0.0781 1.43,-0.8106 1.352,-1.6352 -0.543,-5.7066 -0.807,-10.7867 -0.807,-15.5308 0,-1.8606 0.042,-3.686 0.125,-5.4282 0.04,-0.8269 -0.599,-1.53 -1.427,-1.5691 -0.024,-0.0012 -0.049,-0.002 -0.072,-0.002" />
      <path
         id="path624"
         style="fill:#525d7d;fill-opacity:1;fill-rule:nonzero;stroke:none"
         d="m 641.139,67.748 c -0.097,0 -0.197,0.0094 -0.296,0.0293 -0.439,0.0879 -0.879,0.1504 -1.314,0.2129 -1.29,0.1864 -2.624,0.3789 -3.942,1.1102 -0.724,0.4023 -0.986,1.3152 -0.583,2.0398 0.402,0.725 1.318,0.9848 2.04,0.5832 0.835,-0.4636 1.797,-0.6035 2.913,-0.7636 0.489,-0.0703 0.982,-0.1426 1.475,-0.241 0.812,-0.1622 1.339,-0.9536 1.176,-1.7661 -0.142,-0.7125 -0.769,-1.2047 -1.469,-1.2047" />
      <path
         id="path626"
         style="fill:#525d7d;fill-opacity:1;fill-rule:nonzero;stroke:none"
         d="m 649.13,56.5516 c -0.027,0 -0.054,0.0011 -0.082,0.0019 -0.827,0.0449 -1.461,0.752 -1.416,1.5789 0.334,6.1621 0.813,12.0844 1.32,18.3547 0.066,0.8254 0.762,1.4531 1.618,1.3906 0.825,-0.0672 1.441,-0.7734 1.375,-1.5996 -0.509,-6.2832 -0.986,-12.1855 -1.317,-18.3074 -0.044,-0.8 -0.705,-1.4191 -1.498,-1.4191" />
      <path
         id="path628"
         style="fill:#525d7d;fill-opacity:1;fill-rule:nonzero;stroke:none"
         d="m 654.325,74.6668 c -0.186,0 -0.374,0.0344 -0.557,0.1074 -0.682,0.2727 -1.382,0.5117 -2.08,0.7512 -1.917,0.6562 -3.899,1.3348 -5.644,2.6785 -0.658,0.5051 -0.781,1.4465 -0.275,2.1027 0.504,0.6582 1.447,0.7793 2.103,0.2743 1.355,-1.0418 3.023,-1.6133 4.788,-2.2176 0.747,-0.2563 1.493,-0.5117 2.222,-0.8039 0.769,-0.3074 1.143,-1.1805 0.836,-1.9492 -0.235,-0.5868 -0.798,-0.9434 -1.393,-0.9434" />
      <path
         id="path630"
         style="fill:#525d7d;fill-opacity:1;fill-rule:nonzero;stroke:none"
         d="m 664.255,47.6258 c -0.037,0 -0.074,0.0012 -0.111,0.0039 -0.826,0.0605 -1.447,0.7793 -1.387,1.6055 0.088,1.2023 0.181,2.4003 0.274,3.5937 0.193,2.4844 0.381,4.8887 0.519,7.2813 -0.425,-0.6309 -0.845,-1.2606 -1.26,-1.8836 l -0.967,-1.4465 c -0.333,-0.4969 -0.928,-0.752 -1.521,-0.6387 -0.588,0.1106 -1.055,0.5598 -1.187,1.1445 -0.313,1.3875 -0.602,2.8282 -0.877,4.3782 -1.214,-2.7637 -2.28,-5.511 -3.006,-8.4121 -0.2,-0.8032 -1.009,-1.2911 -1.819,-1.0911 -0.804,0.2012 -1.292,1.0157 -1.091,1.8196 1.165,4.6609 3.189,9.0125 5.146,13.2215 l 0.118,0.2519 c 0.28,0.6016 0.921,0.9531 1.581,0.8508 0.658,-0.0981 1.172,-0.6164 1.264,-1.2746 0.289,-2.0528 0.582,-3.8887 0.897,-5.5918 1.034,1.539 2.101,3.0937 3.227,4.5949 0.392,0.5203 1.075,0.7313 1.69,0.5176 0.615,-0.2121 1.023,-0.7981 1.01,-1.4492 -0.086,-4.1926 -0.414,-8.418 -0.733,-12.5051 -0.092,-1.1895 -0.184,-2.3817 -0.272,-3.5801 -0.058,-0.7891 -0.716,-1.3906 -1.495,-1.3906" />
      <path
         id="path632"
         style="fill:#525d7d;fill-opacity:1;fill-rule:nonzero;stroke:none"
         d="m 674.732,42.1375 c -0.082,0 -0.165,0.0066 -0.249,0.0207 -1.151,0.1922 -6.899,1.3238 -6.899,4.7637 0,0.1297 0,0.1297 0.119,0.8496 2.06,12.3965 2.367,15.7558 2.367,16.6543 0,0.8281 0.672,1.5 1.5,1.5 0.828,0 1.5,-0.6719 1.5,-1.5 0,-1.761 -0.809,-7.5305 -2.407,-17.1465 l -0.065,-0.3898 c 0.233,-0.4481 2.038,-1.3821 4.379,-1.7723 0.817,-0.1359 1.369,-0.9094 1.233,-1.727 -0.122,-0.7332 -0.758,-1.2527 -1.478,-1.2527" />
      <path
         id="path634"
         style="fill:#525d7d;fill-opacity:1;fill-rule:nonzero;stroke:none"
         d="m 664.489,107.811 c -3.378,0 -5.56,1.248 -5.56,3.178 0,0.051 -0.008,0.094 -0.012,0.134 -0.017,0.141 -0.029,0.273 -0.029,0.414 0,4.448 11.951,8.627 15.399,8.627 2.466,0 4.308,-1.678 4.308,-3.179 0,-0.13 -0.015,-0.265 -0.037,-0.402 0,-0.828 -0.672,-1.47 -1.5,-1.47 -0.828,0 -1.5,0.702 -1.5,1.53 0,0.033 10e-4,0.065 0.003,0.098 -0.206,0.175 -0.651,0.423 -1.274,0.423 -3.739,0 -12.067,-4.061 -12.401,-5.658 0.01,-0.074 0.02,-0.143 0.027,-0.211 0.323,-0.193 1.198,-0.484 2.576,-0.484 0.235,0 0.47,0.003 0.702,0.007 0.244,0.004 0.486,0.008 0.725,0.008 0.828,0 1.5,-0.672 1.5,-1.5 0,-0.828 -0.672,-1.5 -1.5,-1.5 -0.223,0 -0.448,-0.004 -0.676,-0.008 -0.248,-0.004 -0.499,-0.007 -0.751,-0.007" />
      <path
         id="path636"
         style="fill:#525d7d;fill-opacity:1;fill-rule:nonzero;stroke:none"
         d="m 676.796,100.768 c -2.996,0 -4.133,1.872 -4.885,3.111 -0.117,0.193 -0.234,0.386 -0.357,0.573 -0.461,0.689 -0.273,1.62 0.416,2.079 0.687,0.461 1.621,0.274 2.08,-0.417 0.147,-0.221 0.287,-0.449 0.425,-0.678 0.721,-1.186 1.063,-1.668 2.321,-1.668 1.759,0 3.486,1.397 3.486,2.819 0,0.345 -0.114,0.727 -0.245,1.17 -0.171,0.571 -0.364,1.22 -0.364,1.974 0,3.104 3.211,5.009 5.514,5.009 1.921,0 2.957,-1.39 2.957,-2.698 0,-0.689 -0.253,-1.321 -0.713,-1.781 -0.586,-0.585 -1.535,-0.585 -2.121,0 -0.394,0.395 -0.523,0.955 -0.387,1.457 -0.894,-0.141 -2.25,-0.936 -2.25,-1.987 0,-0.318 0.111,-0.689 0.239,-1.119 0.174,-0.583 0.37,-1.244 0.37,-2.025 0,-3.1 -3.03,-5.819 -6.486,-5.819" />
      <path
         id="path638"
         style="fill:#525d7d;fill-opacity:1;fill-rule:nonzero;stroke:none"
         d="m 688.548,94.45 c -0.166,0 -0.327,0.0098 -0.494,0.0207 -0.113,0.0074 -0.231,0.0164 -0.364,0.0164 -1.949,0 -3.948,2.6359 -4.032,2.7473 -0.497,0.6629 -0.362,1.6035 0.3,2.1004 0.664,0.4961 1.603,0.3625 2.1,-0.2996 0.455,-0.6086 1.344,-1.4075 1.714,-1.5493 0.172,-0.0015 0.33,-0.0113 0.482,-0.0222 0.099,-0.0059 0.195,-0.0137 0.294,-0.0137 2.016,0 2.439,1.9492 2.439,3.585 0,0.823 -0.082,1.712 -0.161,2.571 -0.059,0.627 -0.114,1.238 -0.14,1.806 -0.002,1.726 1.698,3.499 4.446,3.499 2.27,0 3.918,-1.409 3.918,-3.352 0,-0.207 -0.019,-0.425 -0.06,-0.654 -0.145,-0.816 -0.93,-1.357 -1.74,-1.213 -0.816,0.146 -1.359,0.925 -1.213,1.74 0.008,0.045 0.013,0.087 0.013,0.127 0,0.202 -0.485,0.352 -0.918,0.352 -0.847,0 -1.318,-0.34 -1.443,-0.511 0.025,-0.45 0.074,-0.977 0.124,-1.518 0.085,-0.927 0.174,-1.886 0.174,-2.847 0,-4.8604 -2.93,-6.585 -5.439,-6.585 z m 5.115,10.908 0,0" />
    </g>
  </g>
</svg>
